<?xml version="1.0" encoding="UTF-8"?>
<svg width="3300px" height="2200px" viewBox="0 0 3300 2200" version="1.1" xmlns="http://www.w3.org/2000/svg" xmlns:xlink="http://www.w3.org/1999/xlink">
    <title>26.circle</title>
    <g id="Page-1" stroke="none" stroke-width="1" fill="none" fill-rule="evenodd">
        <g id="26.circle">
            <g id="Notes">
                <rect id="artboard" fill="#FFFFFF" fill-rule="nonzero" x="0" y="0" width="3300" height="2200"></rect>
                <line x1="263" y1="292" x2="3036" y2="292" id="Path" stroke="#000000" stroke-width="0.5"></line>
                <text id="Weight/Scale-Variations" fill="#000000" fill-rule="nonzero" font-family="Helvetica" font-size="13" font-weight="normal">
                    <tspan x="263" y="322">Weight/Scale Variations</tspan>
                </text>
                <text id="Ultralight" fill="#000000" fill-rule="nonzero" font-family="Helvetica" font-size="13" font-weight="normal">
                    <tspan x="533.711" y="322">Ultralight</tspan>
                </text>
                <text id="Thin" fill="#000000" fill-rule="nonzero" font-family="Helvetica" font-size="13" font-weight="normal">
                    <tspan x="843.422" y="322">Thin</tspan>
                </text>
                <text id="Light" fill="#000000" fill-rule="nonzero" font-family="Helvetica" font-size="13" font-weight="normal">
                    <tspan x="1138.63" y="322">Light</tspan>
                </text>
                <text id="Regular" fill="#000000" fill-rule="nonzero" font-family="Helvetica" font-size="13" font-weight="normal">
                    <tspan x="1426.84" y="322">Regular</tspan>
                </text>
                <text id="Medium" fill="#000000" fill-rule="nonzero" font-family="Helvetica" font-size="13" font-weight="normal">
                    <tspan x="1723.06" y="322">Medium</tspan>
                </text>
                <text id="Semibold" fill="#000000" fill-rule="nonzero" font-family="Helvetica" font-size="13" font-weight="normal">
                    <tspan x="2015.77" y="322">Semibold</tspan>
                </text>
                <text id="Bold" fill="#000000" fill-rule="nonzero" font-family="Helvetica" font-size="13" font-weight="normal">
                    <tspan x="2326.48" y="322">Bold</tspan>
                </text>
                <text id="Heavy" fill="#000000" fill-rule="nonzero" font-family="Helvetica" font-size="13" font-weight="normal">
                    <tspan x="2618.19" y="322">Heavy</tspan>
                </text>
                <text id="Black" fill="#000000" fill-rule="nonzero" font-family="Helvetica" font-size="13" font-weight="normal">
                    <tspan x="2917.4" y="322">Black</tspan>
                </text>
                <line x1="263" y1="1903" x2="3036" y2="1903" id="Path" stroke="#000000" stroke-width="0.5"></line>
                <g id="Group" transform="translate(264.367190, 1918.068400)" fill="#000000" fill-rule="nonzero">
                    <path d="M7.88086,15.761678 C8.96156,15.761678 9.97717667,15.5566 10.92771,15.146444 C11.8782433,14.7362873 12.7164767,14.166626 13.44241,13.43746 C14.1682767,12.7082933 14.7379433,11.86845 15.15141,10.91793 C15.56481,9.96741 15.77151,8.95504 15.77151,7.88082 C15.77151,6.8066 15.56481,5.79422667 15.15141,4.8437 C14.7379433,3.89316667 14.1666433,3.05333333 13.43751,2.3242 C12.70831,1.595 11.8684767,1.02533333 10.91801,0.6152 C9.96747667,0.205066667 8.95183667,0 7.87109,0 C6.79687,0 5.7845,0.205066667 4.83398,0.6152 C3.88346,1.02533333 3.04687333,1.595 2.32422,2.3242 C1.60156,3.05333333 1.03352333,3.89316667 0.62011,4.8437 C0.206703333,5.79422667 -8.8817842e-16,6.8066 -8.8817842e-16,7.88082 C-8.8817842e-16,8.95504 0.206703333,9.96741 0.62011,10.91793 C1.03352333,11.86845 1.60318667,12.7082933 2.3291,13.43746 C3.05501333,14.166626 3.89323,14.7362873 4.84375,15.146444 C5.79427,15.5566 6.80664,15.761678 7.88086,15.761678 Z M7.88086,14.277303 C6.99544,14.277303 6.16699,14.1129153 5.39551,13.78414 C4.62402333,13.4553667 3.94694,12.99801 3.36426,12.41207 C2.78157333,11.82613 2.32584333,11.14579 1.99707,10.37105 C1.66829,9.59631 1.5039,8.76623333 1.5039,7.88082 C1.5039,6.9954 1.66666333,6.16532 1.99219,5.39058 C2.31771,4.61586 2.77181,3.93553333 3.35449,3.3496 C3.93717,2.76366667 4.61425333,2.3063 5.38574,1.9775 C6.15722667,1.6487 6.98567667,1.4843 7.87109,1.4843 C8.76303667,1.4843 9.59474333,1.6487 10.36621,1.9775 C11.1376767,2.3063 11.8163767,2.76366667 12.40231,3.3496 C12.9882433,3.93553333 13.4472433,4.61586 13.77931,5.39058 C14.11131,6.16532 14.27731,6.9954 14.27731,7.88082 C14.27731,8.76623333 14.1129433,9.59631 13.78421,10.37105 C13.45541,11.14579 12.9996767,11.82613 12.41701,12.41207 C11.8343433,12.99801 11.15561,13.4553667 10.38081,13.78414 C9.60607667,14.1129153 8.77276,14.277303 7.88086,14.277303 Z M4.28711,7.88082 C4.28711,8.09566 4.35547,8.26981333 4.49219,8.40328 C4.62890333,8.53674667 4.81119333,8.60348 5.03906,8.60348 L7.14843,8.60348 L7.14843,10.72262 C7.14843,10.93746 7.21353667,11.1148667 7.34375,11.25484 C7.47395667,11.3948133 7.64973667,11.4648 7.87109,11.4648 C8.08593667,11.4648 8.26334667,11.3948133 8.40332,11.25484 C8.54329333,11.1148667 8.61328,10.93746 8.61328,10.72262 L8.61328,8.60348 L10.72261,8.60348 C10.94401,8.60348 11.1230767,8.53674667 11.25981,8.40328 C11.3964767,8.26981333 11.46481,8.09566 11.46481,7.88082 C11.46481,7.65946667 11.3964767,7.48043 11.25981,7.34371 C11.1230767,7.20699 10.94401,7.13863 10.72261,7.13863 L8.61328,7.13863 L8.61328,5.02926 C8.61328,4.80788667 8.54329333,4.62723333 8.40332,4.4873 C8.26334667,4.3473 8.08593667,4.2773 7.87109,4.2773 C7.64973667,4.2773 7.47395667,4.3473 7.34375,4.4873 C7.21353667,4.62723333 7.14843,4.80788667 7.14843,5.02926 L7.14843,7.13863 L5.03906,7.13863 C4.81119333,7.13863 4.62890333,7.20699 4.49219,7.34371 C4.35547,7.48043 4.28711,7.65946667 4.28711,7.88082 Z" id="Shape"></path>
                </g>
                <g id="Group" transform="translate(283.615050, 1915.988300)" fill="#000000" fill-rule="nonzero">
                    <path d="M9.96095,19.92186 C11.3216167,19.92186 12.60255,19.6614433 13.80375,19.14061 C15.0048833,18.6197767 16.06445,17.9003744 16.98245,16.9824031 C17.9003833,16.0644344 18.6197833,15.0048633 19.14065,13.80369 C19.66145,12.6025167 19.92185,11.3215933 19.92185,9.96092 C19.92185,8.60024 19.66145,7.3193 19.14065,6.1181 C18.6197833,4.91696667 17.9003833,3.8574 16.98245,2.9394 C16.06445,2.02146667 15.00325,1.30206667 13.79885,0.7812 C12.5943833,0.2604 11.3118167,0 9.95115,0 C8.59048333,0 7.30956667,0.2604 6.1084,0.7812 C4.90722667,1.30206667 3.84928333,2.02146667 2.93457,2.9394 C2.01985667,3.8574 1.30208333,4.91696667 0.78125,6.1181 C0.260416667,7.3193 8.8817842e-16,8.60024 8.8817842e-16,9.96092 C8.8817842e-16,11.3215933 0.260416667,12.6025167 0.78125,13.80369 C1.30208333,15.0048633 2.02148333,16.0644344 2.93945,16.9824031 C3.85741667,17.9003744 4.91698667,18.6197767 6.11816,19.14061 C7.31933333,19.6614433 8.60026333,19.92186 9.96095,19.92186 Z M9.96095,18.2617 C8.80859667,18.2617 7.73111667,18.0468563 6.72851,17.617169 C5.72591,17.1874813 4.84537667,16.593405 4.08691,15.83494 C3.32845,15.07648 2.73600333,14.1959467 2.30957,13.19334 C1.88313667,12.1907333 1.66992,11.11326 1.66992,9.96092 C1.66992,8.80857333 1.88313667,7.7311 2.30957,6.7285 C2.73600333,5.7259 3.32682333,4.84373333 4.08203,4.082 C4.83723667,3.32026667 5.71614333,2.7262 6.71875,2.2998 C7.72135,1.87333333 8.79881667,1.6601 9.95115,1.6601 C11.1034833,1.6601 12.18095,1.87333333 13.18355,2.2998 C14.18615,2.7262 15.0683167,3.32026667 15.83005,4.082 C16.5917833,4.84373333 17.1874833,5.7259 17.61715,6.7285 C18.0468833,7.7311 18.26175,8.80857333 18.26175,9.96092 C18.26175,11.11326 18.0485167,12.1907333 17.62205,13.19334 C17.19565,14.1959467 16.6032167,15.07648 15.84475,15.83494 C15.0862833,16.593405 14.2041167,17.1874813 13.19825,17.617169 C12.1923833,18.0468563 11.1132833,18.2617 9.96095,18.2617 Z M5.42968,9.96092 C5.42968,10.1952933 5.50780667,10.38735 5.66406,10.53709 C5.82030667,10.68683 6.02213,10.7617 6.26953,10.7617 L9.14065,10.7617 L9.14065,13.64256 C9.14065,13.8899533 9.21551667,14.09015 9.36525,14.24315 C9.51498333,14.3961433 9.70705,14.47264 9.94145,14.47264 C10.1887833,14.47264 10.38895,14.3961433 10.54195,14.24315 C10.69495,14.09015 10.77145,13.8899533 10.77145,13.64256 L10.77145,10.7617 L13.65235,10.7617 C13.89975,10.7617 14.09995,10.68683 14.25295,10.53709 C14.40595,10.38735 14.48245,10.1952933 14.48245,9.96092 C14.48245,9.71352 14.40595,9.51332333 14.25295,9.36033 C14.09995,9.20733667 13.89975,9.13084 13.65235,9.13084 L10.77145,9.13084 L10.77145,6.2597 C10.77145,6.00583333 10.69495,5.8024 10.54195,5.6494 C10.38895,5.4964 10.1887833,5.4199 9.94145,5.4199 C9.70705,5.4199 9.51498333,5.49803333 9.36525,5.6543 C9.21551667,5.81056667 9.14065,6.01236667 9.14065,6.2597 L9.14065,9.13084 L6.26953,9.13084 C6.01562333,9.13084 5.81217333,9.20733667 5.65918,9.36033 C5.50618,9.51332333 5.42968,9.71352 5.42968,9.96092 Z" id="Shape"></path>
                </g>
                <g id="Group" transform="translate(307.901860, 1913.224600)" fill="#000000" fill-rule="nonzero">
                    <path d="M12.71484,25.43946 C14.10804,25.43946 15.4378067,25.22299 16.70414,24.79005 C17.9704067,24.3571033 19.13414,23.7500067 20.19534,22.96876 C21.25654,22.1875067 22.1793733,21.2662827 22.96384,20.205088 C23.7483733,19.1438893 24.3571067,17.9785233 24.79004,16.70899 C25.2229733,15.4394633 25.43944,14.11134 25.43944,12.72462 C25.43944,11.3313933 25.2229733,10.0016533 24.79004,8.7354 C24.3571067,7.46906667 23.7483733,6.30533333 22.96384,5.2442 C22.1793733,4.183 21.25654,3.26013333 20.19534,2.4756 C19.13414,1.69106667 17.9687733,1.08233333 16.69924,0.6494 C15.4297067,0.216466667 14.0983067,0 12.70504,0 C11.31184,0 9.98210667,0.216466667 8.71584,0.6494 C7.44955333,1.08233333 6.28743667,1.69106667 5.22949,2.4756 C4.17155,3.26013333 3.25032667,4.183 2.46582,5.2442 C1.68131333,6.30533333 1.07421667,7.46906667 0.64453,8.7354 C0.214843333,10.0016533 0,11.3313933 0,12.72462 C0,14.11134 0.21647,15.4394633 0.64941,16.70899 C1.08235667,17.9785233 1.68945333,19.1438893 2.4707,20.205088 C3.25195333,21.2662827 4.17317667,22.1875067 5.23437,22.96876 C6.29557,23.7500067 7.45929333,24.3571033 8.72554,24.79005 C9.99187333,25.22299 11.32164,25.43946 12.71484,25.43946 Z M12.71484,23.62306 C11.51044,23.62306 10.3629733,23.43914 9.27244,23.0713 C8.18196,22.70346 7.18424667,22.18751 6.2793,21.52345 C5.37434667,20.8593853 4.58821333,20.0732513 3.9209,19.165048 C3.25358,18.2568427 2.73763,17.2574933 2.37305,16.167 C2.00846333,15.0765067 1.82617,13.9290467 1.82617,12.72462 C1.82617,11.51368 2.00846333,10.3629733 2.37305,9.2725 C2.73763,8.18196667 3.25195333,7.1826 3.91602,6.2744 C4.58008,5.3662 5.36458333,4.58006667 6.26953,3.916 C7.17447667,3.25193333 8.17221333,2.73763333 9.26274,2.3731 C10.3532067,2.0085 11.50064,1.8262 12.70504,1.8262 C13.9159733,1.8262 15.0667067,2.0085 16.15724,2.3731 C17.2477067,2.73763333 18.24704,3.25193333 19.15524,3.916 C20.06344,4.58006667 20.8495733,5.3662 21.51364,6.2744 C22.1777067,7.1826 22.6936733,8.18196667 23.06154,9.2725 C23.42934,10.3629733 23.6134125,11.51368 23.6134125,12.72462 C23.6197733,13.9290467 23.44074,15.0765067 23.07614,16.167 C22.7116067,17.2574933 22.1956733,18.2568427 21.52834,19.165048 C20.8610067,20.0732513 20.07324,20.8593853 19.16504,21.52345 C18.25684,22.18751 17.2575067,22.70346 16.16704,23.0713 C15.0765067,23.43914 13.9257733,23.62306 12.71484,23.62306 Z M6.94336,12.72462 C6.94336,12.9785267 7.02962333,13.1884867 7.20215,13.3545 C7.37467667,13.5205133 7.59440667,13.60352 7.86134,13.60352 L11.80664,13.60352 L11.80664,17.5586 C11.80664,17.8255267 11.88964,18.0452533 12.05564,18.21778 C12.22164,18.3903067 12.4348733,18.47657 12.69534,18.47657 C12.9622733,18.47657 13.1820067,18.3919367 13.35454,18.22267 C13.5270067,18.0533967 13.61324,17.83204 13.61324,17.5586 L13.61324,13.60352 L17.56834,13.60352 C17.8352733,13.60352 18.0533733,13.5205133 18.22264,13.3545 C18.3919067,13.1884867 18.47654,12.9785267 18.47654,12.72462 C18.47654,12.45118 18.3919067,12.2298267 18.22264,12.06056 C18.0533733,11.8912867 17.8352733,11.80665 17.56834,11.80665 L13.61324,11.80665 L13.61324,7.8613 C13.61324,7.5879 13.5270067,7.36493333 13.35454,7.1924 C13.1820067,7.01986667 12.9622733,6.9336 12.69534,6.9336 C12.4348733,6.9336 12.22164,7.01986667 12.05564,7.1924 C11.88964,7.36493333 11.80664,7.5879 11.80664,7.8613 L11.80664,11.80665 L7.86134,11.80665 C7.58789333,11.80665 7.36653333,11.8912867 7.19726,12.06056 C7.02799333,12.2298267 6.94336,12.45118 6.94336,12.72462 Z" id="Shape"></path>
                </g>
                <text id="Design-Variations" fill="#000000" fill-rule="nonzero" font-family="Helvetica" font-size="13" font-weight="normal">
                    <tspan x="263" y="1953">Design Variations</tspan>
                </text>
                <text id="Symbols-are-supported-in-up-to-nine-weights-and-three-scales." fill="#000000" fill-rule="nonzero" font-family="Helvetica" font-size="13" font-weight="normal">
                    <tspan x="263" y="1971">Symbols are supported in up to nine weights and three scales.</tspan>
                </text>
                <text id="For-optimal-layout-with-text-and-other-symbols,-vertically-align" fill="#000000" fill-rule="nonzero" font-family="Helvetica" font-size="13" font-weight="normal">
                    <tspan x="263" y="1989">For optimal layout with text and other symbols, vertically align</tspan>
                </text>
                <text id="symbols-with-the-adjacent-text." fill="#000000" fill-rule="nonzero" font-family="Helvetica" font-size="13" font-weight="normal">
                    <tspan x="263" y="2007">symbols with the adjacent text.</tspan>
                </text>
                <line x1="776" y1="1919" x2="776" y2="1933" id="Path" stroke="#00AEEF" stroke-width="0.5"></line>
                <g id="Group" transform="translate(778.490230, 1918.732400)" fill="#000000" fill-rule="nonzero">
                    <path d="M0.82032,14.42385 C1.08073333,14.42385 1.28255667,14.3685115 1.42579,14.2578344 C1.56901667,14.1471575 1.68620333,13.9551 1.77735,13.681662 L3.03711,10.2344 L8.79887,10.2344 L10.05857,13.681662 C10.1497033,13.9551 10.2669033,14.1471575 10.41017,14.2578344 C10.55337,14.3685115 10.7519367,14.42385 11.00587,14.42385 C11.26627,14.42385 11.47297,14.3522354 11.62597,14.2090062 C11.77897,14.0657767 11.85547,13.8704643 11.85547,13.623069 C11.85547,13.473329 11.81967,13.297546 11.74807,13.09572 L7.16797,0.8985 C7.05078333,0.598966667 6.89128,0.374333333 6.68946,0.2246 C6.48763333,0.0748666667 6.23047,0 5.91797,0 C5.31250333,0 4.90234667,0.296233333 4.6875,0.8887 L0.10743,13.10549 C0.03581,13.3073133 -4.4408921e-16,13.4830947 -4.4408921e-16,13.632834 C-4.4408921e-16,13.88023 0.0732433333,14.073915 0.21973,14.2138891 C0.366216667,14.353863 0.566413333,14.42385 0.82032,14.42385 Z M3.51563,8.75002 L5.88868,2.1778 L5.9375,2.1778 L8.31057,8.75002 L3.51563,8.75002 Z" id="Shape"></path>
                </g>
                <line x1="793.197" y1="1919" x2="793.197" y2="1933" id="Path" stroke="#00AEEF" stroke-width="0.5"></line>
                <text id="Margins" fill="#000000" fill-rule="nonzero" font-family="Helvetica" font-size="13" font-weight="normal">
                    <tspan x="776" y="1953">Margins</tspan>
                </text>
                <text id="Leading-and-trailing-margins-on-the-left-and-right-side-of-each-symbol" fill="#000000" fill-rule="nonzero" font-family="Helvetica" font-size="13" font-weight="normal">
                    <tspan x="776" y="1971">Leading and trailing margins on the left and right side of each symbol</tspan>
                </text>
                <text id="can-be-adjusted-by-modifying-the-x-location-of-the-margin-guidelines." fill="#000000" fill-rule="nonzero" font-family="Helvetica" font-size="13" font-weight="normal">
                    <tspan x="776" y="1989">can be adjusted by modifying the x-location of the margin guidelines.</tspan>
                </text>
                <text id="Modifications-are-automatically-applied-proportionally-to-all" fill="#000000" fill-rule="nonzero" font-family="Helvetica" font-size="13" font-weight="normal">
                    <tspan x="776" y="2007">Modifications are automatically applied proportionally to all</tspan>
                </text>
                <text id="scales-and-weights." fill="#000000" fill-rule="nonzero" font-family="Helvetica" font-size="13" font-weight="normal">
                    <tspan x="776" y="2025">scales and weights.</tspan>
                </text>
                <g id="Group" transform="translate(1291.246849, 1914.517550)" fill="#000000" fill-rule="nonzero">
                    <path d="M0.594951479,20.3476805 L2.29417148,22.0566705 C2.72385815,22.4928705 3.17795815,22.6946938 3.65647148,22.6621405 C4.13498481,22.6295872 4.60536148,22.3561505 5.06760148,21.8418305 L15.7609515,10.0547205 L14.7941515,9.07815049 L4.17893148,20.7578405 C4.00315148,20.9596605 3.82574148,21.0735938 3.64670148,21.0996405 C3.46766815,21.1256805 3.26096481,21.0215138 3.02659148,20.7871405 L1.85471148,19.6250305 C1.62033815,19.3906545 1.51780148,19.1839482 1.54710148,19.0049115 C1.57639481,18.8258748 1.69195148,18.6452108 1.89377148,18.4629193 L13.3683515,7.66215049 L12.3918515,6.69535049 L0.800031479,17.5840125 C0.305238146,18.0397418 0.039938146,18.5052368 0.00413147929,18.9804975 C-0.0316751874,19.4557595 0.165264813,19.9114872 0.594951479,20.3476805 Z M7.01096148,2.15435049 C6.80262815,2.35615049 6.68544148,2.58725049 6.65940148,2.84765049 C6.63336148,3.10811716 6.67893481,3.33598382 6.79612148,3.53125049 C6.91330815,3.71358382 7.08420481,3.85031716 7.30881148,3.94145049 C7.53342481,4.03258382 7.80850481,4.03908382 8.13405148,3.96095049 C8.86318481,3.79168382 9.60211815,3.72171716 10.3508515,3.75105049 C11.0995181,3.78031716 11.8319181,4.02931716 12.5480515,4.49805049 L11.9621515,5.95315049 C11.7928848,6.36981716 11.7456848,6.73278382 11.8205515,7.04205049 C11.8954181,7.35125049 12.0663181,7.64258382 12.3332515,7.91605049 L14.6281515,10.2305005 C14.8690181,10.4778938 15.1033848,10.6211205 15.3312515,10.6601805 C15.5591181,10.6992472 15.8130181,10.6927372 16.0929515,10.6406505 L17.1574515,10.4453405 L17.8215515,11.1191705 L17.7824515,11.6758105 C17.7629181,11.9232038 17.7938515,12.1510672 17.8752515,12.3594005 C17.9565848,12.5677338 18.1177181,12.7923438 18.3586515,13.0332305 L19.1203515,13.7754205 C19.3612181,14.0163072 19.6232515,14.1416338 19.9064515,14.1514005 C20.1896515,14.1611605 20.4484515,14.0488538 20.6828515,13.8144805 L23.5929515,10.8945605 C23.8273515,10.6601872 23.9412848,10.4046538 23.9347515,10.1279605 C23.9282848,9.85126716 23.8045848,9.59247716 23.5636515,9.35159049 L22.7922515,8.58987049 C22.5578515,8.34899049 22.3381181,8.18461716 22.1330515,8.09675049 C21.9279848,8.00881716 21.7049848,7.97461716 21.4640515,7.99415049 L20.8879515,8.04295049 L20.2433515,7.40825049 L20.4875515,6.28515049 C20.5526181,6.00521716 20.5395848,5.74318382 20.4484515,5.49905049 C20.3573181,5.25491716 20.1652515,4.98635049 19.8722515,4.69335049 L17.6750515,2.50585049 C16.8417181,1.67905049 15.9546515,1.05895049 15.0138515,0.64555049 C14.0731181,0.23215049 13.1258515,0.0173171567 12.1720515,0.00105049002 C11.2183181,-0.0152828433 10.3003515,0.15885049 9.41815148,0.52345049 C8.53601815,0.88805049 7.73362148,1.43168382 7.01096148,2.15435049 Z M8.50515148,2.52545049 C9.11061815,2.08271716 9.76001815,1.76695049 10.4533515,1.57815049 C11.1466848,1.38935049 11.8481848,1.32911716 12.5578515,1.39745049 C13.2674515,1.46585049 13.9559181,1.65628382 14.6232515,1.96875049 C15.2905848,2.28128382 15.9009515,2.71748382 16.4543515,3.27735049 L18.8859515,5.68945049 C19.0031515,5.80665049 19.0763848,5.92058382 19.1056515,6.03125049 C19.1349848,6.14191716 19.1301181,6.28191716 19.0910515,6.45125049 L18.7687515,7.93555049 L20.2726515,9.41995049 L21.2590515,9.36136049 C21.3827181,9.35484716 21.4771181,9.36298382 21.5422515,9.38577049 C21.6073181,9.40855716 21.6886848,9.46877716 21.7863515,9.56643049 L22.3625515,10.1426105 L19.9211515,12.5840105 L19.3449515,12.0078405 C19.2472848,11.9101872 19.1854181,11.8288072 19.1593515,11.7637005 C19.1333515,11.6985938 19.1236181,11.6009372 19.1301515,11.4707305 L19.1984515,10.4941705 L17.7043515,9.00979049 L16.1808515,9.26370049 C16.0181181,9.29625382 15.8895515,9.30113716 15.7951515,9.27835049 C15.7007515,9.25556382 15.5916848,9.18557716 15.4679515,9.06839049 L13.4660515,7.06645049 C13.3358515,6.94925049 13.2626181,6.83695049 13.2463515,6.72955049 C13.2300848,6.62208382 13.2609848,6.47721716 13.3390515,6.29495049 L14.2179515,4.20515049 C13.4367515,3.47595049 12.5578515,2.97138382 11.5812515,2.69145049 C10.6047181,2.41151716 9.60861815,2.42128382 8.59295148,2.72075049 C8.51488481,2.74028382 8.46445148,2.72561716 8.44165148,2.67675049 C8.41885148,2.62795049 8.44001815,2.57751716 8.50515148,2.52545049 Z" id="Shape"></path>
                </g>
                <text id="Exporting" fill="#000000" fill-rule="nonzero" font-family="Helvetica" font-size="13" font-weight="normal">
                    <tspan x="1289" y="1953">Exporting</tspan>
                </text>
                <text id="Symbols-should-be-outlined-when-exporting-to-ensure-the" fill="#000000" fill-rule="nonzero" font-family="Helvetica" font-size="13" font-weight="normal">
                    <tspan x="1289" y="1971">Symbols should be outlined when exporting to ensure the</tspan>
                </text>
                <text id="design-is-preserved-when-submitting-to-Xcode." fill="#000000" fill-rule="nonzero" font-family="Helvetica" font-size="13" font-weight="normal">
                    <tspan x="1289" y="1989">design is preserved when submitting to Xcode.</tspan>
                </text>
                <text id="template-version" fill="#000000" fill-rule="nonzero" font-family="Helvetica" font-size="13" font-weight="normal">
                    <tspan x="2952" y="1933">Template v.3.0</tspan>
                </text>
                <text id="Requires-Xcode-13-or-greater" fill="#000000" fill-rule="nonzero" font-family="Helvetica" font-size="13" font-weight="normal">
                    <tspan x="2865" y="1951">Requires Xcode 13 or greater</tspan>
                </text>
                <text id="descriptive-name" fill="#000000" fill-rule="nonzero" font-family="Helvetica" font-size="13" font-weight="normal">
                    <tspan x="2892" y="1969">Generated from 26.circle</tspan>
                </text>
                <text id="Typeset-at-100-points" fill="#000000" fill-rule="nonzero" font-family="Helvetica" font-size="13" font-weight="normal">
                    <tspan x="2912" y="1987">Typeset at 100 points</tspan>
                </text>
                <text id="Small" fill="#000000" fill-rule="nonzero" font-family="Helvetica" font-size="13" font-weight="normal">
                    <tspan x="263" y="726">Small</tspan>
                </text>
                <text id="Medium" fill="#000000" fill-rule="nonzero" font-family="Helvetica" font-size="13" font-weight="normal">
                    <tspan x="263" y="1156">Medium</tspan>
                </text>
                <text id="Large" fill="#000000" fill-rule="nonzero" font-family="Helvetica" font-size="13" font-weight="normal">
                    <tspan x="263" y="1586">Large</tspan>
                </text>
            </g>
            <g id="Guides" transform="translate(263.000000, 600.785000)">
                <g id="H-reference" transform="translate(76.993347, 24.756000)" fill="#27AAE1" fill-rule="nonzero">
                    <path d="M0,70.459 L2.644353,70.459 L28.334853,3.3264 L29.036753,3.3264 L29.036753,0 L27.129353,0 L0,70.459 Z M10.694853,45.9793 L45.988453,45.9793 L45.237753,43.7302 L11.444853,43.7302 L10.694853,45.9793 Z M54.125953,70.459 L56.770353,70.459 L29.644753,0 L28.439353,0 L28.439353,3.3264 L54.125953,70.459 Z" id="Shape"></path>
                </g>
                <line x1="0" y1="95.215" x2="2773" y2="95.215" id="Baseline-S" stroke="#27AAE1" stroke-width="0.5"></line>
                <line x1="0" y1="24.756" x2="2773" y2="24.756" id="Capline-S" stroke="#27AAE1" stroke-width="0.5"></line>
                <g id="H-reference" transform="translate(76.993347, 454.756000)" fill="#27AAE1" fill-rule="nonzero">
                    <path d="M0,70.459 L2.644353,70.459 L28.334853,3.3264 L29.036753,3.3264 L29.036753,0 L27.129353,0 L0,70.459 Z M10.694853,45.9793 L45.988453,45.9793 L45.237753,43.7302 L11.444853,43.7302 L10.694853,45.9793 Z M54.125953,70.459 L56.770353,70.459 L29.644753,0 L28.439353,0 L28.439353,3.3264 L54.125953,70.459 Z" id="Shape"></path>
                </g>
                <line x1="0" y1="525.215" x2="2773" y2="525.215" id="Baseline-M" stroke="#27AAE1" stroke-width="0.5"></line>
                <line x1="0" y1="454.755" x2="2773" y2="454.755" id="Capline-M" stroke="#27AAE1" stroke-width="0.5"></line>
                <g id="H-reference" transform="translate(76.993347, 884.756000)" fill="#27AAE1" fill-rule="nonzero">
                    <path d="M0,70.459 L2.644353,70.459 L28.334853,3.3264 L29.036753,3.3264 L29.036753,0 L27.129353,0 L0,70.459 Z M10.694853,45.9793 L45.988453,45.9793 L45.237753,43.7302 L11.444853,43.7302 L10.694853,45.9793 Z M54.125953,70.459 L56.770353,70.459 L29.644753,0 L28.439353,0 L28.439353,3.3264 L54.125953,70.459 Z" id="Shape"></path>
                </g>
                <line x1="0" y1="955.215" x2="2773" y2="955.215" id="Baseline-L" stroke="#27AAE1" stroke-width="0.5"></line>
                <line x1="0" y1="884.755" x2="2773" y2="884.755" id="Capline-L" stroke="#27AAE1" stroke-width="0.5"></line>
                <line x1="252.649" y1="1.13686838e-13" x2="252.649" y2="119.336" id="left-margin-Ultralight-S" stroke="#00AEEF" stroke-width="0.5"></line>
                <line x1="340.773" y1="1.13686838e-13" x2="340.773" y2="119.336" id="right-margin-Ultralight-S" stroke="#00AEEF" stroke-width="0.5"></line>
                <line x1="1140.58" y1="1.13686838e-13" x2="1140.58" y2="119.336" id="left-margin-Regular-S" stroke="#00AEEF" stroke-width="0.5"></line>
                <line x1="1233.11" y1="1.13686838e-13" x2="1233.11" y2="119.336" id="right-margin-Regular-S" stroke="#00AEEF" stroke-width="0.5"></line>
                <line x1="2621.57" y1="1.13686838e-13" x2="2621.57" y2="119.336" id="left-margin-Black-S" stroke="#00AEEF" stroke-width="0.5"></line>
                <line x1="2719.23" y1="1.13686838e-13" x2="2719.23" y2="119.336" id="right-margin-Black-S" stroke="#00AEEF" stroke-width="0.5"></line>
            </g>
            <g id="Symbols" transform="translate(522.484940, 618.802700)" fill="#000000" fill-rule="nonzero">
                <g id="Black-S" transform="translate(2368.921000, 0.000000)">
                    <path d="M41.99216,83.98441 C47.7864267,83.98441 53.2144933,82.8939133 58.27636,80.71292 C63.3382267,78.531934 67.79786,75.5127307 71.65526,71.65531 C75.51266,67.7979033 78.53186,63.3382667 80.71286,58.2764 C82.89386,53.2145333 83.98436,47.7864667 83.98436,41.9922 C83.98436,36.1979333 82.89386,30.7698667 80.71286,25.708 C78.53186,20.6462 75.51266,16.1865667 71.65526,12.3291 C67.79786,8.4717 63.3382267,5.4525 58.27636,3.2715 C53.2144933,1.0905 47.7864267,0 41.99216,0 C36.1978933,0 30.7698267,1.0905 25.70796,3.2715 C20.64616,5.4525 16.1865267,8.4717 12.32906,12.3291 C8.47166,16.1865667 5.45246,20.6462 3.27146,25.708 C1.09048667,30.7698667 0,36.1979333 0,41.9922 C0,47.7864667 1.09048667,53.2145333 3.27146,58.2764 C5.45246,63.3382667 8.47166,67.7979033 12.32906,71.65531 C16.1865267,75.5127307 20.64616,78.531934 25.70796,80.71292 C30.7698267,82.8939133 36.1978933,83.98441 41.99216,83.98441 Z M41.99216,69.82425 C38.1510267,69.82425 34.5458933,69.0999667 31.17676,67.6514 C27.8076267,66.2028 24.8535267,64.209 22.31446,61.67 C19.7753933,59.1309333 17.78156,56.1768333 16.33296,52.8077 C14.8844267,49.4385 14.16016,45.8333333 14.16016,41.9922 C14.16016,38.1510667 14.8844267,34.5459333 16.33296,31.1768 C17.78156,27.8076667 19.7753933,24.8535667 22.31446,22.3145 C24.8535267,19.7754333 27.8076267,17.7816 31.17676,16.333 C34.5458933,14.8844667 38.1510267,14.1602 41.99216,14.1602 C45.8332933,14.1602 49.43846,14.8844667 52.80766,16.333 C56.1767933,17.7816 59.1308933,19.7754333 61.66996,22.3145 C64.2090267,24.8535667 66.2028267,27.8076667 67.65136,31.1768 C69.09996,34.5459333 69.82426,38.1510667 69.82426,41.9922 C69.82426,45.8333333 69.09996,49.4385 67.65136,52.8077 C66.2028267,56.1768333 64.2090267,59.1309333 61.66996,61.67 C59.1308933,64.209 56.1767933,66.2028 52.80766,67.6514 C49.43846,69.0999667 45.8332933,69.82425 41.99216,69.82425 Z M52.6177827,55.7146 C55.8404493,55.7146 58.338816,54.7868667 60.1128827,52.9314 C61.887016,51.0759333 62.7740827,48.5857 62.7740827,45.4607 C62.7740827,42.7589 62.0253827,40.7081333 60.5279827,39.3084 C59.0305827,37.9086 57.3378493,37.2087 55.4497827,37.2087 C54.440716,37.2087 53.5129827,37.4203 52.6665827,37.8435 C51.8202493,38.2667 51.1203827,38.8852 50.5669827,39.699 L50.4693827,39.699 L50.8599827,34.2791 L58.4283827,34.2791 C59.5025827,34.2791 60.348916,33.9942667 60.9673827,33.4246 C61.585916,32.8549333 61.8951827,32.0329667 61.8951827,30.9587 C61.8951827,28.7777667 60.7395827,27.6873 58.4283827,27.6873 L48.1744827,27.6873 C45.7981493,27.6873 44.528616,29.1358667 44.3658827,32.033 L43.9263827,41.0173 C43.8938493,42.2217667 44.2030827,43.1658 44.8540827,43.8494 C45.5051493,44.533 46.3840827,44.8748 47.4908827,44.8748 C48.4023493,44.8748 49.102216,44.7771333 49.5904827,44.5818 C50.0787493,44.3864667 50.4856493,44.1748667 50.8111827,43.947 C51.266916,43.6540667 51.6656827,43.4262 52.0074827,43.2634 C52.3492827,43.1006667 52.764316,43.0193 53.2525827,43.0193 C53.9361827,43.0193 54.5139827,43.3041333 54.9859827,43.8738 C55.4579827,44.4434667 55.6939827,45.1189333 55.6939827,45.9002 C55.6939827,46.7790667 55.4498493,47.5196 54.9615827,48.1218 C54.4732493,48.7240667 53.8384827,49.0252 53.0572827,49.0252 C52.3736827,49.0252 51.844716,48.8543 51.4703827,48.5125 C51.0959827,48.1707 50.697216,47.8533 50.2740827,47.5603 C49.9485493,47.2999 49.598616,46.9825333 49.2242827,46.6082 C48.8498827,46.2338 48.239516,46.0466 47.3931827,46.0466 C46.5468493,46.0466 45.7981493,46.364 45.1470827,46.9988 C44.496016,47.6335333 44.1704827,48.4392 44.1704827,49.4158 C44.1704827,49.7413333 44.194916,50.0668333 44.2437827,50.3923 C44.2925827,50.7178333 44.4146493,51.0759333 44.6099827,51.4666 C45.065716,52.378 45.985316,53.3138667 47.3687827,54.2742 C48.7522493,55.2344667 50.501916,55.7146 52.6177827,55.7146 Z M32.36916,56.2012 C35.1686267,56.2012 37.40656,55.2653333 39.08296,53.3936 C40.7594267,51.5218667 41.59766,49.0560333 41.59766,45.9961 C41.59766,43.4245 40.8977933,41.4144333 39.49806,39.9659 C38.0983267,38.5173 36.4707267,37.793 34.61526,37.793 C33.3131267,37.793 32.2633267,38.0859667 31.46586,38.6719 C30.6683267,39.2578333 30.0416933,39.9739667 29.58596,40.8203 L29.39066,40.8203 C29.35806,40.5599 29.3336267,40.2832333 29.31736,39.9903 C29.3010933,39.6973 29.29296,39.3392333 29.29296,38.9161 C29.29296,37.5814333 29.63476,36.4746333 30.31836,35.5957 C31.00196,34.7168333 31.7994933,34.2774 32.71096,34.2774 C33.26436,34.2774 33.7119267,34.3994667 34.05366,34.6436 C34.39546,34.8877333 34.7291267,35.1725667 35.05466,35.4981 C35.31506,35.7585 35.65686,35.9945 36.08006,36.2061 C36.50326,36.4177 37.04036,36.5235 37.69136,36.5235 C38.4400933,36.5235 39.1399933,36.2712 39.79106,35.7666 C40.44206,35.2620667 40.76756,34.5540667 40.76756,33.6426 C40.76756,32.8288 40.5559933,32.015 40.13286,31.2012 C39.6445267,30.2572 38.7818933,29.4352667 37.54496,28.7354 C36.30796,28.0355333 34.7617267,27.6856 32.90626,27.6856 C29.8789267,27.6856 27.3072933,28.9063 25.19136,31.3477 C23.0754933,33.7891 22.01756,37.3047333 22.01756,41.8946 C22.01756,43.4896 22.14776,45.0276667 22.40816,46.5088 C22.6686267,47.9899333 23.05926,49.349 23.58006,50.586 C24.39386,52.474 25.5657267,53.8818667 27.09566,54.8096 C28.62566,55.7373333 30.3834933,56.2012 32.36916,56.2012 Z M31.97856,49.8047 C31.26236,49.8047 30.6763933,49.5361667 30.22066,48.9991 C29.7649267,48.4619667 29.53706,47.7376667 29.53706,46.8262 C29.53706,45.9472667 29.7649267,45.2311333 30.22066,44.6778 C30.6763933,44.1244 31.26236,43.8477 31.97856,43.8477 C32.62956,43.8477 33.1829267,44.1244 33.63866,44.6778 C34.0943933,45.2311333 34.32226,45.9472667 34.32226,46.8262 C34.32226,47.7051333 34.0943933,48.4212667 33.63866,48.9746 C33.1829267,49.528 32.62956,49.8047 31.97856,49.8047 Z" id="Shape"></path>
                </g>
                <g id="Regular-S" transform="translate(887.931000, 2.539100)">
                    <path d="M39.40426,78.80859 C44.8079267,78.80859 49.88606,77.7832 54.63866,75.73242 C59.39126,73.68164 63.58236,70.8333333 67.21196,67.1875 C70.8414933,63.5416333 73.6897933,59.3424 75.75686,54.5898 C77.8239267,49.8372 78.85746,44.7753667 78.85746,39.4043 C78.85746,34.0332333 77.8239267,28.9713667 75.75686,24.2187 C73.6897933,19.4661 70.8333267,15.2669 67.18746,11.6211 C63.54166,7.97523333 59.34246,5.12693333 54.58986,3.0762 C49.83726,1.0254 44.7591267,0 39.35546,0 C33.9843933,0 28.92256,1.0254 24.16996,3.0762 C19.41736,5.12693333 15.2343933,7.97523333 11.62106,11.6211 C8.00779333,15.2669 5.16763333,19.4661 3.10058,24.2187 C1.03352667,28.9713667 -8.8817842e-16,34.0332333 -8.8817842e-16,39.4043 C-8.8817842e-16,44.7753667 1.03352667,49.8372 3.10058,54.5898 C5.16763333,59.3424 8.01592667,63.5416333 11.64546,67.1875 C15.27506,70.8333333 19.46616,73.68164 24.21876,75.73242 C28.97136,77.7832 34.0331933,78.80859 39.40426,78.80859 Z M39.40426,71.38672 C34.9771933,71.38672 30.83496,70.56478 26.97756,68.9209 C23.1200933,67.27702 19.73466,64.99022 16.82126,62.0605 C13.90786,59.1308333 11.6292267,55.7291667 9.98536,51.8555 C8.34149333,47.9817667 7.51956,43.8313667 7.51956,39.4043 C7.51956,34.9772333 8.33336,30.8268333 9.96096,26.9531 C11.58856,23.0794333 13.85906,19.6777333 16.77246,16.748 C19.68586,13.8183333 23.07126,11.5315667 26.92866,9.8877 C30.7861267,8.24383333 34.9283933,7.4219 39.35546,7.4219 C43.8151267,7.4219 47.97366,8.24383333 51.83106,9.8877 C55.68846,11.5315667 59.0820267,13.8183333 62.01176,16.748 C64.9414267,19.6777333 67.2363267,23.0794333 68.89646,26.9531 C70.55666,30.8268333 71.38676,34.9772333 71.38676,39.4043 C71.38676,43.8313667 70.5647933,47.9817667 68.92086,51.8555 C67.2769933,55.7291667 64.99836,59.1308333 62.08496,62.0605 C59.17156,64.99022 55.7779933,67.27702 51.90426,68.9209 C48.0305933,70.56478 43.8639267,71.38672 39.40426,71.38672 Z M51.44026,55.0736 C54.85826,55.0736 57.6089267,54.1051667 59.69226,52.1683 C61.7755933,50.2314333 62.81726,47.5540333 62.81726,44.1361 C62.81726,41.1738333 61.9057933,38.7242667 60.08286,36.7874 C58.2599267,34.8505333 55.86736,33.8821 52.90516,33.8821 C51.66816,33.8821 50.4555933,34.1588 49.26746,34.7122 C48.07926,35.2656 47.22476,35.9329333 46.70396,36.7142 L46.50866,36.7142 L47.19226,27.5833 L59.54576,27.5833 C60.1316933,27.5833 60.61996,27.3554333 61.01056,26.8997 C61.4012267,26.4439667 61.59656,25.8580333 61.59656,25.1419 C61.59656,23.5794333 60.91296,22.7982 59.54576,22.7982 L46.70396,22.7982 C44.2300267,22.7982 42.9279267,24.0026 42.79766,26.4114 L41.86996,37.7884 C41.8048933,38.9277333 42.0490267,39.8310667 42.60236,40.4984 C43.15576,41.1656667 43.92076,41.4993 44.89736,41.4993 C45.54836,41.4993 46.1261267,41.4016667 46.63066,41.2064 C47.13526,41.0110667 47.72936,40.6204333 48.41296,40.0345 C49.1290933,39.4811 49.7719933,39.0823333 50.34166,38.8382 C50.9113267,38.5940667 51.5704933,38.472 52.31916,38.472 C53.8490933,38.472 55.0942267,39.0253667 56.05456,40.1321 C57.0148267,41.2389 57.49496,42.6061 57.49496,44.2337 C57.49496,46.1543 56.95786,47.6354333 55.88366,48.6771 C54.80946,49.7187667 53.4097267,50.2396 51.68446,50.2396 C50.5125267,50.2396 49.4464267,49.9466333 48.48616,49.3607 C47.5258933,48.7747667 46.7527933,47.9446667 46.16686,46.8704 C45.8413267,46.2844667 45.46696,45.8369 45.04376,45.5277 C44.6206267,45.2184333 44.1811933,45.0638 43.72546,45.0638 C42.9767267,45.0638 42.3826267,45.3079333 41.94316,45.7962 C41.50376,46.2844667 41.28406,46.8867 41.28406,47.6029 C41.28406,47.9609667 41.3165933,48.3027333 41.38166,48.6282 C41.4467933,48.9537333 41.54446,49.2467 41.67466,49.5071 C42.22806,51.0696333 43.3999267,52.388 45.19026,53.4622 C46.98066,54.5364667 49.0639933,55.0736 51.44026,55.0736 Z M27.39256,56.0547 C30.51756,56.0547 33.0810267,55.0781333 35.08296,53.125 C37.08496,51.1718667 38.08596,48.3886667 38.08596,44.7754 C38.08596,41.39 37.12566,38.8346667 35.20506,37.1094 C33.2845267,35.3841333 31.1198267,34.5215 28.71096,34.5215 C26.6926933,34.5215 25.0894933,35.0016333 23.90136,35.9619 C22.7132267,36.9221667 21.9238267,37.9719667 21.53316,39.1113 L21.19136,39.1113 C21.19136,39.0787667 21.19136,39.0299333 21.19136,38.9648 C21.19136,38.8997333 21.19136,38.8346333 21.19136,38.7695 C21.19136,35.3841 21.8179933,32.6904333 23.07126,30.6885 C24.3245267,28.6865 25.9439933,27.6855 27.92966,27.6855 C28.9387933,27.6855 29.78516,27.9052333 30.46876,28.3447 C31.15236,28.7841667 31.7220267,29.3131333 32.17776,29.9316 C32.5358267,30.4524667 32.91016,30.8431 33.30076,31.1035 C33.6914267,31.3639 34.1797267,31.4941 34.76566,31.4941 C35.3189933,31.4941 35.7991267,31.2825333 36.20606,30.8594 C36.6129267,30.4362 36.81636,29.8665333 36.81636,29.1504 C36.81636,28.597 36.7187267,28.0599 36.52346,27.5391 C35.97006,26.1719 34.96906,25.0407 33.52046,24.1455 C32.0719267,23.2503 30.2897267,22.8027 28.17386,22.8027 C24.4629267,22.8027 21.5332267,24.2268667 19.38476,27.0752 C17.2362933,29.9235333 16.16206,34.3099333 16.16206,40.2344 C16.16206,42.6758 16.34926,44.7754 16.72366,46.5332 C17.0979933,48.291 17.6106933,49.7721333 18.26176,50.9766 C19.2708267,52.8320667 20.5810267,54.1422667 22.19236,54.9072 C23.8036933,55.6722 25.5370933,56.0547 27.39256,56.0547 Z M27.14846,51.3672 C25.52086,51.3672 24.1862267,50.7731333 23.14456,49.585 C22.1028933,48.3968 21.58206,46.8587 21.58206,44.9707 C21.58206,43.1803667 22.09476,41.7155333 23.12016,40.5762 C24.1454933,39.4368667 25.48826,38.8672 27.14846,38.8672 C28.8085933,38.8672 30.1432267,39.4368667 31.15236,40.5762 C32.1614933,41.7155333 32.66606,43.1966333 32.66606,45.0195 C32.66606,46.9726333 32.1696267,48.5188667 31.17676,49.6582 C30.1838933,50.7975333 28.8411267,51.3672 27.14846,51.3672 Z" id="Shape"></path>
                </g>
                <g id="Ultralight-S" transform="translate(0.000000, 4.736400)">
                    <path d="M37.20706,74.41402 C42.35026,74.41402 47.1598267,73.4537353 51.63576,71.533166 C56.1116267,69.6125953 60.0666933,66.9351867 63.50096,63.50094 C66.9352267,60.0667133 69.6207933,56.1116333 71.55766,51.6357 C73.49446,47.1597667 74.46286,42.3502 74.46286,37.207 C74.46286,32.0637333 73.49446,27.2541667 71.55766,22.7783 C69.6207933,18.3023667 66.9352267,14.3472667 63.50096,10.913 C60.0666933,7.4788 56.1116267,4.8014 51.63576,2.8808 C47.1598267,0.960266667 42.35026,0 37.20706,0 C32.0963933,0 27.29496,0.960266667 22.80276,2.8808 C18.31056,4.8014 14.35546,7.4788 10.93746,10.913 C7.51952667,14.3472667 4.84213,18.3023667 2.90527,22.7783 C0.968423333,27.2541667 -8.8817842e-16,32.0637333 -8.8817842e-16,37.207 C-8.8817842e-16,42.3502 0.968423333,47.1597667 2.90527,51.6357 C4.84213,56.1116333 7.51952667,60.0667133 10.93746,63.50094 C14.35546,66.9351867 18.31056,69.6125953 22.80276,71.533166 C27.29496,73.4537353 32.0963933,74.41402 37.20706,74.41402 Z M37.20706,72.167931 C32.3893267,72.167931 27.8645933,71.2646107 23.63286,69.45797 C19.40106,67.65133 15.68196,65.1448067 12.47556,61.9384 C9.26922667,58.7320667 6.75459333,55.013 4.93166,50.7812 C3.10872667,46.5494667 2.19726,42.0247333 2.19726,37.207 C2.19726,32.3892667 3.10872667,27.8645333 4.93166,23.6328 C6.75459333,19.401 9.26922667,15.6819 12.47556,12.4755 C15.68196,9.26916667 19.40106,6.76266667 23.63286,4.956 C27.8645933,3.1494 32.3893267,2.2461 37.20706,2.2461 C42.0247267,2.2461 46.5575933,3.1494 50.80566,4.956 C55.0537267,6.76266667 58.7727933,9.26916667 61.96286,12.4755 C65.1529933,15.6819 67.6595267,19.401 69.48246,23.6328 C71.3053267,27.8645333 72.21676,32.3892667 72.21676,37.207 C72.21676,42.0247333 71.31346,46.5494667 69.50686,50.7812 C67.7001933,55.013 65.19366,58.7320667 61.98726,61.9384 C58.7809267,65.1448067 55.06186,67.65133 50.83006,69.45797 C46.5983267,71.2646107 42.0573267,72.167931 37.20706,72.167931 Z M50.43296,52.8339 C53.55796,52.8339 56.0970267,51.8817333 58.05016,49.9774 C60.0032933,48.0731333 60.97986,45.5747667 60.97986,42.4823 C60.97986,39.6177 60.0521267,37.2414 58.19666,35.3534 C56.3411933,33.4654 53.98116,32.5214 51.11656,32.5214 C49.65176,32.5214 48.2438933,32.8387667 46.89296,33.4735 C45.5420267,34.1083 44.4108267,34.9953333 43.49936,36.1346 L43.45056,36.1346 L44.47596,23.2928 L58.48966,23.2928 C58.7825933,23.2928 59.03486,23.1951667 59.24646,22.9999 C59.45806,22.8045667 59.56386,22.5604333 59.56386,22.2675 C59.56386,21.6164333 59.2057933,21.2909 58.48966,21.2909 L43.98766,21.2909 C43.04366,21.2909 42.5553933,21.7791667 42.52286,22.7557 L41.35096,37.2089 C41.3184267,37.6646333 41.4242267,38.0145667 41.66836,38.2587 C41.9124933,38.5028333 42.2135933,38.6249 42.57166,38.6249 C42.83206,38.6249 43.0517933,38.5842 43.23086,38.5028 C43.40986,38.4214 43.6132933,38.2830667 43.84116,38.0878 C44.9804933,36.7856667 46.1116933,35.8660667 47.23476,35.329 C48.3578267,34.7918667 49.58666,34.5233 50.92126,34.5233 C53.23246,34.5233 55.1286267,35.2801333 56.60976,36.7938 C58.0908933,38.3074667 58.83146,40.2199 58.83146,42.5311 C58.83146,44.9074333 58.0583267,46.8687 56.51206,48.4149 C54.96586,49.9611667 53.0208933,50.7343 50.67716,50.7343 C48.7890933,50.7343 47.11266,50.2622667 45.64786,49.3182 C44.1829933,48.3742 43.23896,47.1698 42.81576,45.705 C42.71816,45.4445333 42.58796,45.2248 42.42516,45.0458 C42.2624267,44.8667333 42.03456,44.7772 41.74156,44.7772 C41.48116,44.7772 41.2532933,44.8667333 41.05796,45.0458 C40.8626933,45.2248 40.76506,45.4608 40.76506,45.7538 C40.76506,45.884 40.7731933,46.0142 40.78946,46.1444 C40.8057267,46.2746 40.8463933,46.4048 40.91146,46.535 C41.4973933,48.2928667 42.6041933,49.7821333 44.23186,51.0028 C45.85946,52.2235333 47.9264933,52.8339 50.43296,52.8339 Z M25.58596,53.125 C28.71096,53.125 31.2337267,52.1728333 33.15426,50.2685 C35.07486,48.3642333 36.03516,45.8821333 36.03516,42.8222 C36.03516,39.9576667 35.0992933,37.6058 33.22756,35.7666 C31.3558267,33.9274 28.9550933,33.0078 26.02536,33.0078 C23.9746267,33.0078 22.1028933,33.5367667 20.41016,34.5947 C18.7174267,35.6526333 17.4967267,37.0279667 16.74806,38.7207 L16.69926,38.7207 C16.69926,38.6555667 16.69926,38.5904667 16.69926,38.5254 C16.69926,38.4602667 16.69926,38.4114333 16.69926,38.3789 C16.69926,33.6588333 17.53746,29.9804333 19.21386,27.3437 C20.8903267,24.7069667 23.1933933,23.3886 26.12306,23.3886 C27.6529933,23.3886 29.0283267,23.7629667 30.24906,24.5117 C31.4697267,25.2603667 32.4055933,26.2532 33.05666,27.4902 C33.1543267,27.7180667 33.2763933,27.8971 33.42286,28.0273 C33.5693267,28.1575 33.7564933,28.2226 33.98436,28.2226 C34.3424267,28.2226 34.60286,28.1249667 34.76566,27.9297 C34.9283933,27.7343667 35.00976,27.5065 35.00976,27.2461 C35.00976,27.0507667 34.9771933,26.8554333 34.91206,26.6601 C34.52146,25.5859 33.5693267,24.4221667 32.05566,23.1689 C30.5419933,21.9156333 28.56446,21.289 26.12306,21.289 C22.5097933,21.289 19.70216,22.7782667 17.70016,25.7568 C15.6982267,28.7353333 14.69726,32.8938667 14.69726,38.2324 C14.69726,40.1204 14.8355933,41.8700667 15.11226,43.4814 C15.3889933,45.0927333 15.8365933,46.5331667 16.45506,47.8027 C17.2363267,49.4628333 18.3675267,50.7649 19.84866,51.7089 C21.3297267,52.6529667 23.24216,53.125 25.58596,53.125 Z M25.58596,51.0254 C23.1770933,51.0254 21.19956,50.2685333 19.65336,48.7548 C18.1070933,47.2411333 17.33396,45.2961667 17.33396,42.9199 C17.33396,40.6087 18.1152267,38.7206667 19.67776,37.2558 C21.2402267,35.791 23.2258933,35.0586 25.63476,35.0586 C28.07616,35.0586 30.0618267,35.7747333 31.59176,37.207 C33.12176,38.6392667 33.88676,40.5598333 33.88676,42.9687 C33.88676,45.4427 33.1298933,47.4039667 31.61616,48.8525 C30.1024933,50.3011 28.0924267,51.0254 25.58596,51.0254 Z" id="Shape"></path>
                </g>
            </g>
        </g>
    </g>
</svg>