<?xml version="1.0" encoding="UTF-8"?>
<svg width="3300px" height="2200px" viewBox="0 0 3300 2200" version="1.1" xmlns="http://www.w3.org/2000/svg" xmlns:xlink="http://www.w3.org/1999/xlink">
    <title>77.circle</title>
    <g id="Page-1" stroke="none" stroke-width="1" fill="none" fill-rule="evenodd">
        <g id="77.circle">
            <g id="Notes">
                <rect id="artboard" fill="#FFFFFF" fill-rule="nonzero" x="0" y="0" width="3300" height="2200"></rect>
                <line x1="263" y1="292" x2="3036" y2="292" id="Path" stroke="#000000" stroke-width="0.5"></line>
                <text id="Weight/Scale-Variations" fill="#000000" fill-rule="nonzero" font-family="Helvetica" font-size="13" font-weight="normal">
                    <tspan x="263" y="322">Weight/Scale Variations</tspan>
                </text>
                <text id="Ultralight" fill="#000000" fill-rule="nonzero" font-family="Helvetica" font-size="13" font-weight="normal">
                    <tspan x="533.711" y="322">Ultralight</tspan>
                </text>
                <text id="Thin" fill="#000000" fill-rule="nonzero" font-family="Helvetica" font-size="13" font-weight="normal">
                    <tspan x="843.422" y="322">Thin</tspan>
                </text>
                <text id="Light" fill="#000000" fill-rule="nonzero" font-family="Helvetica" font-size="13" font-weight="normal">
                    <tspan x="1138.63" y="322">Light</tspan>
                </text>
                <text id="Regular" fill="#000000" fill-rule="nonzero" font-family="Helvetica" font-size="13" font-weight="normal">
                    <tspan x="1426.84" y="322">Regular</tspan>
                </text>
                <text id="Medium" fill="#000000" fill-rule="nonzero" font-family="Helvetica" font-size="13" font-weight="normal">
                    <tspan x="1723.06" y="322">Medium</tspan>
                </text>
                <text id="Semibold" fill="#000000" fill-rule="nonzero" font-family="Helvetica" font-size="13" font-weight="normal">
                    <tspan x="2015.77" y="322">Semibold</tspan>
                </text>
                <text id="Bold" fill="#000000" fill-rule="nonzero" font-family="Helvetica" font-size="13" font-weight="normal">
                    <tspan x="2326.48" y="322">Bold</tspan>
                </text>
                <text id="Heavy" fill="#000000" fill-rule="nonzero" font-family="Helvetica" font-size="13" font-weight="normal">
                    <tspan x="2618.19" y="322">Heavy</tspan>
                </text>
                <text id="Black" fill="#000000" fill-rule="nonzero" font-family="Helvetica" font-size="13" font-weight="normal">
                    <tspan x="2917.4" y="322">Black</tspan>
                </text>
                <line x1="263" y1="1903" x2="3036" y2="1903" id="Path" stroke="#000000" stroke-width="0.5"></line>
                <g id="Group" transform="translate(264.367190, 1918.068400)" fill="#000000" fill-rule="nonzero">
                    <path d="M7.88086,15.761678 C8.96156,15.761678 9.97717667,15.5566 10.92771,15.146444 C11.8782433,14.7362873 12.7164767,14.166626 13.44241,13.43746 C14.1682767,12.7082933 14.7379433,11.86845 15.15141,10.91793 C15.56481,9.96741 15.77151,8.95504 15.77151,7.88082 C15.77151,6.8066 15.56481,5.79422667 15.15141,4.8437 C14.7379433,3.89316667 14.1666433,3.05333333 13.43751,2.3242 C12.70831,1.595 11.8684767,1.02533333 10.91801,0.6152 C9.96747667,0.205066667 8.95183667,0 7.87109,0 C6.79687,0 5.7845,0.205066667 4.83398,0.6152 C3.88346,1.02533333 3.04687333,1.595 2.32422,2.3242 C1.60156,3.05333333 1.03352333,3.89316667 0.62011,4.8437 C0.206703333,5.79422667 -8.8817842e-16,6.8066 -8.8817842e-16,7.88082 C-8.8817842e-16,8.95504 0.206703333,9.96741 0.62011,10.91793 C1.03352333,11.86845 1.60318667,12.7082933 2.3291,13.43746 C3.05501333,14.166626 3.89323,14.7362873 4.84375,15.146444 C5.79427,15.5566 6.80664,15.761678 7.88086,15.761678 Z M7.88086,14.277303 C6.99544,14.277303 6.16699,14.1129153 5.39551,13.78414 C4.62402333,13.4553667 3.94694,12.99801 3.36426,12.41207 C2.78157333,11.82613 2.32584333,11.14579 1.99707,10.37105 C1.66829,9.59631 1.5039,8.76623333 1.5039,7.88082 C1.5039,6.9954 1.66666333,6.16532 1.99219,5.39058 C2.31771,4.61586 2.77181,3.93553333 3.35449,3.3496 C3.93717,2.76366667 4.61425333,2.3063 5.38574,1.9775 C6.15722667,1.6487 6.98567667,1.4843 7.87109,1.4843 C8.76303667,1.4843 9.59474333,1.6487 10.36621,1.9775 C11.1376767,2.3063 11.8163767,2.76366667 12.40231,3.3496 C12.9882433,3.93553333 13.4472433,4.61586 13.77931,5.39058 C14.11131,6.16532 14.27731,6.9954 14.27731,7.88082 C14.27731,8.76623333 14.1129433,9.59631 13.78421,10.37105 C13.45541,11.14579 12.9996767,11.82613 12.41701,12.41207 C11.8343433,12.99801 11.15561,13.4553667 10.38081,13.78414 C9.60607667,14.1129153 8.77276,14.277303 7.88086,14.277303 Z M4.28711,7.88082 C4.28711,8.09566 4.35547,8.26981333 4.49219,8.40328 C4.62890333,8.53674667 4.81119333,8.60348 5.03906,8.60348 L7.14843,8.60348 L7.14843,10.72262 C7.14843,10.93746 7.21353667,11.1148667 7.34375,11.25484 C7.47395667,11.3948133 7.64973667,11.4648 7.87109,11.4648 C8.08593667,11.4648 8.26334667,11.3948133 8.40332,11.25484 C8.54329333,11.1148667 8.61328,10.93746 8.61328,10.72262 L8.61328,8.60348 L10.72261,8.60348 C10.94401,8.60348 11.1230767,8.53674667 11.25981,8.40328 C11.3964767,8.26981333 11.46481,8.09566 11.46481,7.88082 C11.46481,7.65946667 11.3964767,7.48043 11.25981,7.34371 C11.1230767,7.20699 10.94401,7.13863 10.72261,7.13863 L8.61328,7.13863 L8.61328,5.02926 C8.61328,4.80788667 8.54329333,4.62723333 8.40332,4.4873 C8.26334667,4.3473 8.08593667,4.2773 7.87109,4.2773 C7.64973667,4.2773 7.47395667,4.3473 7.34375,4.4873 C7.21353667,4.62723333 7.14843,4.80788667 7.14843,5.02926 L7.14843,7.13863 L5.03906,7.13863 C4.81119333,7.13863 4.62890333,7.20699 4.49219,7.34371 C4.35547,7.48043 4.28711,7.65946667 4.28711,7.88082 Z" id="Shape"></path>
                </g>
                <g id="Group" transform="translate(283.615050, 1915.988300)" fill="#000000" fill-rule="nonzero">
                    <path d="M9.96095,19.92186 C11.3216167,19.92186 12.60255,19.6614433 13.80375,19.14061 C15.0048833,18.6197767 16.06445,17.9003744 16.98245,16.9824031 C17.9003833,16.0644344 18.6197833,15.0048633 19.14065,13.80369 C19.66145,12.6025167 19.92185,11.3215933 19.92185,9.96092 C19.92185,8.60024 19.66145,7.3193 19.14065,6.1181 C18.6197833,4.91696667 17.9003833,3.8574 16.98245,2.9394 C16.06445,2.02146667 15.00325,1.30206667 13.79885,0.7812 C12.5943833,0.2604 11.3118167,0 9.95115,0 C8.59048333,0 7.30956667,0.2604 6.1084,0.7812 C4.90722667,1.30206667 3.84928333,2.02146667 2.93457,2.9394 C2.01985667,3.8574 1.30208333,4.91696667 0.78125,6.1181 C0.260416667,7.3193 8.8817842e-16,8.60024 8.8817842e-16,9.96092 C8.8817842e-16,11.3215933 0.260416667,12.6025167 0.78125,13.80369 C1.30208333,15.0048633 2.02148333,16.0644344 2.93945,16.9824031 C3.85741667,17.9003744 4.91698667,18.6197767 6.11816,19.14061 C7.31933333,19.6614433 8.60026333,19.92186 9.96095,19.92186 Z M9.96095,18.2617 C8.80859667,18.2617 7.73111667,18.0468563 6.72851,17.617169 C5.72591,17.1874813 4.84537667,16.593405 4.08691,15.83494 C3.32845,15.07648 2.73600333,14.1959467 2.30957,13.19334 C1.88313667,12.1907333 1.66992,11.11326 1.66992,9.96092 C1.66992,8.80857333 1.88313667,7.7311 2.30957,6.7285 C2.73600333,5.7259 3.32682333,4.84373333 4.08203,4.082 C4.83723667,3.32026667 5.71614333,2.7262 6.71875,2.2998 C7.72135,1.87333333 8.79881667,1.6601 9.95115,1.6601 C11.1034833,1.6601 12.18095,1.87333333 13.18355,2.2998 C14.18615,2.7262 15.0683167,3.32026667 15.83005,4.082 C16.5917833,4.84373333 17.1874833,5.7259 17.61715,6.7285 C18.0468833,7.7311 18.26175,8.80857333 18.26175,9.96092 C18.26175,11.11326 18.0485167,12.1907333 17.62205,13.19334 C17.19565,14.1959467 16.6032167,15.07648 15.84475,15.83494 C15.0862833,16.593405 14.2041167,17.1874813 13.19825,17.617169 C12.1923833,18.0468563 11.1132833,18.2617 9.96095,18.2617 Z M5.42968,9.96092 C5.42968,10.1952933 5.50780667,10.38735 5.66406,10.53709 C5.82030667,10.68683 6.02213,10.7617 6.26953,10.7617 L9.14065,10.7617 L9.14065,13.64256 C9.14065,13.8899533 9.21551667,14.09015 9.36525,14.24315 C9.51498333,14.3961433 9.70705,14.47264 9.94145,14.47264 C10.1887833,14.47264 10.38895,14.3961433 10.54195,14.24315 C10.69495,14.09015 10.77145,13.8899533 10.77145,13.64256 L10.77145,10.7617 L13.65235,10.7617 C13.89975,10.7617 14.09995,10.68683 14.25295,10.53709 C14.40595,10.38735 14.48245,10.1952933 14.48245,9.96092 C14.48245,9.71352 14.40595,9.51332333 14.25295,9.36033 C14.09995,9.20733667 13.89975,9.13084 13.65235,9.13084 L10.77145,9.13084 L10.77145,6.2597 C10.77145,6.00583333 10.69495,5.8024 10.54195,5.6494 C10.38895,5.4964 10.1887833,5.4199 9.94145,5.4199 C9.70705,5.4199 9.51498333,5.49803333 9.36525,5.6543 C9.21551667,5.81056667 9.14065,6.01236667 9.14065,6.2597 L9.14065,9.13084 L6.26953,9.13084 C6.01562333,9.13084 5.81217333,9.20733667 5.65918,9.36033 C5.50618,9.51332333 5.42968,9.71352 5.42968,9.96092 Z" id="Shape"></path>
                </g>
                <g id="Group" transform="translate(307.901860, 1913.224600)" fill="#000000" fill-rule="nonzero">
                    <path d="M12.71484,25.43946 C14.10804,25.43946 15.4378067,25.22299 16.70414,24.79005 C17.9704067,24.3571033 19.13414,23.7500067 20.19534,22.96876 C21.25654,22.1875067 22.1793733,21.2662827 22.96384,20.205088 C23.7483733,19.1438893 24.3571067,17.9785233 24.79004,16.70899 C25.2229733,15.4394633 25.43944,14.11134 25.43944,12.72462 C25.43944,11.3313933 25.2229733,10.0016533 24.79004,8.7354 C24.3571067,7.46906667 23.7483733,6.30533333 22.96384,5.2442 C22.1793733,4.183 21.25654,3.26013333 20.19534,2.4756 C19.13414,1.69106667 17.9687733,1.08233333 16.69924,0.6494 C15.4297067,0.216466667 14.0983067,0 12.70504,0 C11.31184,0 9.98210667,0.216466667 8.71584,0.6494 C7.44955333,1.08233333 6.28743667,1.69106667 5.22949,2.4756 C4.17155,3.26013333 3.25032667,4.183 2.46582,5.2442 C1.68131333,6.30533333 1.07421667,7.46906667 0.64453,8.7354 C0.214843333,10.0016533 0,11.3313933 0,12.72462 C0,14.11134 0.21647,15.4394633 0.64941,16.70899 C1.08235667,17.9785233 1.68945333,19.1438893 2.4707,20.205088 C3.25195333,21.2662827 4.17317667,22.1875067 5.23437,22.96876 C6.29557,23.7500067 7.45929333,24.3571033 8.72554,24.79005 C9.99187333,25.22299 11.32164,25.43946 12.71484,25.43946 Z M12.71484,23.62306 C11.51044,23.62306 10.3629733,23.43914 9.27244,23.0713 C8.18196,22.70346 7.18424667,22.18751 6.2793,21.52345 C5.37434667,20.8593853 4.58821333,20.0732513 3.9209,19.165048 C3.25358,18.2568427 2.73763,17.2574933 2.37305,16.167 C2.00846333,15.0765067 1.82617,13.9290467 1.82617,12.72462 C1.82617,11.51368 2.00846333,10.3629733 2.37305,9.2725 C2.73763,8.18196667 3.25195333,7.1826 3.91602,6.2744 C4.58008,5.3662 5.36458333,4.58006667 6.26953,3.916 C7.17447667,3.25193333 8.17221333,2.73763333 9.26274,2.3731 C10.3532067,2.0085 11.50064,1.8262 12.70504,1.8262 C13.9159733,1.8262 15.0667067,2.0085 16.15724,2.3731 C17.2477067,2.73763333 18.24704,3.25193333 19.15524,3.916 C20.06344,4.58006667 20.8495733,5.3662 21.51364,6.2744 C22.1777067,7.1826 22.6936733,8.18196667 23.06154,9.2725 C23.42934,10.3629733 23.6134125,11.51368 23.6134125,12.72462 C23.6197733,13.9290467 23.44074,15.0765067 23.07614,16.167 C22.7116067,17.2574933 22.1956733,18.2568427 21.52834,19.165048 C20.8610067,20.0732513 20.07324,20.8593853 19.16504,21.52345 C18.25684,22.18751 17.2575067,22.70346 16.16704,23.0713 C15.0765067,23.43914 13.9257733,23.62306 12.71484,23.62306 Z M6.94336,12.72462 C6.94336,12.9785267 7.02962333,13.1884867 7.20215,13.3545 C7.37467667,13.5205133 7.59440667,13.60352 7.86134,13.60352 L11.80664,13.60352 L11.80664,17.5586 C11.80664,17.8255267 11.88964,18.0452533 12.05564,18.21778 C12.22164,18.3903067 12.4348733,18.47657 12.69534,18.47657 C12.9622733,18.47657 13.1820067,18.3919367 13.35454,18.22267 C13.5270067,18.0533967 13.61324,17.83204 13.61324,17.5586 L13.61324,13.60352 L17.56834,13.60352 C17.8352733,13.60352 18.0533733,13.5205133 18.22264,13.3545 C18.3919067,13.1884867 18.47654,12.9785267 18.47654,12.72462 C18.47654,12.45118 18.3919067,12.2298267 18.22264,12.06056 C18.0533733,11.8912867 17.8352733,11.80665 17.56834,11.80665 L13.61324,11.80665 L13.61324,7.8613 C13.61324,7.5879 13.5270067,7.36493333 13.35454,7.1924 C13.1820067,7.01986667 12.9622733,6.9336 12.69534,6.9336 C12.4348733,6.9336 12.22164,7.01986667 12.05564,7.1924 C11.88964,7.36493333 11.80664,7.5879 11.80664,7.8613 L11.80664,11.80665 L7.86134,11.80665 C7.58789333,11.80665 7.36653333,11.8912867 7.19726,12.06056 C7.02799333,12.2298267 6.94336,12.45118 6.94336,12.72462 Z" id="Shape"></path>
                </g>
                <text id="Design-Variations" fill="#000000" fill-rule="nonzero" font-family="Helvetica" font-size="13" font-weight="normal">
                    <tspan x="263" y="1953">Design Variations</tspan>
                </text>
                <text id="Symbols-are-supported-in-up-to-nine-weights-and-three-scales." fill="#000000" fill-rule="nonzero" font-family="Helvetica" font-size="13" font-weight="normal">
                    <tspan x="263" y="1971">Symbols are supported in up to nine weights and three scales.</tspan>
                </text>
                <text id="For-optimal-layout-with-text-and-other-symbols,-vertically-align" fill="#000000" fill-rule="nonzero" font-family="Helvetica" font-size="13" font-weight="normal">
                    <tspan x="263" y="1989">For optimal layout with text and other symbols, vertically align</tspan>
                </text>
                <text id="symbols-with-the-adjacent-text." fill="#000000" fill-rule="nonzero" font-family="Helvetica" font-size="13" font-weight="normal">
                    <tspan x="263" y="2007">symbols with the adjacent text.</tspan>
                </text>
                <line x1="776" y1="1919" x2="776" y2="1933" id="Path" stroke="#00AEEF" stroke-width="0.5"></line>
                <g id="Group" transform="translate(778.490230, 1918.732400)" fill="#000000" fill-rule="nonzero">
                    <path d="M0.82032,14.42385 C1.08073333,14.42385 1.28255667,14.3685115 1.42579,14.2578344 C1.56901667,14.1471575 1.68620333,13.9551 1.77735,13.681662 L3.03711,10.2344 L8.79887,10.2344 L10.05857,13.681662 C10.1497033,13.9551 10.2669033,14.1471575 10.41017,14.2578344 C10.55337,14.3685115 10.7519367,14.42385 11.00587,14.42385 C11.26627,14.42385 11.47297,14.3522354 11.62597,14.2090062 C11.77897,14.0657767 11.85547,13.8704643 11.85547,13.623069 C11.85547,13.473329 11.81967,13.297546 11.74807,13.09572 L7.16797,0.8985 C7.05078333,0.598966667 6.89128,0.374333333 6.68946,0.2246 C6.48763333,0.0748666667 6.23047,0 5.91797,0 C5.31250333,0 4.90234667,0.296233333 4.6875,0.8887 L0.10743,13.10549 C0.03581,13.3073133 -4.4408921e-16,13.4830947 -4.4408921e-16,13.632834 C-4.4408921e-16,13.88023 0.0732433333,14.073915 0.21973,14.2138891 C0.366216667,14.353863 0.566413333,14.42385 0.82032,14.42385 Z M3.51563,8.75002 L5.88868,2.1778 L5.9375,2.1778 L8.31057,8.75002 L3.51563,8.75002 Z" id="Shape"></path>
                </g>
                <line x1="793.197" y1="1919" x2="793.197" y2="1933" id="Path" stroke="#00AEEF" stroke-width="0.5"></line>
                <text id="Margins" fill="#000000" fill-rule="nonzero" font-family="Helvetica" font-size="13" font-weight="normal">
                    <tspan x="776" y="1953">Margins</tspan>
                </text>
                <text id="Leading-and-trailing-margins-on-the-left-and-right-side-of-each-symbol" fill="#000000" fill-rule="nonzero" font-family="Helvetica" font-size="13" font-weight="normal">
                    <tspan x="776" y="1971">Leading and trailing margins on the left and right side of each symbol</tspan>
                </text>
                <text id="can-be-adjusted-by-modifying-the-x-location-of-the-margin-guidelines." fill="#000000" fill-rule="nonzero" font-family="Helvetica" font-size="13" font-weight="normal">
                    <tspan x="776" y="1989">can be adjusted by modifying the x-location of the margin guidelines.</tspan>
                </text>
                <text id="Modifications-are-automatically-applied-proportionally-to-all" fill="#000000" fill-rule="nonzero" font-family="Helvetica" font-size="13" font-weight="normal">
                    <tspan x="776" y="2007">Modifications are automatically applied proportionally to all</tspan>
                </text>
                <text id="scales-and-weights." fill="#000000" fill-rule="nonzero" font-family="Helvetica" font-size="13" font-weight="normal">
                    <tspan x="776" y="2025">scales and weights.</tspan>
                </text>
                <g id="Group" transform="translate(1291.246849, 1914.517550)" fill="#000000" fill-rule="nonzero">
                    <path d="M0.594951479,20.3476805 L2.29417148,22.0566705 C2.72385815,22.4928705 3.17795815,22.6946938 3.65647148,22.6621405 C4.13498481,22.6295872 4.60536148,22.3561505 5.06760148,21.8418305 L15.7609515,10.0547205 L14.7941515,9.07815049 L4.17893148,20.7578405 C4.00315148,20.9596605 3.82574148,21.0735938 3.64670148,21.0996405 C3.46766815,21.1256805 3.26096481,21.0215138 3.02659148,20.7871405 L1.85471148,19.6250305 C1.62033815,19.3906545 1.51780148,19.1839482 1.54710148,19.0049115 C1.57639481,18.8258748 1.69195148,18.6452108 1.89377148,18.4629193 L13.3683515,7.66215049 L12.3918515,6.69535049 L0.800031479,17.5840125 C0.305238146,18.0397418 0.039938146,18.5052368 0.00413147929,18.9804975 C-0.0316751874,19.4557595 0.165264813,19.9114872 0.594951479,20.3476805 Z M7.01096148,2.15435049 C6.80262815,2.35615049 6.68544148,2.58725049 6.65940148,2.84765049 C6.63336148,3.10811716 6.67893481,3.33598382 6.79612148,3.53125049 C6.91330815,3.71358382 7.08420481,3.85031716 7.30881148,3.94145049 C7.53342481,4.03258382 7.80850481,4.03908382 8.13405148,3.96095049 C8.86318481,3.79168382 9.60211815,3.72171716 10.3508515,3.75105049 C11.0995181,3.78031716 11.8319181,4.02931716 12.5480515,4.49805049 L11.9621515,5.95315049 C11.7928848,6.36981716 11.7456848,6.73278382 11.8205515,7.04205049 C11.8954181,7.35125049 12.0663181,7.64258382 12.3332515,7.91605049 L14.6281515,10.2305005 C14.8690181,10.4778938 15.1033848,10.6211205 15.3312515,10.6601805 C15.5591181,10.6992472 15.8130181,10.6927372 16.0929515,10.6406505 L17.1574515,10.4453405 L17.8215515,11.1191705 L17.7824515,11.6758105 C17.7629181,11.9232038 17.7938515,12.1510672 17.8752515,12.3594005 C17.9565848,12.5677338 18.1177181,12.7923438 18.3586515,13.0332305 L19.1203515,13.7754205 C19.3612181,14.0163072 19.6232515,14.1416338 19.9064515,14.1514005 C20.1896515,14.1611605 20.4484515,14.0488538 20.6828515,13.8144805 L23.5929515,10.8945605 C23.8273515,10.6601872 23.9412848,10.4046538 23.9347515,10.1279605 C23.9282848,9.85126716 23.8045848,9.59247716 23.5636515,9.35159049 L22.7922515,8.58987049 C22.5578515,8.34899049 22.3381181,8.18461716 22.1330515,8.09675049 C21.9279848,8.00881716 21.7049848,7.97461716 21.4640515,7.99415049 L20.8879515,8.04295049 L20.2433515,7.40825049 L20.4875515,6.28515049 C20.5526181,6.00521716 20.5395848,5.74318382 20.4484515,5.49905049 C20.3573181,5.25491716 20.1652515,4.98635049 19.8722515,4.69335049 L17.6750515,2.50585049 C16.8417181,1.67905049 15.9546515,1.05895049 15.0138515,0.64555049 C14.0731181,0.23215049 13.1258515,0.0173171567 12.1720515,0.00105049002 C11.2183181,-0.0152828433 10.3003515,0.15885049 9.41815148,0.52345049 C8.53601815,0.88805049 7.73362148,1.43168382 7.01096148,2.15435049 Z M8.50515148,2.52545049 C9.11061815,2.08271716 9.76001815,1.76695049 10.4533515,1.57815049 C11.1466848,1.38935049 11.8481848,1.32911716 12.5578515,1.39745049 C13.2674515,1.46585049 13.9559181,1.65628382 14.6232515,1.96875049 C15.2905848,2.28128382 15.9009515,2.71748382 16.4543515,3.27735049 L18.8859515,5.68945049 C19.0031515,5.80665049 19.0763848,5.92058382 19.1056515,6.03125049 C19.1349848,6.14191716 19.1301181,6.28191716 19.0910515,6.45125049 L18.7687515,7.93555049 L20.2726515,9.41995049 L21.2590515,9.36136049 C21.3827181,9.35484716 21.4771181,9.36298382 21.5422515,9.38577049 C21.6073181,9.40855716 21.6886848,9.46877716 21.7863515,9.56643049 L22.3625515,10.1426105 L19.9211515,12.5840105 L19.3449515,12.0078405 C19.2472848,11.9101872 19.1854181,11.8288072 19.1593515,11.7637005 C19.1333515,11.6985938 19.1236181,11.6009372 19.1301515,11.4707305 L19.1984515,10.4941705 L17.7043515,9.00979049 L16.1808515,9.26370049 C16.0181181,9.29625382 15.8895515,9.30113716 15.7951515,9.27835049 C15.7007515,9.25556382 15.5916848,9.18557716 15.4679515,9.06839049 L13.4660515,7.06645049 C13.3358515,6.94925049 13.2626181,6.83695049 13.2463515,6.72955049 C13.2300848,6.62208382 13.2609848,6.47721716 13.3390515,6.29495049 L14.2179515,4.20515049 C13.4367515,3.47595049 12.5578515,2.97138382 11.5812515,2.69145049 C10.6047181,2.41151716 9.60861815,2.42128382 8.59295148,2.72075049 C8.51488481,2.74028382 8.46445148,2.72561716 8.44165148,2.67675049 C8.41885148,2.62795049 8.44001815,2.57751716 8.50515148,2.52545049 Z" id="Shape"></path>
                </g>
                <text id="Exporting" fill="#000000" fill-rule="nonzero" font-family="Helvetica" font-size="13" font-weight="normal">
                    <tspan x="1289" y="1953">Exporting</tspan>
                </text>
                <text id="Symbols-should-be-outlined-when-exporting-to-ensure-the" fill="#000000" fill-rule="nonzero" font-family="Helvetica" font-size="13" font-weight="normal">
                    <tspan x="1289" y="1971">Symbols should be outlined when exporting to ensure the</tspan>
                </text>
                <text id="design-is-preserved-when-submitting-to-Xcode." fill="#000000" fill-rule="nonzero" font-family="Helvetica" font-size="13" font-weight="normal">
                    <tspan x="1289" y="1989">design is preserved when submitting to Xcode.</tspan>
                </text>
                <text id="template-version" fill="#000000" fill-rule="nonzero" font-family="Helvetica" font-size="13" font-weight="normal">
                    <tspan x="2952" y="1933">Template v.3.0</tspan>
                </text>
                <text id="Requires-Xcode-13-or-greater" fill="#000000" fill-rule="nonzero" font-family="Helvetica" font-size="13" font-weight="normal">
                    <tspan x="2865" y="1951">Requires Xcode 13 or greater</tspan>
                </text>
                <text id="descriptive-name" fill="#000000" fill-rule="nonzero" font-family="Helvetica" font-size="13" font-weight="normal">
                    <tspan x="2892" y="1969">Generated from 27.circle</tspan>
                </text>
                <text id="Typeset-at-100-points" fill="#000000" fill-rule="nonzero" font-family="Helvetica" font-size="13" font-weight="normal">
                    <tspan x="2912" y="1987">Typeset at 100 points</tspan>
                </text>
                <text id="Small" fill="#000000" fill-rule="nonzero" font-family="Helvetica" font-size="13" font-weight="normal">
                    <tspan x="263" y="726">Small</tspan>
                </text>
                <text id="Medium" fill="#000000" fill-rule="nonzero" font-family="Helvetica" font-size="13" font-weight="normal">
                    <tspan x="263" y="1156">Medium</tspan>
                </text>
                <text id="Large" fill="#000000" fill-rule="nonzero" font-family="Helvetica" font-size="13" font-weight="normal">
                    <tspan x="263" y="1586">Large</tspan>
                </text>
            </g>
            <g id="Guides" transform="translate(263.000000, 600.785000)">
                <g id="H-reference" transform="translate(76.993347, 24.756000)" fill="#27AAE1" fill-rule="nonzero">
                    <path d="M0,70.459 L2.644353,70.459 L28.334853,3.3264 L29.036753,3.3264 L29.036753,0 L27.129353,0 L0,70.459 Z M10.694853,45.9793 L45.988453,45.9793 L45.237753,43.7302 L11.444853,43.7302 L10.694853,45.9793 Z M54.125953,70.459 L56.770353,70.459 L29.644753,0 L28.439353,0 L28.439353,3.3264 L54.125953,70.459 Z" id="Shape"></path>
                </g>
                <line x1="0" y1="95.215" x2="2773" y2="95.215" id="Baseline-S" stroke="#27AAE1" stroke-width="0.5"></line>
                <line x1="0" y1="24.756" x2="2773" y2="24.756" id="Capline-S" stroke="#27AAE1" stroke-width="0.5"></line>
                <g id="H-reference" transform="translate(76.993347, 454.756000)" fill="#27AAE1" fill-rule="nonzero">
                    <path d="M0,70.459 L2.644353,70.459 L28.334853,3.3264 L29.036753,3.3264 L29.036753,0 L27.129353,0 L0,70.459 Z M10.694853,45.9793 L45.988453,45.9793 L45.237753,43.7302 L11.444853,43.7302 L10.694853,45.9793 Z M54.125953,70.459 L56.770353,70.459 L29.644753,0 L28.439353,0 L28.439353,3.3264 L54.125953,70.459 Z" id="Shape"></path>
                </g>
                <line x1="0" y1="525.215" x2="2773" y2="525.215" id="Baseline-M" stroke="#27AAE1" stroke-width="0.5"></line>
                <line x1="0" y1="454.755" x2="2773" y2="454.755" id="Capline-M" stroke="#27AAE1" stroke-width="0.5"></line>
                <g id="H-reference" transform="translate(76.993347, 884.756000)" fill="#27AAE1" fill-rule="nonzero">
                    <path d="M0,70.459 L2.644353,70.459 L28.334853,3.3264 L29.036753,3.3264 L29.036753,0 L27.129353,0 L0,70.459 Z M10.694853,45.9793 L45.988453,45.9793 L45.237753,43.7302 L11.444853,43.7302 L10.694853,45.9793 Z M54.125953,70.459 L56.770353,70.459 L29.644753,0 L28.439353,0 L28.439353,3.3264 L54.125953,70.459 Z" id="Shape"></path>
                </g>
                <line x1="0" y1="955.215" x2="2773" y2="955.215" id="Baseline-L" stroke="#27AAE1" stroke-width="0.5"></line>
                <line x1="0" y1="884.755" x2="2773" y2="884.755" id="Capline-L" stroke="#27AAE1" stroke-width="0.5"></line>
                <line x1="252.649" y1="1.13686838e-13" x2="252.649" y2="119.336" id="left-margin-Ultralight-S" stroke="#00AEEF" stroke-width="0.5"></line>
                <line x1="340.773" y1="1.13686838e-13" x2="340.773" y2="119.336" id="right-margin-Ultralight-S" stroke="#00AEEF" stroke-width="0.5"></line>
                <line x1="1140.58" y1="1.13686838e-13" x2="1140.58" y2="119.336" id="left-margin-Regular-S" stroke="#00AEEF" stroke-width="0.5"></line>
                <line x1="1233.11" y1="1.13686838e-13" x2="1233.11" y2="119.336" id="right-margin-Regular-S" stroke="#00AEEF" stroke-width="0.5"></line>
                <line x1="2621.57" y1="1.13686838e-13" x2="2621.57" y2="119.336" id="left-margin-Black-S" stroke="#00AEEF" stroke-width="0.5"></line>
                <line x1="2719.23" y1="1.13686838e-13" x2="2719.23" y2="119.336" id="right-margin-Black-S" stroke="#00AEEF" stroke-width="0.5"></line>
            </g>
            <g id="Symbols" transform="translate(522.484940, 618.802700)" fill="#000000" fill-rule="nonzero">
                <g id="Black-S" transform="translate(2368.921000, 0.000000)">
                    <path d="M41.99216,83.98441 C47.7864267,83.98441 53.2144933,82.8939133 58.27636,80.71292 C63.3382267,78.531934 67.79786,75.5127307 71.65526,71.65531 C75.51266,67.7979033 78.53186,63.3382667 80.71286,58.2764 C82.89386,53.2145333 83.98436,47.7864667 83.98436,41.9922 C83.98436,36.1979333 82.89386,30.7698667 80.71286,25.708 C78.53186,20.6462 75.51266,16.1865667 71.65526,12.3291 C67.79786,8.4717 63.3382267,5.4525 58.27636,3.2715 C53.2144933,1.0905 47.7864267,0 41.99216,0 C36.1978933,0 30.7698267,1.0905 25.70796,3.2715 C20.64616,5.4525 16.1865267,8.4717 12.32906,12.3291 C8.47166,16.1865667 5.45246,20.6462 3.27146,25.708 C1.09048667,30.7698667 -8.8817842e-16,36.1979333 -8.8817842e-16,41.9922 C-8.8817842e-16,47.7864667 1.09048667,53.2145333 3.27146,58.2764 C5.45246,63.3382667 8.47166,67.7979033 12.32906,71.65531 C16.1865267,75.5127307 20.64616,78.531934 25.70796,80.71292 C30.7698267,82.8939133 36.1978933,83.98441 41.99216,83.98441 Z M41.99216,69.82425 C38.1510267,69.82425 34.5458933,69.0999667 31.17676,67.6514 C27.8076267,66.2028 24.8535267,64.209 22.31446,61.67 C19.7753933,59.1309333 17.78156,56.1768333 16.33296,52.8077 C14.8844267,49.4385 14.16016,45.8333333 14.16016,41.9922 C14.16016,38.1510667 14.8844267,34.5459333 16.33296,31.1768 C17.78156,27.8076667 19.7753933,24.8535667 22.31446,22.3145 C24.8535267,19.7754333 27.8076267,17.7816 31.17676,16.333 C34.5458933,14.8844667 38.1510267,14.1602 41.99216,14.1602 C45.8332933,14.1602 49.43846,14.8844667 52.80766,16.333 C56.1767933,17.7816 59.1308933,19.7754333 61.66996,22.3145 C64.2090267,24.8535667 66.2028267,27.8076667 67.65136,31.1768 C69.09996,34.5459333 69.82426,38.1510667 69.82426,41.9922 C69.82426,45.8333333 69.09996,49.4385 67.65136,52.8077 C66.2028267,56.1768333 64.2090267,59.1309333 61.66996,61.67 C59.1308933,64.209 56.1767933,66.2028 52.80766,67.6514 C49.43846,69.0999667 45.8332933,69.82425 41.99216,69.82425 Z M50.53706,56.2012 C51.7089933,56.2012 52.5879267,55.9163667 53.17386,55.3467 C53.7597933,54.7770333 54.2806267,53.9388333 54.73636,52.8321 L61.76756,36.0352 C61.9628933,35.5469333 62.1175267,35.0423667 62.23146,34.5215 C62.3453933,34.0007 62.40236,33.4798667 62.40236,32.959 C62.40236,31.6894667 61.99546,30.5745667 61.18166,29.6143 C60.36786,28.6540333 59.00066,28.1739 57.08006,28.1739 L47.36326,28.1739 C46.2239267,28.1739 45.24736,28.4831333 44.43356,29.1016 C43.61976,29.7200667 43.21286,30.6315333 43.21286,31.836 C43.21286,33.0404 43.63606,33.9518333 44.48246,34.5703 C45.3287933,35.1888333 46.28906,35.4981 47.36326,35.4981 L53.71096,35.4981 L53.71096,35.6934 L47.07026,49.2676 C46.5819933,50.2442 46.33786,51.1719333 46.33786,52.0508 C46.33786,53.3203333 46.7366267,54.3294667 47.53416,55.0782 C48.3316933,55.8268667 49.33266,56.2012 50.53706,56.2012 Z M29.53706,56.2012 C30.7089933,56.2012 31.5879267,55.9163667 32.17386,55.3467 C32.7597933,54.7770333 33.2806267,53.9388333 33.73636,52.8321 L40.76756,36.0352 C40.9628933,35.5469333 41.1175267,35.0423667 41.23146,34.5215 C41.3453933,34.0007 41.40236,33.4798667 41.40236,32.959 C41.40236,31.6894667 40.99546,30.5745667 40.18166,29.6143 C39.36786,28.6540333 38.00066,28.1739 36.08006,28.1739 L26.36326,28.1739 C25.2239267,28.1739 24.24736,28.4831333 23.43356,29.1016 C22.61976,29.7200667 22.21286,30.6315333 22.21286,31.836 C22.21286,33.0404 22.63606,33.9518333 23.48246,34.5703 C24.3287933,35.1888333 25.28906,35.4981 26.36326,35.4981 L32.71096,35.4981 L32.71096,35.6934 L26.07026,49.2676 C25.5819933,50.2442 25.33786,51.1719333 25.33786,52.0508 C25.33786,53.3203333 25.7366267,54.3294667 26.53416,55.0782 C27.3316933,55.8268667 28.33266,56.2012 29.53706,56.2012 Z" id="Shape"></path>
                </g>
                <g id="Regular-S" transform="translate(887.931000, 2.539100)">
                    <path d="M39.40426,78.80859 C44.8079267,78.80859 49.88606,77.7832 54.63866,75.73242 C59.39126,73.68164 63.58236,70.8333333 67.21196,67.1875 C70.8414933,63.5416333 73.6897933,59.3424 75.75686,54.5898 C77.8239267,49.8372 78.85746,44.7753667 78.85746,39.4043 C78.85746,34.0332333 77.8239267,28.9713667 75.75686,24.2187 C73.6897933,19.4661 70.8333267,15.2669 67.18746,11.6211 C63.54166,7.97523333 59.34246,5.12693333 54.58986,3.0762 C49.83726,1.0254 44.7591267,0 39.35546,0 C33.9843933,0 28.92256,1.0254 24.16996,3.0762 C19.41736,5.12693333 15.2343933,7.97523333 11.62106,11.6211 C8.00779333,15.2669 5.16763333,19.4661 3.10058,24.2187 C1.03352667,28.9713667 -8.8817842e-16,34.0332333 -8.8817842e-16,39.4043 C-8.8817842e-16,44.7753667 1.03352667,49.8372 3.10058,54.5898 C5.16763333,59.3424 8.01592667,63.5416333 11.64546,67.1875 C15.27506,70.8333333 19.46616,73.68164 24.21876,75.73242 C28.97136,77.7832 34.0331933,78.80859 39.40426,78.80859 Z M39.40426,71.38672 C34.9771933,71.38672 30.83496,70.56478 26.97756,68.9209 C23.1200933,67.27702 19.73466,64.99022 16.82126,62.0605 C13.90786,59.1308333 11.6292267,55.7291667 9.98536,51.8555 C8.34149333,47.9817667 7.51956,43.8313667 7.51956,39.4043 C7.51956,34.9772333 8.33336,30.8268333 9.96096,26.9531 C11.58856,23.0794333 13.85906,19.6777333 16.77246,16.748 C19.68586,13.8183333 23.07126,11.5315667 26.92866,9.8877 C30.7861267,8.24383333 34.9283933,7.4219 39.35546,7.4219 C43.8151267,7.4219 47.97366,8.24383333 51.83106,9.8877 C55.68846,11.5315667 59.0820267,13.8183333 62.01176,16.748 C64.9414267,19.6777333 67.2363267,23.0794333 68.89646,26.9531 C70.55666,30.8268333 71.38676,34.9772333 71.38676,39.4043 C71.38676,43.8313667 70.5647933,47.9817667 68.92086,51.8555 C67.2769933,55.7291667 64.99836,59.1308333 62.08496,62.0605 C59.17156,64.99022 55.7779933,67.27702 51.90426,68.9209 C48.0305933,70.56478 43.8639267,71.38672 39.40426,71.38672 Z M48.09566,55.5664 C48.6815933,55.5664 49.1942933,55.3955 49.63376,55.0537 C50.0732267,54.7119 50.4719933,54.1829333 50.83006,53.4668 L62.40236,30.4199 C62.7278933,29.7363 62.93946,29.1747667 63.03706,28.7353 C63.1347267,28.2959 63.18356,27.8483333 63.18356,27.3926 C63.18356,26.3509333 62.84176,25.4720333 62.15816,24.7559 C61.4746267,24.0397 60.57946,23.6816 59.47266,23.6816 L44.33596,23.6816 C43.6198267,23.6816 43.0338933,23.9013333 42.57816,24.3408 C42.1224267,24.7802667 41.89456,25.3580667 41.89456,26.0742 C41.89456,26.7903333 42.1224267,27.3681333 42.57816,27.8076 C43.0338933,28.2470667 43.6198267,28.4668 44.33596,28.4668 L57.12886,28.4668 L57.12886,28.8086 L45.70316,50.7812 C45.3776267,51.3346 45.21486,51.9856667 45.21486,52.7344 C45.21486,53.5807333 45.49156,54.2643333 46.04496,54.7852 C46.5982933,55.306 47.28186,55.5664 48.09566,55.5664 Z M23.09566,55.5664 C23.6815933,55.5664 24.1942933,55.3955 24.63376,55.0537 C25.0732267,54.7119 25.4719933,54.1829333 25.83006,53.4668 L37.40236,30.4199 C37.7278933,29.7363 37.93946,29.1747667 38.03706,28.7353 C38.1347267,28.2959 38.18356,27.8483333 38.18356,27.3926 C38.18356,26.3509333 37.84176,25.4720333 37.15816,24.7559 C36.4746267,24.0397 35.57946,23.6816 34.47266,23.6816 L19.33596,23.6816 C18.6198267,23.6816 18.0338933,23.9013333 17.57816,24.3408 C17.1224267,24.7802667 16.89456,25.3580667 16.89456,26.0742 C16.89456,26.7903333 17.1224267,27.3681333 17.57816,27.8076 C18.0338933,28.2470667 18.6198267,28.4668 19.33596,28.4668 L32.12886,28.4668 L32.12886,28.8086 L20.70316,50.7812 C20.3776267,51.3346 20.21486,51.9856667 20.21486,52.7344 C20.21486,53.5807333 20.49156,54.2643333 21.04496,54.7852 C21.5982933,55.306 22.28186,55.5664 23.09566,55.5664 Z" id="Shape"></path>
                </g>
                <g id="Ultralight-S" transform="translate(0.000000, 4.736400)">
                    <path d="M37.20706,74.41402 C42.35026,74.41402 47.1598267,73.4537353 51.63576,71.533166 C56.1116267,69.6125953 60.0666933,66.9351867 63.50096,63.50094 C66.9352267,60.0667133 69.6207933,56.1116333 71.55766,51.6357 C73.49446,47.1597667 74.46286,42.3502 74.46286,37.207 C74.46286,32.0637333 73.49446,27.2541667 71.55766,22.7783 C69.6207933,18.3023667 66.9352267,14.3472667 63.50096,10.913 C60.0666933,7.4788 56.1116267,4.8014 51.63576,2.8808 C47.1598267,0.960266667 42.35026,0 37.20706,0 C32.0963933,0 27.29496,0.960266667 22.80276,2.8808 C18.31056,4.8014 14.35546,7.4788 10.93746,10.913 C7.51952667,14.3472667 4.84213,18.3023667 2.90527,22.7783 C0.968423333,27.2541667 -8.8817842e-16,32.0637333 -8.8817842e-16,37.207 C-8.8817842e-16,42.3502 0.968423333,47.1597667 2.90527,51.6357 C4.84213,56.1116333 7.51952667,60.0667133 10.93746,63.50094 C14.35546,66.9351867 18.31056,69.6125953 22.80276,71.533166 C27.29496,73.4537353 32.0963933,74.41402 37.20706,74.41402 Z M37.20706,72.167931 C32.3893267,72.167931 27.8645933,71.2646107 23.63286,69.45797 C19.40106,67.65133 15.68196,65.1448067 12.47556,61.9384 C9.26922667,58.7320667 6.75459333,55.013 4.93166,50.7812 C3.10872667,46.5494667 2.19726,42.0247333 2.19726,37.207 C2.19726,32.3892667 3.10872667,27.8645333 4.93166,23.6328 C6.75459333,19.401 9.26922667,15.6819 12.47556,12.4755 C15.68196,9.26916667 19.40106,6.76266667 23.63286,4.956 C27.8645933,3.1494 32.3893267,2.2461 37.20706,2.2461 C42.0247267,2.2461 46.5575933,3.1494 50.80566,4.956 C55.0537267,6.76266667 58.7727933,9.26916667 61.96286,12.4755 C65.1529933,15.6819 67.6595267,19.401 69.48246,23.6328 C71.3053267,27.8645333 72.21676,32.3892667 72.21676,37.207 C72.21676,42.0247333 71.31346,46.5494667 69.50686,50.7812 C67.7001933,55.013 65.19366,58.7320667 61.98726,61.9384 C58.7809267,65.1448067 55.06186,67.65133 50.83006,69.45797 C46.5983267,71.2646107 42.0573267,72.167931 37.20706,72.167931 Z M45.16606,52.8808 C45.4589933,52.8808 45.6868267,52.8238333 45.84956,52.7099 C46.01236,52.5959667 46.15886,52.3925333 46.28906,52.0996 L60.05856,24.3652 C60.1562267,24.0722 60.2294933,23.8443333 60.27836,23.6816 C60.32716,23.5188667 60.35156,23.3235667 60.35156,23.0957 C60.35156,22.6399667 60.1887933,22.2737333 59.86326,21.997 C59.5377267,21.7203333 59.0819933,21.582 58.49606,21.582 L41.55276,21.582 C41.2272267,21.582 40.9667933,21.6796667 40.77146,21.875 C40.5761933,22.0702667 40.47856,22.3144 40.47856,22.6074 C40.47856,22.9329333 40.5761933,23.1933333 40.77146,23.3886 C40.9667933,23.5839333 41.2272267,23.6816 41.55276,23.6816 L58.00786,23.6816 L58.00786,23.8281 L44.23826,51.0742 C44.1405933,51.3020667 44.09176,51.5462 44.09176,51.8066 C44.09176,52.067 44.1812933,52.3111333 44.36036,52.539 C44.53936,52.7668667 44.8079267,52.8808 45.16606,52.8808 Z M20.16606,52.8808 C20.4589933,52.8808 20.6868267,52.8238333 20.84956,52.7099 C21.01236,52.5959667 21.15886,52.3925333 21.28906,52.0996 L35.05856,24.3652 C35.1562267,24.0722 35.2294933,23.8443333 35.27836,23.6816 C35.32716,23.5188667 35.35156,23.3235667 35.35156,23.0957 C35.35156,22.6399667 35.1887933,22.2737333 34.86326,21.997 C34.5377267,21.7203333 34.0819933,21.582 33.49606,21.582 L16.55276,21.582 C16.2272267,21.582 15.9667933,21.6796667 15.77146,21.875 C15.5761933,22.0702667 15.47856,22.3144 15.47856,22.6074 C15.47856,22.9329333 15.5761933,23.1933333 15.77146,23.3886 C15.9667933,23.5839333 16.2272267,23.6816 16.55276,23.6816 L33.00786,23.6816 L33.00786,23.8281 L19.23826,51.0742 C19.1405933,51.3020667 19.09176,51.5462 19.09176,51.8066 C19.09176,52.067 19.1812933,52.3111333 19.36036,52.539 C19.53936,52.7668667 19.8079267,52.8808 20.16606,52.8808 Z" id="Shape"></path>
                </g>
            </g>
        </g>
    </g>
</svg>