<?xml version="1.0" encoding="UTF-8"?>
<svg width="3300px" height="2200px" viewBox="0 0 3300 2200" version="1.1" xmlns="http://www.w3.org/2000/svg" xmlns:xlink="http://www.w3.org/1999/xlink">
    <title>52.circle</title>
    <g id="Page-1" stroke="none" stroke-width="1" fill="none" fill-rule="evenodd">
        <g id="52.circle">
            <g id="Notes">
                <rect id="artboard" fill="#FFFFFF" fill-rule="nonzero" x="0" y="0" width="3300" height="2200"></rect>
                <line x1="263" y1="292" x2="3036" y2="292" id="Path" stroke="#000000" stroke-width="0.5"></line>
                <text id="Weight/Scale-Variations" fill="#000000" fill-rule="nonzero" font-family="Helvetica" font-size="13" font-weight="normal">
                    <tspan x="263" y="322">Weight/Scale Variations</tspan>
                </text>
                <text id="Ultralight" fill="#000000" fill-rule="nonzero" font-family="Helvetica" font-size="13" font-weight="normal">
                    <tspan x="533.711" y="322">Ultralight</tspan>
                </text>
                <text id="Thin" fill="#000000" fill-rule="nonzero" font-family="Helvetica" font-size="13" font-weight="normal">
                    <tspan x="843.422" y="322">Thin</tspan>
                </text>
                <text id="Light" fill="#000000" fill-rule="nonzero" font-family="Helvetica" font-size="13" font-weight="normal">
                    <tspan x="1138.63" y="322">Light</tspan>
                </text>
                <text id="Regular" fill="#000000" fill-rule="nonzero" font-family="Helvetica" font-size="13" font-weight="normal">
                    <tspan x="1426.84" y="322">Regular</tspan>
                </text>
                <text id="Medium" fill="#000000" fill-rule="nonzero" font-family="Helvetica" font-size="13" font-weight="normal">
                    <tspan x="1723.06" y="322">Medium</tspan>
                </text>
                <text id="Semibold" fill="#000000" fill-rule="nonzero" font-family="Helvetica" font-size="13" font-weight="normal">
                    <tspan x="2015.77" y="322">Semibold</tspan>
                </text>
                <text id="Bold" fill="#000000" fill-rule="nonzero" font-family="Helvetica" font-size="13" font-weight="normal">
                    <tspan x="2326.48" y="322">Bold</tspan>
                </text>
                <text id="Heavy" fill="#000000" fill-rule="nonzero" font-family="Helvetica" font-size="13" font-weight="normal">
                    <tspan x="2618.19" y="322">Heavy</tspan>
                </text>
                <text id="Black" fill="#000000" fill-rule="nonzero" font-family="Helvetica" font-size="13" font-weight="normal">
                    <tspan x="2917.4" y="322">Black</tspan>
                </text>
                <line x1="263" y1="1903" x2="3036" y2="1903" id="Path" stroke="#000000" stroke-width="0.5"></line>
                <g id="Group" transform="translate(264.367190, 1918.068400)" fill="#000000" fill-rule="nonzero">
                    <path d="M7.88086,15.761678 C8.96156,15.761678 9.97717667,15.5566 10.92771,15.146444 C11.8782433,14.7362873 12.7164767,14.166626 13.44241,13.43746 C14.1682767,12.7082933 14.7379433,11.86845 15.15141,10.91793 C15.56481,9.96741 15.77151,8.95504 15.77151,7.88082 C15.77151,6.8066 15.56481,5.79422667 15.15141,4.8437 C14.7379433,3.89316667 14.1666433,3.05333333 13.43751,2.3242 C12.70831,1.595 11.8684767,1.02533333 10.91801,0.6152 C9.96747667,0.205066667 8.95183667,0 7.87109,0 C6.79687,0 5.7845,0.205066667 4.83398,0.6152 C3.88346,1.02533333 3.04687333,1.595 2.32422,2.3242 C1.60156,3.05333333 1.03352333,3.89316667 0.62011,4.8437 C0.206703333,5.79422667 -8.8817842e-16,6.8066 -8.8817842e-16,7.88082 C-8.8817842e-16,8.95504 0.206703333,9.96741 0.62011,10.91793 C1.03352333,11.86845 1.60318667,12.7082933 2.3291,13.43746 C3.05501333,14.166626 3.89323,14.7362873 4.84375,15.146444 C5.79427,15.5566 6.80664,15.761678 7.88086,15.761678 Z M7.88086,14.277303 C6.99544,14.277303 6.16699,14.1129153 5.39551,13.78414 C4.62402333,13.4553667 3.94694,12.99801 3.36426,12.41207 C2.78157333,11.82613 2.32584333,11.14579 1.99707,10.37105 C1.66829,9.59631 1.5039,8.76623333 1.5039,7.88082 C1.5039,6.9954 1.66666333,6.16532 1.99219,5.39058 C2.31771,4.61586 2.77181,3.93553333 3.35449,3.3496 C3.93717,2.76366667 4.61425333,2.3063 5.38574,1.9775 C6.15722667,1.6487 6.98567667,1.4843 7.87109,1.4843 C8.76303667,1.4843 9.59474333,1.6487 10.36621,1.9775 C11.1376767,2.3063 11.8163767,2.76366667 12.40231,3.3496 C12.9882433,3.93553333 13.4472433,4.61586 13.77931,5.39058 C14.11131,6.16532 14.27731,6.9954 14.27731,7.88082 C14.27731,8.76623333 14.1129433,9.59631 13.78421,10.37105 C13.45541,11.14579 12.9996767,11.82613 12.41701,12.41207 C11.8343433,12.99801 11.15561,13.4553667 10.38081,13.78414 C9.60607667,14.1129153 8.77276,14.277303 7.88086,14.277303 Z M4.28711,7.88082 C4.28711,8.09566 4.35547,8.26981333 4.49219,8.40328 C4.62890333,8.53674667 4.81119333,8.60348 5.03906,8.60348 L7.14843,8.60348 L7.14843,10.72262 C7.14843,10.93746 7.21353667,11.1148667 7.34375,11.25484 C7.47395667,11.3948133 7.64973667,11.4648 7.87109,11.4648 C8.08593667,11.4648 8.26334667,11.3948133 8.40332,11.25484 C8.54329333,11.1148667 8.61328,10.93746 8.61328,10.72262 L8.61328,8.60348 L10.72261,8.60348 C10.94401,8.60348 11.1230767,8.53674667 11.25981,8.40328 C11.3964767,8.26981333 11.46481,8.09566 11.46481,7.88082 C11.46481,7.65946667 11.3964767,7.48043 11.25981,7.34371 C11.1230767,7.20699 10.94401,7.13863 10.72261,7.13863 L8.61328,7.13863 L8.61328,5.02926 C8.61328,4.80788667 8.54329333,4.62723333 8.40332,4.4873 C8.26334667,4.3473 8.08593667,4.2773 7.87109,4.2773 C7.64973667,4.2773 7.47395667,4.3473 7.34375,4.4873 C7.21353667,4.62723333 7.14843,4.80788667 7.14843,5.02926 L7.14843,7.13863 L5.03906,7.13863 C4.81119333,7.13863 4.62890333,7.20699 4.49219,7.34371 C4.35547,7.48043 4.28711,7.65946667 4.28711,7.88082 Z" id="Shape"></path>
                </g>
                <g id="Group" transform="translate(283.615050, 1915.988300)" fill="#000000" fill-rule="nonzero">
                    <path d="M9.96095,19.92186 C11.3216167,19.92186 12.60255,19.6614433 13.80375,19.14061 C15.0048833,18.6197767 16.06445,17.9003744 16.98245,16.9824031 C17.9003833,16.0644344 18.6197833,15.0048633 19.14065,13.80369 C19.66145,12.6025167 19.92185,11.3215933 19.92185,9.96092 C19.92185,8.60024 19.66145,7.3193 19.14065,6.1181 C18.6197833,4.91696667 17.9003833,3.8574 16.98245,2.9394 C16.06445,2.02146667 15.00325,1.30206667 13.79885,0.7812 C12.5943833,0.2604 11.3118167,0 9.95115,0 C8.59048333,0 7.30956667,0.2604 6.1084,0.7812 C4.90722667,1.30206667 3.84928333,2.02146667 2.93457,2.9394 C2.01985667,3.8574 1.30208333,4.91696667 0.78125,6.1181 C0.260416667,7.3193 8.8817842e-16,8.60024 8.8817842e-16,9.96092 C8.8817842e-16,11.3215933 0.260416667,12.6025167 0.78125,13.80369 C1.30208333,15.0048633 2.02148333,16.0644344 2.93945,16.9824031 C3.85741667,17.9003744 4.91698667,18.6197767 6.11816,19.14061 C7.31933333,19.6614433 8.60026333,19.92186 9.96095,19.92186 Z M9.96095,18.2617 C8.80859667,18.2617 7.73111667,18.0468563 6.72851,17.617169 C5.72591,17.1874813 4.84537667,16.593405 4.08691,15.83494 C3.32845,15.07648 2.73600333,14.1959467 2.30957,13.19334 C1.88313667,12.1907333 1.66992,11.11326 1.66992,9.96092 C1.66992,8.80857333 1.88313667,7.7311 2.30957,6.7285 C2.73600333,5.7259 3.32682333,4.84373333 4.08203,4.082 C4.83723667,3.32026667 5.71614333,2.7262 6.71875,2.2998 C7.72135,1.87333333 8.79881667,1.6601 9.95115,1.6601 C11.1034833,1.6601 12.18095,1.87333333 13.18355,2.2998 C14.18615,2.7262 15.0683167,3.32026667 15.83005,4.082 C16.5917833,4.84373333 17.1874833,5.7259 17.61715,6.7285 C18.0468833,7.7311 18.26175,8.80857333 18.26175,9.96092 C18.26175,11.11326 18.0485167,12.1907333 17.62205,13.19334 C17.19565,14.1959467 16.6032167,15.07648 15.84475,15.83494 C15.0862833,16.593405 14.2041167,17.1874813 13.19825,17.617169 C12.1923833,18.0468563 11.1132833,18.2617 9.96095,18.2617 Z M5.42968,9.96092 C5.42968,10.1952933 5.50780667,10.38735 5.66406,10.53709 C5.82030667,10.68683 6.02213,10.7617 6.26953,10.7617 L9.14065,10.7617 L9.14065,13.64256 C9.14065,13.8899533 9.21551667,14.09015 9.36525,14.24315 C9.51498333,14.3961433 9.70705,14.47264 9.94145,14.47264 C10.1887833,14.47264 10.38895,14.3961433 10.54195,14.24315 C10.69495,14.09015 10.77145,13.8899533 10.77145,13.64256 L10.77145,10.7617 L13.65235,10.7617 C13.89975,10.7617 14.09995,10.68683 14.25295,10.53709 C14.40595,10.38735 14.48245,10.1952933 14.48245,9.96092 C14.48245,9.71352 14.40595,9.51332333 14.25295,9.36033 C14.09995,9.20733667 13.89975,9.13084 13.65235,9.13084 L10.77145,9.13084 L10.77145,6.2597 C10.77145,6.00583333 10.69495,5.8024 10.54195,5.6494 C10.38895,5.4964 10.1887833,5.4199 9.94145,5.4199 C9.70705,5.4199 9.51498333,5.49803333 9.36525,5.6543 C9.21551667,5.81056667 9.14065,6.01236667 9.14065,6.2597 L9.14065,9.13084 L6.26953,9.13084 C6.01562333,9.13084 5.81217333,9.20733667 5.65918,9.36033 C5.50618,9.51332333 5.42968,9.71352 5.42968,9.96092 Z" id="Shape"></path>
                </g>
                <g id="Group" transform="translate(307.901860, 1913.224600)" fill="#000000" fill-rule="nonzero">
                    <path d="M12.71484,25.43946 C14.10804,25.43946 15.4378067,25.22299 16.70414,24.79005 C17.9704067,24.3571033 19.13414,23.7500067 20.19534,22.96876 C21.25654,22.1875067 22.1793733,21.2662827 22.96384,20.205088 C23.7483733,19.1438893 24.3571067,17.9785233 24.79004,16.70899 C25.2229733,15.4394633 25.43944,14.11134 25.43944,12.72462 C25.43944,11.3313933 25.2229733,10.0016533 24.79004,8.7354 C24.3571067,7.46906667 23.7483733,6.30533333 22.96384,5.2442 C22.1793733,4.183 21.25654,3.26013333 20.19534,2.4756 C19.13414,1.69106667 17.9687733,1.08233333 16.69924,0.6494 C15.4297067,0.216466667 14.0983067,0 12.70504,0 C11.31184,0 9.98210667,0.216466667 8.71584,0.6494 C7.44955333,1.08233333 6.28743667,1.69106667 5.22949,2.4756 C4.17155,3.26013333 3.25032667,4.183 2.46582,5.2442 C1.68131333,6.30533333 1.07421667,7.46906667 0.64453,8.7354 C0.214843333,10.0016533 0,11.3313933 0,12.72462 C0,14.11134 0.21647,15.4394633 0.64941,16.70899 C1.08235667,17.9785233 1.68945333,19.1438893 2.4707,20.205088 C3.25195333,21.2662827 4.17317667,22.1875067 5.23437,22.96876 C6.29557,23.7500067 7.45929333,24.3571033 8.72554,24.79005 C9.99187333,25.22299 11.32164,25.43946 12.71484,25.43946 Z M12.71484,23.62306 C11.51044,23.62306 10.3629733,23.43914 9.27244,23.0713 C8.18196,22.70346 7.18424667,22.18751 6.2793,21.52345 C5.37434667,20.8593853 4.58821333,20.0732513 3.9209,19.165048 C3.25358,18.2568427 2.73763,17.2574933 2.37305,16.167 C2.00846333,15.0765067 1.82617,13.9290467 1.82617,12.72462 C1.82617,11.51368 2.00846333,10.3629733 2.37305,9.2725 C2.73763,8.18196667 3.25195333,7.1826 3.91602,6.2744 C4.58008,5.3662 5.36458333,4.58006667 6.26953,3.916 C7.17447667,3.25193333 8.17221333,2.73763333 9.26274,2.3731 C10.3532067,2.0085 11.50064,1.8262 12.70504,1.8262 C13.9159733,1.8262 15.0667067,2.0085 16.15724,2.3731 C17.2477067,2.73763333 18.24704,3.25193333 19.15524,3.916 C20.06344,4.58006667 20.8495733,5.3662 21.51364,6.2744 C22.1777067,7.1826 22.6936733,8.18196667 23.06154,9.2725 C23.42934,10.3629733 23.6134125,11.51368 23.6134125,12.72462 C23.6197733,13.9290467 23.44074,15.0765067 23.07614,16.167 C22.7116067,17.2574933 22.1956733,18.2568427 21.52834,19.165048 C20.8610067,20.0732513 20.07324,20.8593853 19.16504,21.52345 C18.25684,22.18751 17.2575067,22.70346 16.16704,23.0713 C15.0765067,23.43914 13.9257733,23.62306 12.71484,23.62306 Z M6.94336,12.72462 C6.94336,12.9785267 7.02962333,13.1884867 7.20215,13.3545 C7.37467667,13.5205133 7.59440667,13.60352 7.86134,13.60352 L11.80664,13.60352 L11.80664,17.5586 C11.80664,17.8255267 11.88964,18.0452533 12.05564,18.21778 C12.22164,18.3903067 12.4348733,18.47657 12.69534,18.47657 C12.9622733,18.47657 13.1820067,18.3919367 13.35454,18.22267 C13.5270067,18.0533967 13.61324,17.83204 13.61324,17.5586 L13.61324,13.60352 L17.56834,13.60352 C17.8352733,13.60352 18.0533733,13.5205133 18.22264,13.3545 C18.3919067,13.1884867 18.47654,12.9785267 18.47654,12.72462 C18.47654,12.45118 18.3919067,12.2298267 18.22264,12.06056 C18.0533733,11.8912867 17.8352733,11.80665 17.56834,11.80665 L13.61324,11.80665 L13.61324,7.8613 C13.61324,7.5879 13.5270067,7.36493333 13.35454,7.1924 C13.1820067,7.01986667 12.9622733,6.9336 12.69534,6.9336 C12.4348733,6.9336 12.22164,7.01986667 12.05564,7.1924 C11.88964,7.36493333 11.80664,7.5879 11.80664,7.8613 L11.80664,11.80665 L7.86134,11.80665 C7.58789333,11.80665 7.36653333,11.8912867 7.19726,12.06056 C7.02799333,12.2298267 6.94336,12.45118 6.94336,12.72462 Z" id="Shape"></path>
                </g>
                <text id="Design-Variations" fill="#000000" fill-rule="nonzero" font-family="Helvetica" font-size="13" font-weight="normal">
                    <tspan x="263" y="1953">Design Variations</tspan>
                </text>
                <text id="Symbols-are-supported-in-up-to-nine-weights-and-three-scales." fill="#000000" fill-rule="nonzero" font-family="Helvetica" font-size="13" font-weight="normal">
                    <tspan x="263" y="1971">Symbols are supported in up to nine weights and three scales.</tspan>
                </text>
                <text id="For-optimal-layout-with-text-and-other-symbols,-vertically-align" fill="#000000" fill-rule="nonzero" font-family="Helvetica" font-size="13" font-weight="normal">
                    <tspan x="263" y="1989">For optimal layout with text and other symbols, vertically align</tspan>
                </text>
                <text id="symbols-with-the-adjacent-text." fill="#000000" fill-rule="nonzero" font-family="Helvetica" font-size="13" font-weight="normal">
                    <tspan x="263" y="2007">symbols with the adjacent text.</tspan>
                </text>
                <line x1="776" y1="1919" x2="776" y2="1933" id="Path" stroke="#00AEEF" stroke-width="0.5"></line>
                <g id="Group" transform="translate(778.490230, 1918.732400)" fill="#000000" fill-rule="nonzero">
                    <path d="M0.82032,14.42385 C1.08073333,14.42385 1.28255667,14.3685115 1.42579,14.2578344 C1.56901667,14.1471575 1.68620333,13.9551 1.77735,13.681662 L3.03711,10.2344 L8.79887,10.2344 L10.05857,13.681662 C10.1497033,13.9551 10.2669033,14.1471575 10.41017,14.2578344 C10.55337,14.3685115 10.7519367,14.42385 11.00587,14.42385 C11.26627,14.42385 11.47297,14.3522354 11.62597,14.2090062 C11.77897,14.0657767 11.85547,13.8704643 11.85547,13.623069 C11.85547,13.473329 11.81967,13.297546 11.74807,13.09572 L7.16797,0.8985 C7.05078333,0.598966667 6.89128,0.374333333 6.68946,0.2246 C6.48763333,0.0748666667 6.23047,0 5.91797,0 C5.31250333,0 4.90234667,0.296233333 4.6875,0.8887 L0.10743,13.10549 C0.03581,13.3073133 -4.4408921e-16,13.4830947 -4.4408921e-16,13.632834 C-4.4408921e-16,13.88023 0.0732433333,14.073915 0.21973,14.2138891 C0.366216667,14.353863 0.566413333,14.42385 0.82032,14.42385 Z M3.51563,8.75002 L5.88868,2.1778 L5.9375,2.1778 L8.31057,8.75002 L3.51563,8.75002 Z" id="Shape"></path>
                </g>
                <line x1="793.197" y1="1919" x2="793.197" y2="1933" id="Path" stroke="#00AEEF" stroke-width="0.5"></line>
                <text id="Margins" fill="#000000" fill-rule="nonzero" font-family="Helvetica" font-size="13" font-weight="normal">
                    <tspan x="776" y="1953">Margins</tspan>
                </text>
                <text id="Leading-and-trailing-margins-on-the-left-and-right-side-of-each-symbol" fill="#000000" fill-rule="nonzero" font-family="Helvetica" font-size="13" font-weight="normal">
                    <tspan x="776" y="1971">Leading and trailing margins on the left and right side of each symbol</tspan>
                </text>
                <text id="can-be-adjusted-by-modifying-the-x-location-of-the-margin-guidelines." fill="#000000" fill-rule="nonzero" font-family="Helvetica" font-size="13" font-weight="normal">
                    <tspan x="776" y="1989">can be adjusted by modifying the x-location of the margin guidelines.</tspan>
                </text>
                <text id="Modifications-are-automatically-applied-proportionally-to-all" fill="#000000" fill-rule="nonzero" font-family="Helvetica" font-size="13" font-weight="normal">
                    <tspan x="776" y="2007">Modifications are automatically applied proportionally to all</tspan>
                </text>
                <text id="scales-and-weights." fill="#000000" fill-rule="nonzero" font-family="Helvetica" font-size="13" font-weight="normal">
                    <tspan x="776" y="2025">scales and weights.</tspan>
                </text>
                <g id="Group" transform="translate(1291.246849, 1914.517550)" fill="#000000" fill-rule="nonzero">
                    <path d="M0.594951479,20.3476805 L2.29417148,22.0566705 C2.72385815,22.4928705 3.17795815,22.6946938 3.65647148,22.6621405 C4.13498481,22.6295872 4.60536148,22.3561505 5.06760148,21.8418305 L15.7609515,10.0547205 L14.7941515,9.07815049 L4.17893148,20.7578405 C4.00315148,20.9596605 3.82574148,21.0735938 3.64670148,21.0996405 C3.46766815,21.1256805 3.26096481,21.0215138 3.02659148,20.7871405 L1.85471148,19.6250305 C1.62033815,19.3906545 1.51780148,19.1839482 1.54710148,19.0049115 C1.57639481,18.8258748 1.69195148,18.6452108 1.89377148,18.4629193 L13.3683515,7.66215049 L12.3918515,6.69535049 L0.800031479,17.5840125 C0.305238146,18.0397418 0.039938146,18.5052368 0.00413147929,18.9804975 C-0.0316751874,19.4557595 0.165264813,19.9114872 0.594951479,20.3476805 Z M7.01096148,2.15435049 C6.80262815,2.35615049 6.68544148,2.58725049 6.65940148,2.84765049 C6.63336148,3.10811716 6.67893481,3.33598382 6.79612148,3.53125049 C6.91330815,3.71358382 7.08420481,3.85031716 7.30881148,3.94145049 C7.53342481,4.03258382 7.80850481,4.03908382 8.13405148,3.96095049 C8.86318481,3.79168382 9.60211815,3.72171716 10.3508515,3.75105049 C11.0995181,3.78031716 11.8319181,4.02931716 12.5480515,4.49805049 L11.9621515,5.95315049 C11.7928848,6.36981716 11.7456848,6.73278382 11.8205515,7.04205049 C11.8954181,7.35125049 12.0663181,7.64258382 12.3332515,7.91605049 L14.6281515,10.2305005 C14.8690181,10.4778938 15.1033848,10.6211205 15.3312515,10.6601805 C15.5591181,10.6992472 15.8130181,10.6927372 16.0929515,10.6406505 L17.1574515,10.4453405 L17.8215515,11.1191705 L17.7824515,11.6758105 C17.7629181,11.9232038 17.7938515,12.1510672 17.8752515,12.3594005 C17.9565848,12.5677338 18.1177181,12.7923438 18.3586515,13.0332305 L19.1203515,13.7754205 C19.3612181,14.0163072 19.6232515,14.1416338 19.9064515,14.1514005 C20.1896515,14.1611605 20.4484515,14.0488538 20.6828515,13.8144805 L23.5929515,10.8945605 C23.8273515,10.6601872 23.9412848,10.4046538 23.9347515,10.1279605 C23.9282848,9.85126716 23.8045848,9.59247716 23.5636515,9.35159049 L22.7922515,8.58987049 C22.5578515,8.34899049 22.3381181,8.18461716 22.1330515,8.09675049 C21.9279848,8.00881716 21.7049848,7.97461716 21.4640515,7.99415049 L20.8879515,8.04295049 L20.2433515,7.40825049 L20.4875515,6.28515049 C20.5526181,6.00521716 20.5395848,5.74318382 20.4484515,5.49905049 C20.3573181,5.25491716 20.1652515,4.98635049 19.8722515,4.69335049 L17.6750515,2.50585049 C16.8417181,1.67905049 15.9546515,1.05895049 15.0138515,0.64555049 C14.0731181,0.23215049 13.1258515,0.0173171567 12.1720515,0.00105049002 C11.2183181,-0.0152828433 10.3003515,0.15885049 9.41815148,0.52345049 C8.53601815,0.88805049 7.73362148,1.43168382 7.01096148,2.15435049 Z M8.50515148,2.52545049 C9.11061815,2.08271716 9.76001815,1.76695049 10.4533515,1.57815049 C11.1466848,1.38935049 11.8481848,1.32911716 12.5578515,1.39745049 C13.2674515,1.46585049 13.9559181,1.65628382 14.6232515,1.96875049 C15.2905848,2.28128382 15.9009515,2.71748382 16.4543515,3.27735049 L18.8859515,5.68945049 C19.0031515,5.80665049 19.0763848,5.92058382 19.1056515,6.03125049 C19.1349848,6.14191716 19.1301181,6.28191716 19.0910515,6.45125049 L18.7687515,7.93555049 L20.2726515,9.41995049 L21.2590515,9.36136049 C21.3827181,9.35484716 21.4771181,9.36298382 21.5422515,9.38577049 C21.6073181,9.40855716 21.6886848,9.46877716 21.7863515,9.56643049 L22.3625515,10.1426105 L19.9211515,12.5840105 L19.3449515,12.0078405 C19.2472848,11.9101872 19.1854181,11.8288072 19.1593515,11.7637005 C19.1333515,11.6985938 19.1236181,11.6009372 19.1301515,11.4707305 L19.1984515,10.4941705 L17.7043515,9.00979049 L16.1808515,9.26370049 C16.0181181,9.29625382 15.8895515,9.30113716 15.7951515,9.27835049 C15.7007515,9.25556382 15.5916848,9.18557716 15.4679515,9.06839049 L13.4660515,7.06645049 C13.3358515,6.94925049 13.2626181,6.83695049 13.2463515,6.72955049 C13.2300848,6.62208382 13.2609848,6.47721716 13.3390515,6.29495049 L14.2179515,4.20515049 C13.4367515,3.47595049 12.5578515,2.97138382 11.5812515,2.69145049 C10.6047181,2.41151716 9.60861815,2.42128382 8.59295148,2.72075049 C8.51488481,2.74028382 8.46445148,2.72561716 8.44165148,2.67675049 C8.41885148,2.62795049 8.44001815,2.57751716 8.50515148,2.52545049 Z" id="Shape"></path>
                </g>
                <text id="Exporting" fill="#000000" fill-rule="nonzero" font-family="Helvetica" font-size="13" font-weight="normal">
                    <tspan x="1289" y="1953">Exporting</tspan>
                </text>
                <text id="Symbols-should-be-outlined-when-exporting-to-ensure-the" fill="#000000" fill-rule="nonzero" font-family="Helvetica" font-size="13" font-weight="normal">
                    <tspan x="1289" y="1971">Symbols should be outlined when exporting to ensure the</tspan>
                </text>
                <text id="design-is-preserved-when-submitting-to-Xcode." fill="#000000" fill-rule="nonzero" font-family="Helvetica" font-size="13" font-weight="normal">
                    <tspan x="1289" y="1989">design is preserved when submitting to Xcode.</tspan>
                </text>
                <text id="template-version" fill="#000000" fill-rule="nonzero" font-family="Helvetica" font-size="13" font-weight="normal">
                    <tspan x="2952" y="1933">Template v.3.0</tspan>
                </text>
                <text id="Requires-Xcode-13-or-greater" fill="#000000" fill-rule="nonzero" font-family="Helvetica" font-size="13" font-weight="normal">
                    <tspan x="2865" y="1951">Requires Xcode 13 or greater</tspan>
                </text>
                <text id="descriptive-name" fill="#000000" fill-rule="nonzero" font-family="Helvetica" font-size="13" font-weight="normal">
                    <tspan x="2892" y="1969">Generated from 25.circle</tspan>
                </text>
                <text id="Typeset-at-100-points" fill="#000000" fill-rule="nonzero" font-family="Helvetica" font-size="13" font-weight="normal">
                    <tspan x="2912" y="1987">Typeset at 100 points</tspan>
                </text>
                <text id="Small" fill="#000000" fill-rule="nonzero" font-family="Helvetica" font-size="13" font-weight="normal">
                    <tspan x="263" y="726">Small</tspan>
                </text>
                <text id="Medium" fill="#000000" fill-rule="nonzero" font-family="Helvetica" font-size="13" font-weight="normal">
                    <tspan x="263" y="1156">Medium</tspan>
                </text>
                <text id="Large" fill="#000000" fill-rule="nonzero" font-family="Helvetica" font-size="13" font-weight="normal">
                    <tspan x="263" y="1586">Large</tspan>
                </text>
            </g>
            <g id="Guides" transform="translate(263.000000, 600.785000)">
                <g id="H-reference" transform="translate(76.993347, 24.756000)" fill="#27AAE1" fill-rule="nonzero">
                    <path d="M0,70.459 L2.644353,70.459 L28.334853,3.3264 L29.036753,3.3264 L29.036753,0 L27.129353,0 L0,70.459 Z M10.694853,45.9793 L45.988453,45.9793 L45.237753,43.7302 L11.444853,43.7302 L10.694853,45.9793 Z M54.125953,70.459 L56.770353,70.459 L29.644753,0 L28.439353,0 L28.439353,3.3264 L54.125953,70.459 Z" id="Shape"></path>
                </g>
                <line x1="0" y1="95.215" x2="2773" y2="95.215" id="Baseline-S" stroke="#27AAE1" stroke-width="0.5"></line>
                <line x1="0" y1="24.756" x2="2773" y2="24.756" id="Capline-S" stroke="#27AAE1" stroke-width="0.5"></line>
                <g id="H-reference" transform="translate(76.993347, 454.756000)" fill="#27AAE1" fill-rule="nonzero">
                    <path d="M0,70.459 L2.644353,70.459 L28.334853,3.3264 L29.036753,3.3264 L29.036753,0 L27.129353,0 L0,70.459 Z M10.694853,45.9793 L45.988453,45.9793 L45.237753,43.7302 L11.444853,43.7302 L10.694853,45.9793 Z M54.125953,70.459 L56.770353,70.459 L29.644753,0 L28.439353,0 L28.439353,3.3264 L54.125953,70.459 Z" id="Shape"></path>
                </g>
                <line x1="0" y1="525.215" x2="2773" y2="525.215" id="Baseline-M" stroke="#27AAE1" stroke-width="0.5"></line>
                <line x1="0" y1="454.755" x2="2773" y2="454.755" id="Capline-M" stroke="#27AAE1" stroke-width="0.5"></line>
                <g id="H-reference" transform="translate(76.993347, 884.756000)" fill="#27AAE1" fill-rule="nonzero">
                    <path d="M0,70.459 L2.644353,70.459 L28.334853,3.3264 L29.036753,3.3264 L29.036753,0 L27.129353,0 L0,70.459 Z M10.694853,45.9793 L45.988453,45.9793 L45.237753,43.7302 L11.444853,43.7302 L10.694853,45.9793 Z M54.125953,70.459 L56.770353,70.459 L29.644753,0 L28.439353,0 L28.439353,3.3264 L54.125953,70.459 Z" id="Shape"></path>
                </g>
                <line x1="0" y1="955.215" x2="2773" y2="955.215" id="Baseline-L" stroke="#27AAE1" stroke-width="0.5"></line>
                <line x1="0" y1="884.755" x2="2773" y2="884.755" id="Capline-L" stroke="#27AAE1" stroke-width="0.5"></line>
                <line x1="252.649" y1="1.13686838e-13" x2="252.649" y2="119.336" id="left-margin-Ultralight-S" stroke="#00AEEF" stroke-width="0.5"></line>
                <line x1="340.773" y1="1.13686838e-13" x2="340.773" y2="119.336" id="right-margin-Ultralight-S" stroke="#00AEEF" stroke-width="0.5"></line>
                <line x1="1140.58" y1="1.13686838e-13" x2="1140.58" y2="119.336" id="left-margin-Regular-S" stroke="#00AEEF" stroke-width="0.5"></line>
                <line x1="1233.11" y1="1.13686838e-13" x2="1233.11" y2="119.336" id="right-margin-Regular-S" stroke="#00AEEF" stroke-width="0.5"></line>
                <line x1="2621.57" y1="1.13686838e-13" x2="2621.57" y2="119.336" id="left-margin-Black-S" stroke="#00AEEF" stroke-width="0.5"></line>
                <line x1="2719.23" y1="1.13686838e-13" x2="2719.23" y2="119.336" id="right-margin-Black-S" stroke="#00AEEF" stroke-width="0.5"></line>
            </g>
            <g id="Symbols" transform="translate(522.484940, 618.802700)" fill="#000000" fill-rule="nonzero">
                <g id="Black-S" transform="translate(2368.921000, 0.000000)">
                    <path d="M41.99216,83.98441 C47.7864267,83.98441 53.2144933,82.8939133 58.27636,80.71292 C63.3382267,78.531934 67.79786,75.5127307 71.65526,71.65531 C75.51266,67.7979033 78.53186,63.3382667 80.71286,58.2764 C82.89386,53.2145333 83.98436,47.7864667 83.98436,41.9922 C83.98436,36.1979333 82.89386,30.7698667 80.71286,25.708 C78.53186,20.6462 75.51266,16.1865667 71.65526,12.3291 C67.79786,8.4717 63.3382267,5.4525 58.27636,3.2715 C53.2144933,1.0905 47.7864267,0 41.99216,0 C36.1978933,0 30.7698267,1.0905 25.70796,3.2715 C20.64616,5.4525 16.1865267,8.4717 12.32906,12.3291 C8.47166,16.1865667 5.45246,20.6462 3.27146,25.708 C1.09048667,30.7698667 -8.8817842e-16,36.1979333 -8.8817842e-16,41.9922 C-8.8817842e-16,47.7864667 1.09048667,53.2145333 3.27146,58.2764 C5.45246,63.3382667 8.47166,67.7979033 12.32906,71.65531 C16.1865267,75.5127307 20.64616,78.531934 25.70796,80.71292 C30.7698267,82.8939133 36.1978933,83.98441 41.99216,83.98441 Z M41.99216,69.82425 C38.1510267,69.82425 34.5458933,69.0999667 31.17676,67.6514 C27.8076267,66.2028 24.8535267,64.209 22.31446,61.67 C19.7753933,59.1309333 17.78156,56.1768333 16.33296,52.8077 C14.8844267,49.4385 14.16016,45.8333333 14.16016,41.9922 C14.16016,38.1510667 14.8844267,34.5459333 16.33296,31.1768 C17.78156,27.8076667 19.7753933,24.8535667 22.31446,22.3145 C24.8535267,19.7754333 27.8076267,17.7816 31.17676,16.333 C34.5458933,14.8844667 38.1510267,14.1602 41.99216,14.1602 C45.8332933,14.1602 49.43846,14.8844667 52.80766,16.333 C56.1767933,17.7816 59.1308933,19.7754333 61.66996,22.3145 C64.2090267,24.8535667 66.2028267,27.8076667 67.65136,31.1768 C69.09996,34.5459333 69.82426,38.1510667 69.82426,41.9922 C69.82426,45.8333333 69.09996,49.4385 67.65136,52.8077 C66.2028267,56.1768333 64.2090267,59.1309333 61.66996,61.67 C59.1308933,64.209 56.1767933,66.2028 52.80766,67.6514 C49.43846,69.0999667 45.8332933,69.82425 41.99216,69.82425 Z M48.53516,55.7129 L58.78906,55.7129 C59.9609933,55.7129 60.8805933,55.3874 61.54786,54.7364 C62.2151933,54.0853333 62.54886,53.1738667 62.54886,52.002 C62.54886,50.8626667 62.2151933,49.9837667 61.54786,49.3653 C60.8805933,48.7467667 59.9609933,48.4375 58.78906,48.4375 L54.63866,48.4375 L54.63866,48.0957 L57.51956,44.7266 C58.9518267,43.099 60.00976,41.6097333 60.69336,40.2588 C61.37696,38.9079333 61.7024933,37.4512333 61.66996,35.8887 C61.6374267,33.5124333 60.8643267,31.5511667 59.35066,30.0049 C57.8369933,28.4587 55.7617933,27.6856 53.12506,27.6856 C51.0417267,27.6856 49.2025267,28.2227 47.60746,29.2969 C46.0123933,30.3711 44.95446,31.8196667 44.43366,33.6426 C44.3359933,33.9681333 44.2627267,34.2855333 44.21386,34.5948 C44.16506,34.904 44.14066,35.2376333 44.14066,35.5957 C44.14066,36.5397667 44.4336267,37.3210333 45.01956,37.9395 C45.6054933,38.5579667 46.38676,38.8672 47.36336,38.8672 C48.30736,38.8672 49.03976,38.6393333 49.56056,38.1836 C50.0814267,37.7278667 50.4394933,37.1745 50.63476,36.5235 C50.79756,36.0026333 51.0661267,35.5794333 51.44046,35.2539 C51.8147933,34.9284333 52.2623933,34.7657 52.78326,34.7657 C53.33666,34.7657 53.8167933,34.9447333 54.22366,35.3028 C54.6305933,35.6608667 54.83406,36.0840333 54.83406,36.5723 C54.83406,37.2884333 54.5898933,37.9720333 54.10156,38.6231 C53.6132933,39.2741 52.9459933,40.0879 52.09966,41.0645 L46.72856,47.3633 C45.3938933,48.9258333 44.72656,50.4395 44.72656,51.9043 C44.72656,53.0761667 45.1009267,54.0039 45.84966,54.6875 C46.5983267,55.3711 47.4934933,55.7129 48.53516,55.7129 Z M31.5452827,56.2012 C34.7679493,56.2012 37.266316,55.2734667 39.0403827,53.418 C40.814516,51.5625333 41.7015827,49.0723 41.7015827,45.9473 C41.7015827,43.2455 40.9528827,41.1947333 39.4554827,39.795 C37.9580827,38.3952 36.2653493,37.6953 34.3772827,37.6953 C33.368216,37.6953 32.4404827,37.9069 31.5940827,38.3301 C30.7477493,38.7533 30.0478827,39.3718 29.4944827,40.1856 L29.3968827,40.1856 L29.7874827,34.7657 L37.3558827,34.7657 C38.4300827,34.7657 39.276416,34.4808667 39.8948827,33.9112 C40.513416,33.3415333 40.8226827,32.5195667 40.8226827,31.4453 C40.8226827,29.2643667 39.6670827,28.1739 37.3558827,28.1739 L27.1019827,28.1739 C24.7256493,28.1739 23.456116,29.6224667 23.2933827,32.5196 L22.8538827,41.5039 C22.8213493,42.7083667 23.1305827,43.6524 23.7815827,44.336 C24.4326493,45.0196 25.3115827,45.3614 26.4183827,45.3614 C27.3298493,45.3614 28.029716,45.2637333 28.5179827,45.0684 C29.0062493,44.8730667 29.4131493,44.6614667 29.7386827,44.4336 C30.194416,44.1406667 30.5931827,43.9128 30.9349827,43.75 C31.2767827,43.5872667 31.691816,43.5059 32.1800827,43.5059 C32.8636827,43.5059 33.4414827,43.7907333 33.9134827,44.3604 C34.3854827,44.9300667 34.6214827,45.6055333 34.6214827,46.3868 C34.6214827,47.2656667 34.3773493,48.0062 33.8890827,48.6084 C33.4007493,49.2106667 32.7659827,49.5118 31.9847827,49.5118 C31.3011827,49.5118 30.772216,49.3409 30.3978827,48.9991 C30.0234827,48.6573 29.624716,48.3399 29.2015827,48.0469 C28.8760493,47.7865 28.526116,47.4691333 28.1517827,47.0948 C27.7773827,46.7204 27.167016,46.5332 26.3206827,46.5332 C25.4743493,46.5332 24.7256493,46.8506 24.0745827,47.4854 C23.423516,48.1201333 23.0979827,48.9258 23.0979827,49.9024 C23.0979827,50.2279333 23.122416,50.5534333 23.1712827,50.8789 C23.2200827,51.2044333 23.3421493,51.5625333 23.5374827,51.9532 C23.993216,52.8646 24.912816,53.8004667 26.2962827,54.7608 C27.6797493,55.7210667 29.429416,56.2012 31.5452827,56.2012 Z" id="Shape"></path>
                </g>
                <g id="Regular-S" transform="translate(887.931000, 2.539100)">
                    <path d="M39.40426,78.80859 C44.8079267,78.80859 49.88606,77.7832 54.63866,75.73242 C59.39126,73.68164 63.58236,70.8333333 67.21196,67.1875 C70.8414933,63.5416333 73.6897933,59.3424 75.75686,54.5898 C77.8239267,49.8372 78.85746,44.7753667 78.85746,39.4043 C78.85746,34.0332333 77.8239267,28.9713667 75.75686,24.2187 C73.6897933,19.4661 70.8333267,15.2669 67.18746,11.6211 C63.54166,7.97523333 59.34246,5.12693333 54.58986,3.0762 C49.83726,1.0254 44.7591267,0 39.35546,0 C33.9843933,0 28.92256,1.0254 24.16996,3.0762 C19.41736,5.12693333 15.2343933,7.97523333 11.62106,11.6211 C8.00779333,15.2669 5.16763333,19.4661 3.10058,24.2187 C1.03352667,28.9713667 -8.8817842e-16,34.0332333 -8.8817842e-16,39.4043 C-8.8817842e-16,44.7753667 1.03352667,49.8372 3.10058,54.5898 C5.16763333,59.3424 8.01592667,63.5416333 11.64546,67.1875 C15.27506,70.8333333 19.46616,73.68164 24.21876,75.73242 C28.97136,77.7832 34.0331933,78.80859 39.40426,78.80859 Z M39.40426,71.38672 C34.9771933,71.38672 30.83496,70.56478 26.97756,68.9209 C23.1200933,67.27702 19.73466,64.99022 16.82126,62.0605 C13.90786,59.1308333 11.6292267,55.7291667 9.98536,51.8555 C8.34149333,47.9817667 7.51956,43.8313667 7.51956,39.4043 C7.51956,34.9772333 8.33336,30.8268333 9.96096,26.9531 C11.58856,23.0794333 13.85906,19.6777333 16.77246,16.748 C19.68586,13.8183333 23.07126,11.5315667 26.92866,9.8877 C30.7861267,8.24383333 34.9283933,7.4219 39.35546,7.4219 C43.8151267,7.4219 47.97366,8.24383333 51.83106,9.8877 C55.68846,11.5315667 59.0820267,13.8183333 62.01176,16.748 C64.9414267,19.6777333 67.2363267,23.0794333 68.89646,26.9531 C70.55666,30.8268333 71.38676,34.9772333 71.38676,39.4043 C71.38676,43.8313667 70.5647933,47.9817667 68.92086,51.8555 C67.2769933,55.7291667 64.99836,59.1308333 62.08496,62.0605 C59.17156,64.99022 55.7779933,67.27702 51.90426,68.9209 C48.0305933,70.56478 43.8639267,71.38672 39.40426,71.38672 Z M45.36136,55.0781 L61.03516,55.0781 C61.71876,55.0781 62.2884267,54.8421 62.74416,54.3701 C63.1998933,53.8981 63.42776,53.2714667 63.42776,52.4902 C63.42776,51.709 63.1998933,51.0986667 62.74416,50.6592 C62.2884267,50.2197333 61.71876,50 61.03516,50 L50.68366,50 L50.68366,49.707 L57.71486,41.6016 C59.0495267,40.0390667 60.2051267,38.4847 61.18166,36.9385 C62.15826,35.3922333 62.64656,33.6262667 62.64656,31.6406 C62.64656,28.9388 61.7350933,26.7903667 59.91216,25.1953 C58.0892267,23.6002333 55.6478267,22.8027 52.58796,22.8027 C50.3418267,22.8027 48.3073267,23.4456 46.48446,24.7314 C44.6615267,26.0172667 43.4896267,27.6204667 42.96876,29.541 C42.9036933,29.8014 42.8548933,30.0455333 42.82236,30.2734 C42.78976,30.5012667 42.77346,30.7454333 42.77346,31.0059 C42.77346,31.7871 42.98506,32.4055667 43.40826,32.8613 C43.83146,33.3170333 44.4011267,33.5449 45.11726,33.5449 C45.7357267,33.5449 46.2239933,33.374 46.58206,33.0322 C46.9401267,32.6904 47.26566,32.2102667 47.55866,31.5918 C48.11206,30.2246 48.82006,29.2317667 49.68266,28.6133 C50.54526,27.9947667 51.59506,27.6855 52.83206,27.6855 C54.2317933,27.6855 55.35486,28.1005667 56.20126,28.9307 C57.0475933,29.7607667 57.47076,30.8268333 57.47076,32.1289 C57.47076,33.3984333 57.0394267,34.5703 56.17676,35.6445 C55.31416,36.7187667 54.4596933,37.7604333 53.61336,38.7695 L43.84766,50.293 C43.2291933,50.944 42.91996,51.6927 42.91996,52.5391 C42.91996,53.3203 43.1396933,53.9387667 43.57916,54.3945 C44.0186267,54.8502333 44.6126933,55.0781 45.36136,55.0781 Z M27.14836,56.0059 C30.56636,56.0059 33.3170267,55.0374667 35.40036,53.1006 C37.4836933,51.1637333 38.52536,48.4863333 38.52536,45.0684 C38.52536,42.1061333 37.6138933,39.6565667 35.79096,37.7197 C33.9680267,35.7828333 31.57546,34.8144 28.61326,34.8144 C27.37626,34.8144 26.1636933,35.0911 24.97556,35.6445 C23.78736,36.1979 22.93286,36.8652333 22.41206,37.6465 L22.21676,37.6465 L22.90036,28.5156 L35.25386,28.5156 C35.8397933,28.5156 36.32806,28.2877333 36.71866,27.832 C37.1093267,27.3762667 37.30466,26.7903333 37.30466,26.0742 C37.30466,24.5117333 36.62106,23.7305 35.25386,23.7305 L22.41206,23.7305 C19.9381267,23.7305 18.6360267,24.9349 18.50576,27.3437 L17.57806,38.7207 C17.5129933,39.8600333 17.7571267,40.7633667 18.31046,41.4307 C18.86386,42.0979667 19.62886,42.4316 20.60546,42.4316 C21.25646,42.4316 21.8342267,42.3339667 22.33876,42.1387 C22.84336,41.9433667 23.43746,41.5527333 24.12106,40.9668 C24.8371933,40.4134 25.4800933,40.0146333 26.04976,39.7705 C26.6194267,39.5263667 27.2785933,39.4043 28.02726,39.4043 C29.5571933,39.4043 30.8023267,39.9576667 31.76266,41.0644 C32.7229267,42.1712 33.20306,43.5384 33.20306,45.166 C33.20306,47.0866 32.66596,48.5677333 31.59176,49.6094 C30.51756,50.6510667 29.1178267,51.1719 27.39256,51.1719 C26.2206267,51.1719 25.1545267,50.8789333 24.19426,50.293 C23.2339933,49.7070667 22.4608933,48.8769667 21.87496,47.8027 C21.5494267,47.2167667 21.17506,46.7692 20.75186,46.46 C20.3287267,46.1507333 19.8892933,45.9961 19.43356,45.9961 C18.6848267,45.9961 18.0907267,46.2402333 17.65126,46.7285 C17.21186,47.2167667 16.99216,47.819 16.99216,48.5352 C16.99216,48.8932667 17.0246933,49.2350333 17.08976,49.5605 C17.1548933,49.8860333 17.25256,50.179 17.38276,50.4394 C17.93616,52.0019333 19.1080267,53.3203 20.89836,54.3945 C22.68876,55.4687667 24.7720933,56.0059 27.14836,56.0059 Z" id="Shape"></path>
                </g>
                <g id="Ultralight-S" transform="translate(0.000000, 4.736400)">
                    <path d="M37.20706,74.41402 C42.35026,74.41402 47.1598267,73.4537353 51.63576,71.533166 C56.1116267,69.6125953 60.0666933,66.9351867 63.50096,63.50094 C66.9352267,60.0667133 69.6207933,56.1116333 71.55766,51.6357 C73.49446,47.1597667 74.46286,42.3502 74.46286,37.207 C74.46286,32.0637333 73.49446,27.2541667 71.55766,22.7783 C69.6207933,18.3023667 66.9352267,14.3472667 63.50096,10.913 C60.0666933,7.4788 56.1116267,4.8014 51.63576,2.8808 C47.1598267,0.960266667 42.35026,0 37.20706,0 C32.0963933,0 27.29496,0.960266667 22.80276,2.8808 C18.31056,4.8014 14.35546,7.4788 10.93746,10.913 C7.51952667,14.3472667 4.84213,18.3023667 2.90527,22.7783 C0.968423333,27.2541667 -8.8817842e-16,32.0637333 -8.8817842e-16,37.207 C-8.8817842e-16,42.3502 0.968423333,47.1597667 2.90527,51.6357 C4.84213,56.1116333 7.51952667,60.0667133 10.93746,63.50094 C14.35546,66.9351867 18.31056,69.6125953 22.80276,71.533166 C27.29496,73.4537353 32.0963933,74.41402 37.20706,74.41402 Z M37.20706,72.167931 C32.3893267,72.167931 27.8645933,71.2646107 23.63286,69.45797 C19.40106,67.65133 15.68196,65.1448067 12.47556,61.9384 C9.26922667,58.7320667 6.75459333,55.013 4.93166,50.7812 C3.10872667,46.5494667 2.19726,42.0247333 2.19726,37.207 C2.19726,32.3892667 3.10872667,27.8645333 4.93166,23.6328 C6.75459333,19.401 9.26922667,15.6819 12.47556,12.4755 C15.68196,9.26916667 19.40106,6.76266667 23.63286,4.956 C27.8645933,3.1494 32.3893267,2.2461 37.20706,2.2461 C42.0247267,2.2461 46.5575933,3.1494 50.80566,4.956 C55.0537267,6.76266667 58.7727933,9.26916667 61.96286,12.4755 C65.1529933,15.6819 67.6595267,19.401 69.48246,23.6328 C71.3053267,27.8645333 72.21676,32.3892667 72.21676,37.207 C72.21676,42.0247333 71.31346,46.5494667 69.50686,50.7812 C67.7001933,55.013 65.19366,58.7320667 61.98726,61.9384 C58.7809267,65.1448067 55.06186,67.65133 50.83006,69.45797 C46.5983267,71.2646107 42.0573267,72.167931 37.20706,72.167931 Z M42.82226,52.5879 L59.27736,52.5879 C59.6354267,52.5879 59.9039933,52.4821 60.08306,52.2705 C60.26206,52.0589 60.35156,51.8229 60.35156,51.5625 C60.35156,51.2695 60.26206,51.0172 60.08306,50.8056 C59.9039933,50.594 59.6354267,50.4882 59.27736,50.4882 L44.72656,50.4882 L44.72656,50.3906 L54.49226,39.0625 C56.25006,37.0442333 57.5114267,35.3189667 58.27636,33.8867 C59.04136,32.4543667 59.42386,31.0058 59.42386,29.541 C59.42386,27.0344667 58.5856267,25.0325 56.90916,23.5351 C55.23276,22.0377 53.0110933,21.289 50.24416,21.289 C47.8678933,21.289 45.7764267,21.9644667 43.96976,23.3154 C42.1630933,24.6663333 41.0807267,26.3671667 40.72266,28.4179 C40.6901267,28.6132333 40.6657267,28.7841333 40.64946,28.9306 C40.6331933,29.0771333 40.62506,29.2317667 40.62506,29.3945 C40.62506,29.7200333 40.7226933,29.9967333 40.91796,30.2246 C41.1132933,30.4524667 41.3737267,30.5664 41.69926,30.5664 C42.08986,30.5664 42.36656,30.4687333 42.52936,30.2734 C42.6920933,30.0780667 42.8060267,29.8176333 42.87116,29.4921 C43.00136,27.7343 43.7581933,26.2776 45.14166,25.122 C46.5251267,23.9664 48.2422267,23.3886 50.29296,23.3886 C52.4088933,23.3886 54.0853267,23.9501333 55.32226,25.0732 C56.55926,26.1962667 57.17776,27.6855333 57.17776,29.541 C57.17776,30.7779333 56.87666,31.9579333 56.27446,33.081 C55.67226,34.2040667 54.7363933,35.5143 53.46686,37.0117 L41.94336,50.3418 C41.68296,50.6347333 41.55276,50.9928 41.55276,51.416 C41.55276,51.7740667 41.6748267,52.0589 41.91896,52.2705 C42.1630933,52.4821 42.4641933,52.5879 42.82226,52.5879 Z M23.77926,53.125 C26.90426,53.125 29.4433267,52.1728333 31.39646,50.2685 C33.3495933,48.3642333 34.32616,45.8658667 34.32616,42.7734 C34.32616,39.9088 33.3984267,37.5325 31.54296,35.6445 C29.6874933,33.7565 27.32746,32.8125 24.46286,32.8125 C22.99806,32.8125 21.5901933,33.1298667 20.23926,33.7646 C18.8883267,34.3994 17.7571267,35.2864333 16.84566,36.4257 L16.79686,36.4257 L17.82226,23.5839 L31.83596,23.5839 C32.1288933,23.5839 32.38116,23.4862667 32.59276,23.291 C32.80436,23.0956667 32.91016,22.8515333 32.91016,22.5586 C32.91016,21.9075333 32.5520933,21.582 31.83596,21.582 L17.33396,21.582 C16.38996,21.582 15.9016933,22.0702667 15.86916,23.0468 L14.69726,37.5 C14.6647267,37.9557333 14.7705267,38.3056667 15.01466,38.5498 C15.2587933,38.7939333 15.5598933,38.916 15.91796,38.916 C16.17836,38.916 16.3980933,38.8753 16.57716,38.7939 C16.75616,38.7125 16.9595933,38.5741667 17.18746,38.3789 C18.3267933,37.0767667 19.4579933,36.1571667 20.58106,35.6201 C21.7041267,35.0829667 22.93296,34.8144 24.26756,34.8144 C26.57876,34.8144 28.4749267,35.5712333 29.95606,37.0849 C31.4371933,38.5985667 32.17776,40.511 32.17776,42.8222 C32.17776,45.1985333 31.4046267,47.1598 29.85836,48.706 C28.31216,50.2522667 26.3671933,51.0254 24.02346,51.0254 C22.1353933,51.0254 20.45896,50.5533667 18.99416,49.6093 C17.5292933,48.6653 16.58526,47.4609 16.16206,45.9961 C16.06446,45.7356333 15.93426,45.5159 15.77146,45.3369 C15.6087267,45.1578333 15.38086,45.0683 15.08786,45.0683 C14.82746,45.0683 14.5995933,45.1578333 14.40426,45.3369 C14.2089933,45.5159 14.11136,45.7519 14.11136,46.0449 C14.11136,46.1751 14.1194933,46.3053 14.13576,46.4355 C14.1520267,46.5657 14.1926933,46.6959 14.25776,46.8261 C14.8436933,48.5839667 15.9504933,50.0732333 17.57816,51.2939 C19.20576,52.5146333 21.2727933,53.125 23.77926,53.125 Z" id="Shape"></path>
                </g>
            </g>
        </g>
    </g>
</svg>