<?xml version="1.0" encoding="UTF-8"?>
<svg width="3300px" height="2200px" viewBox="0 0 3300 2200" version="1.1" xmlns="http://www.w3.org/2000/svg" xmlns:xlink="http://www.w3.org/1999/xlink">
    <title>custom.square.split.2x2</title>
    <g id="Page-1" stroke="none" stroke-width="1" fill="none" fill-rule="evenodd">
        <g id="custom.square.split.2x2">
            <g id="Notes">
                <rect id="artboard" fill="#FFFFFF" fill-rule="nonzero" x="0" y="0" width="3300" height="2200"></rect>
                <line x1="263" y1="292" x2="3036" y2="292" id="Path" stroke="#000000" stroke-width="0.5"></line>
                <text id="Weight/Scale-Variations" fill="#000000" fill-rule="nonzero" font-family="Helvetica" font-size="13" font-weight="normal">
                    <tspan x="263" y="322">Weight/Scale Variations</tspan>
                </text>
                <text id="Ultralight" fill="#000000" fill-rule="nonzero" font-family="Helvetica" font-size="13" font-weight="normal">
                    <tspan x="533.711" y="322">Ultralight</tspan>
                </text>
                <text id="Thin" fill="#000000" fill-rule="nonzero" font-family="Helvetica" font-size="13" font-weight="normal">
                    <tspan x="843.422" y="322">Thin</tspan>
                </text>
                <text id="Light" fill="#000000" fill-rule="nonzero" font-family="Helvetica" font-size="13" font-weight="normal">
                    <tspan x="1138.63" y="322">Light</tspan>
                </text>
                <text id="Regular" fill="#000000" fill-rule="nonzero" font-family="Helvetica" font-size="13" font-weight="normal">
                    <tspan x="1426.84" y="322">Regular</tspan>
                </text>
                <text id="Medium" fill="#000000" fill-rule="nonzero" font-family="Helvetica" font-size="13" font-weight="normal">
                    <tspan x="1723.06" y="322">Medium</tspan>
                </text>
                <text id="Semibold" fill="#000000" fill-rule="nonzero" font-family="Helvetica" font-size="13" font-weight="normal">
                    <tspan x="2015.77" y="322">Semibold</tspan>
                </text>
                <text id="Bold" fill="#000000" fill-rule="nonzero" font-family="Helvetica" font-size="13" font-weight="normal">
                    <tspan x="2326.48" y="322">Bold</tspan>
                </text>
                <text id="Heavy" fill="#000000" fill-rule="nonzero" font-family="Helvetica" font-size="13" font-weight="normal">
                    <tspan x="2618.19" y="322">Heavy</tspan>
                </text>
                <text id="Black" fill="#000000" fill-rule="nonzero" font-family="Helvetica" font-size="13" font-weight="normal">
                    <tspan x="2917.4" y="322">Black</tspan>
                </text>
                <line x1="263" y1="1903" x2="3036" y2="1903" id="Path" stroke="#000000" stroke-width="0.5"></line>
                <g id="Group" transform="translate(264.367190, 1918.068400)" fill="#000000" fill-rule="nonzero">
                    <path d="M7.88086,15.761678 C8.96156,15.761678 9.97717667,15.5566 10.92771,15.146444 C11.8782433,14.7362873 12.7164767,14.166626 13.44241,13.43746 C14.1682767,12.7082933 14.7379433,11.86845 15.15141,10.91793 C15.56481,9.96741 15.77151,8.95504 15.77151,7.88082 C15.77151,6.8066 15.56481,5.79422667 15.15141,4.8437 C14.7379433,3.89316667 14.1666433,3.05333333 13.43751,2.3242 C12.70831,1.595 11.8684767,1.02533333 10.91801,0.6152 C9.96747667,0.205066667 8.95183667,0 7.87109,0 C6.79687,0 5.7845,0.205066667 4.83398,0.6152 C3.88346,1.02533333 3.04687333,1.595 2.32422,2.3242 C1.60156,3.05333333 1.03352333,3.89316667 0.62011,4.8437 C0.206703333,5.79422667 -8.8817842e-16,6.8066 -8.8817842e-16,7.88082 C-8.8817842e-16,8.95504 0.206703333,9.96741 0.62011,10.91793 C1.03352333,11.86845 1.60318667,12.7082933 2.3291,13.43746 C3.05501333,14.166626 3.89323,14.7362873 4.84375,15.146444 C5.79427,15.5566 6.80664,15.761678 7.88086,15.761678 Z M7.88086,14.277303 C6.99544,14.277303 6.16699,14.1129153 5.39551,13.78414 C4.62402333,13.4553667 3.94694,12.99801 3.36426,12.41207 C2.78157333,11.82613 2.32584333,11.14579 1.99707,10.37105 C1.66829,9.59631 1.5039,8.76623333 1.5039,7.88082 C1.5039,6.9954 1.66666333,6.16532 1.99219,5.39058 C2.31771,4.61586 2.77181,3.93553333 3.35449,3.3496 C3.93717,2.76366667 4.61425333,2.3063 5.38574,1.9775 C6.15722667,1.6487 6.98567667,1.4843 7.87109,1.4843 C8.76303667,1.4843 9.59474333,1.6487 10.36621,1.9775 C11.1376767,2.3063 11.8163767,2.76366667 12.40231,3.3496 C12.9882433,3.93553333 13.4472433,4.61586 13.77931,5.39058 C14.11131,6.16532 14.27731,6.9954 14.27731,7.88082 C14.27731,8.76623333 14.1129433,9.59631 13.78421,10.37105 C13.45541,11.14579 12.9996767,11.82613 12.41701,12.41207 C11.8343433,12.99801 11.15561,13.4553667 10.38081,13.78414 C9.60607667,14.1129153 8.77276,14.277303 7.88086,14.277303 Z M4.47265,7.89058 C4.47265,8.10542667 4.54101,8.27958333 4.67773,8.41305 C4.81445,8.54651 4.99674333,8.61324 5.22461,8.61324 L7.13867,8.61324 L7.13867,10.53707 C7.13867,10.7584233 7.2054,10.93746 7.33886,11.07418 C7.47232667,11.2109 7.64648333,11.27926 7.86133,11.27926 C8.08268333,11.27926 8.26171667,11.2109 8.39843,11.07418 C8.53515,10.93746 8.60351,10.7584233 8.60351,10.53707 L8.60351,8.61324 L10.52731,8.61324 C10.74871,8.61324 10.9277433,8.54651 11.06441,8.41305 C11.2011433,8.27958333 11.26951,8.10542667 11.26951,7.89058 C11.26951,7.66922667 11.2011433,7.49019333 11.06441,7.35348 C10.9277433,7.21676 10.74871,7.1484 10.52731,7.1484 L8.60351,7.1484 L8.60351,5.23433 C8.60351,5.00644333 8.53515,4.82416667 8.39843,4.6875 C8.26171667,4.55076667 8.08268333,4.4824 7.86133,4.4824 C7.64648333,4.4824 7.47232667,4.55076667 7.33886,4.6875 C7.2054,4.82416667 7.13867,5.00644333 7.13867,5.23433 L7.13867,7.1484 L5.22461,7.1484 C4.99674333,7.1484 4.81445,7.21676 4.67773,7.35348 C4.54101,7.49019333 4.47265,7.66922667 4.47265,7.89058 Z" id="Shape"></path>
                </g>
                <g id="Group" transform="translate(283.615050, 1915.988300)" fill="#000000" fill-rule="nonzero">
                    <path d="M9.96095,19.92186 C11.3216167,19.92186 12.60255,19.6614433 13.80375,19.14061 C15.0048833,18.6197767 16.06445,17.9003744 16.98245,16.9824031 C17.9003833,16.0644344 18.6197833,15.0048633 19.14065,13.80369 C19.66145,12.6025167 19.92185,11.3215933 19.92185,9.96092 C19.92185,8.60024 19.66145,7.3193 19.14065,6.1181 C18.6197833,4.91696667 17.9003833,3.8574 16.98245,2.9394 C16.06445,2.02146667 15.00325,1.30206667 13.79885,0.7812 C12.5943833,0.2604 11.3118167,0 9.95115,0 C8.59048333,0 7.30956667,0.2604 6.1084,0.7812 C4.90722667,1.30206667 3.84928333,2.02146667 2.93457,2.9394 C2.01985667,3.8574 1.30208333,4.91696667 0.78125,6.1181 C0.260416667,7.3193 8.8817842e-16,8.60024 8.8817842e-16,9.96092 C8.8817842e-16,11.3215933 0.260416667,12.6025167 0.78125,13.80369 C1.30208333,15.0048633 2.02148333,16.0644344 2.93945,16.9824031 C3.85741667,17.9003744 4.91698667,18.6197767 6.11816,19.14061 C7.31933333,19.6614433 8.60026333,19.92186 9.96095,19.92186 Z M9.96095,18.2617 C8.80859667,18.2617 7.73111667,18.0468563 6.72851,17.617169 C5.72591,17.1874813 4.84537667,16.593405 4.08691,15.83494 C3.32845,15.07648 2.73600333,14.1959467 2.30957,13.19334 C1.88313667,12.1907333 1.66992,11.11326 1.66992,9.96092 C1.66992,8.80857333 1.88313667,7.7311 2.30957,6.7285 C2.73600333,5.7259 3.32682333,4.84373333 4.08203,4.082 C4.83723667,3.32026667 5.71614333,2.7262 6.71875,2.2998 C7.72135,1.87333333 8.79881667,1.6601 9.95115,1.6601 C11.1034833,1.6601 12.18095,1.87333333 13.18355,2.2998 C14.18615,2.7262 15.0683167,3.32026667 15.83005,4.082 C16.5917833,4.84373333 17.1874833,5.7259 17.61715,6.7285 C18.0468833,7.7311 18.26175,8.80857333 18.26175,9.96092 C18.26175,11.11326 18.0485167,12.1907333 17.62205,13.19334 C17.19565,14.1959467 16.6032167,15.07648 15.84475,15.83494 C15.0862833,16.593405 14.2041167,17.1874813 13.19825,17.617169 C12.1923833,18.0468563 11.1132833,18.2617 9.96095,18.2617 Z M5.64453,9.97068 C5.64453,10.20506 5.72265333,10.39712 5.8789,10.54686 C6.03515333,10.6966 6.23697667,10.77147 6.48437,10.77147 L9.13085,10.77147 L9.13085,13.43748 C9.13085,13.6783667 9.20571667,13.8753067 9.35545,14.0283 C9.50518333,14.1812933 9.69725,14.25779 9.93165,14.25779 C10.17905,14.25779 10.3808833,14.1812933 10.53715,14.0283 C10.69335,13.8753067 10.77145,13.6783667 10.77145,13.43748 L10.77145,10.77147 L13.42775,10.77147 C13.6686167,10.77147 13.8671833,10.6966 14.02345,10.54686 C14.1797167,10.39712 14.25785,10.20506 14.25785,9.97068 C14.25785,9.72328667 14.1797167,9.52309333 14.02345,9.3701 C13.8671833,9.21710667 13.6686167,9.14061 13.42775,9.14061 L10.77145,9.14061 L10.77145,6.4941 C10.77145,6.24023333 10.69335,6.0368 10.53715,5.8838 C10.3808833,5.7308 10.17905,5.6543 9.93165,5.6543 C9.69725,5.6543 9.50518333,5.7308 9.35545,5.8838 C9.20571667,6.0368 9.13085,6.24023333 9.13085,6.4941 L9.13085,9.14061 L6.48437,9.14061 C6.23046333,9.14061 6.02701333,9.21710667 5.87402,9.3701 C5.72102667,9.52309333 5.64453,9.72328667 5.64453,9.97068 Z" id="Shape"></path>
                </g>
                <g id="Group" transform="translate(307.901860, 1913.224600)" fill="#000000" fill-rule="nonzero">
                    <path d="M12.71484,25.43946 C14.10804,25.43946 15.4378067,25.22299 16.70414,24.79005 C17.9704067,24.3571033 19.13414,23.7500067 20.19534,22.96876 C21.25654,22.1875067 22.1793733,21.2662827 22.96384,20.205088 C23.7483733,19.1438893 24.3571067,17.9785233 24.79004,16.70899 C25.2229733,15.4394633 25.43944,14.11134 25.43944,12.72462 C25.43944,11.3313933 25.2229733,10.0016533 24.79004,8.7354 C24.3571067,7.46906667 23.7483733,6.30533333 22.96384,5.2442 C22.1793733,4.183 21.25654,3.26013333 20.19534,2.4756 C19.13414,1.69106667 17.9687733,1.08233333 16.69924,0.6494 C15.4297067,0.216466667 14.0983067,0 12.70504,0 C11.31184,0 9.98210667,0.216466667 8.71584,0.6494 C7.44955333,1.08233333 6.28743667,1.69106667 5.22949,2.4756 C4.17155,3.26013333 3.25032667,4.183 2.46582,5.2442 C1.68131333,6.30533333 1.07421667,7.46906667 0.64453,8.7354 C0.214843333,10.0016533 0,11.3313933 0,12.72462 C0,14.11134 0.21647,15.4394633 0.64941,16.70899 C1.08235667,17.9785233 1.68945333,19.1438893 2.4707,20.205088 C3.25195333,21.2662827 4.17317667,22.1875067 5.23437,22.96876 C6.29557,23.7500067 7.45929333,24.3571033 8.72554,24.79005 C9.99187333,25.22299 11.32164,25.43946 12.71484,25.43946 Z M12.71484,23.62306 C11.51044,23.62306 10.3629733,23.43914 9.27244,23.0713 C8.18196,22.70346 7.18424667,22.18751 6.2793,21.52345 C5.37434667,20.8593853 4.58821333,20.0732513 3.9209,19.165048 C3.25358,18.2568427 2.73763,17.2574933 2.37305,16.167 C2.00846333,15.0765067 1.82617,13.9290467 1.82617,12.72462 C1.82617,11.51368 2.00846333,10.3629733 2.37305,9.2725 C2.73763,8.18196667 3.25195333,7.1826 3.91602,6.2744 C4.58008,5.3662 5.36458333,4.58006667 6.26953,3.916 C7.17447667,3.25193333 8.17221333,2.73763333 9.26274,2.3731 C10.3532067,2.0085 11.50064,1.8262 12.70504,1.8262 C13.9159733,1.8262 15.0667067,2.0085 16.15724,2.3731 C17.2477067,2.73763333 18.24704,3.25193333 19.15524,3.916 C20.06344,4.58006667 20.8495733,5.3662 21.51364,6.2744 C22.1777067,7.1826 22.6936733,8.18196667 23.06154,9.2725 C23.42934,10.3629733 23.6134125,11.51368 23.6134125,12.72462 C23.6197733,13.9290467 23.44074,15.0765067 23.07614,16.167 C22.7116067,17.2574933 22.1956733,18.2568427 21.52834,19.165048 C20.8610067,20.0732513 20.07324,20.8593853 19.16504,21.52345 C18.25684,22.18751 17.2575067,22.70346 16.16704,23.0713 C15.0765067,23.43914 13.9257733,23.62306 12.71484,23.62306 Z M7.19726,12.73438 C7.19726,12.9882867 7.28352333,13.19825 7.45605,13.36427 C7.62857667,13.5302833 7.84830667,13.61329 8.11524,13.61329 L11.80664,13.61329 L11.80664,17.31446 C11.80664,17.5813867 11.88964,17.7994867 12.05564,17.96876 C12.22164,18.1380333 12.4316067,18.22267 12.68554,18.22267 C12.9590067,18.22267 13.1803733,18.1380333 13.34964,17.96876 C13.5189067,17.7994867 13.60354,17.5813867 13.60354,17.31446 L13.60354,13.61329 L17.30464,13.61329 C17.5715733,13.61329 17.7896733,13.5302833 17.95894,13.36427 C18.1282733,13.19825 18.21294,12.9882867 18.21294,12.73438 C18.21294,12.4609467 18.1282733,12.2395933 17.95894,12.07032 C17.7896733,11.9010533 17.5715733,11.81642 17.30464,11.81642 L13.60354,11.81642 L13.60354,8.125 C13.60354,7.8516 13.5189067,7.63023333 13.34964,7.4609 C13.1803733,7.29163333 12.9590067,7.207 12.68554,7.207 C12.4316067,7.207 12.22164,7.29326667 12.05564,7.4658 C11.88964,7.63833333 11.80664,7.85806667 11.80664,8.125 L11.80664,11.81642 L8.11524,11.81642 C7.8418,11.81642 7.62044333,11.9010533 7.45117,12.07032 C7.28189667,12.2395933 7.19726,12.4609467 7.19726,12.73438 Z" id="Shape"></path>
                </g>
                <text id="Design-Variations" fill="#000000" fill-rule="nonzero" font-family="Helvetica" font-size="13" font-weight="normal">
                    <tspan x="263" y="1953">Design Variations</tspan>
                </text>
                <text id="Symbols-are-supported-in-up-to-nine-weights-and-three-scales." fill="#000000" fill-rule="nonzero" font-family="Helvetica" font-size="13" font-weight="normal">
                    <tspan x="263" y="1971">Symbols are supported in up to nine weights and three scales.</tspan>
                </text>
                <text id="For-optimal-layout-with-text-and-other-symbols,-vertically-align" fill="#000000" fill-rule="nonzero" font-family="Helvetica" font-size="13" font-weight="normal">
                    <tspan x="263" y="1989">For optimal layout with text and other symbols, vertically align</tspan>
                </text>
                <text id="symbols-with-the-adjacent-text." fill="#000000" fill-rule="nonzero" font-family="Helvetica" font-size="13" font-weight="normal">
                    <tspan x="263" y="2007">symbols with the adjacent text.</tspan>
                </text>
                <line x1="776" y1="1919" x2="776" y2="1933" id="Path" stroke="#00AEEF" stroke-width="0.5"></line>
                <g id="Group" transform="translate(778.490230, 1918.732400)" fill="#000000" fill-rule="nonzero">
                    <path d="M0.82032,14.42385 C1.08073333,14.42385 1.28255667,14.3685115 1.42579,14.2578344 C1.56901667,14.1471575 1.68620333,13.9551 1.77735,13.681662 L3.03711,10.2344 L8.79887,10.2344 L10.05857,13.681662 C10.1497033,13.9551 10.2669033,14.1471575 10.41017,14.2578344 C10.55337,14.3685115 10.7519367,14.42385 11.00587,14.42385 C11.26627,14.42385 11.47297,14.3522354 11.62597,14.2090062 C11.77897,14.0657767 11.85547,13.8704643 11.85547,13.623069 C11.85547,13.473329 11.81967,13.297546 11.74807,13.09572 L7.16797,0.8985 C7.05078333,0.598966667 6.89128,0.374333333 6.68946,0.2246 C6.48763333,0.0748666667 6.23047,0 5.91797,0 C5.31250333,0 4.90234667,0.296233333 4.6875,0.8887 L0.10743,13.10549 C0.03581,13.3073133 -4.4408921e-16,13.4830947 -4.4408921e-16,13.632834 C-4.4408921e-16,13.88023 0.0732433333,14.073915 0.21973,14.2138891 C0.366216667,14.353863 0.566413333,14.42385 0.82032,14.42385 Z M3.51563,8.75002 L5.88868,2.1778 L5.9375,2.1778 L8.31057,8.75002 L3.51563,8.75002 Z" id="Shape"></path>
                </g>
                <line x1="793.197" y1="1919" x2="793.197" y2="1933" id="Path" stroke="#00AEEF" stroke-width="0.5"></line>
                <text id="Margins" fill="#000000" fill-rule="nonzero" font-family="Helvetica" font-size="13" font-weight="normal">
                    <tspan x="776" y="1953">Margins</tspan>
                </text>
                <text id="Leading-and-trailing-margins-on-the-left-and-right-side-of-each-symbol" fill="#000000" fill-rule="nonzero" font-family="Helvetica" font-size="13" font-weight="normal">
                    <tspan x="776" y="1971">Leading and trailing margins on the left and right side of each symbol</tspan>
                </text>
                <text id="can-be-adjusted-by-modifying-the-x-location-of-the-margin-guidelines." fill="#000000" fill-rule="nonzero" font-family="Helvetica" font-size="13" font-weight="normal">
                    <tspan x="776" y="1989">can be adjusted by modifying the x-location of the margin guidelines.</tspan>
                </text>
                <text id="Modifications-are-automatically-applied-proportionally-to-all" fill="#000000" fill-rule="nonzero" font-family="Helvetica" font-size="13" font-weight="normal">
                    <tspan x="776" y="2007">Modifications are automatically applied proportionally to all</tspan>
                </text>
                <text id="scales-and-weights." fill="#000000" fill-rule="nonzero" font-family="Helvetica" font-size="13" font-weight="normal">
                    <tspan x="776" y="2025">scales and weights.</tspan>
                </text>
                <g id="Group" transform="translate(1291.246849, 1914.517550)" fill="#000000" fill-rule="nonzero">
                    <path d="M0.594951479,20.3476805 L2.29417148,22.0566705 C2.72385815,22.4928705 3.17795815,22.6946938 3.65647148,22.6621405 C4.13498481,22.6295872 4.60536148,22.3561505 5.06760148,21.8418305 L15.7609515,10.0547205 L14.7941515,9.07815049 L4.17893148,20.7578405 C4.00315148,20.9596605 3.82574148,21.0735938 3.64670148,21.0996405 C3.46766815,21.1256805 3.26096481,21.0215138 3.02659148,20.7871405 L1.85471148,19.6250305 C1.62033815,19.3906545 1.51780148,19.1839482 1.54710148,19.0049115 C1.57639481,18.8258748 1.69195148,18.6452108 1.89377148,18.4629193 L13.3683515,7.66215049 L12.3918515,6.69535049 L0.800031479,17.5840125 C0.305238146,18.0397418 0.039938146,18.5052368 0.00413147929,18.9804975 C-0.0316751874,19.4557595 0.165264813,19.9114872 0.594951479,20.3476805 Z M7.01096148,2.15435049 C6.80262815,2.35615049 6.68544148,2.58725049 6.65940148,2.84765049 C6.63336148,3.10811716 6.67893481,3.33598382 6.79612148,3.53125049 C6.91330815,3.71358382 7.08420481,3.85031716 7.30881148,3.94145049 C7.53342481,4.03258382 7.80850481,4.03908382 8.13405148,3.96095049 C8.86318481,3.79168382 9.60211815,3.72171716 10.3508515,3.75105049 C11.0995181,3.78031716 11.8319181,4.02931716 12.5480515,4.49805049 L11.9621515,5.95315049 C11.7928848,6.36981716 11.7456848,6.73278382 11.8205515,7.04205049 C11.8954181,7.35125049 12.0663181,7.64258382 12.3332515,7.91605049 L14.6281515,10.2305005 C14.8690181,10.4778938 15.1033848,10.6211205 15.3312515,10.6601805 C15.5591181,10.6992472 15.8130181,10.6927372 16.0929515,10.6406505 L17.1574515,10.4453405 L17.8215515,11.1191705 L17.7824515,11.6758105 C17.7629181,11.9232038 17.7938515,12.1510672 17.8752515,12.3594005 C17.9565848,12.5677338 18.1177181,12.7923438 18.3586515,13.0332305 L19.1203515,13.7754205 C19.3612181,14.0163072 19.6232515,14.1416338 19.9064515,14.1514005 C20.1896515,14.1611605 20.4484515,14.0488538 20.6828515,13.8144805 L23.5929515,10.8945605 C23.8273515,10.6601872 23.9412848,10.4046538 23.9347515,10.1279605 C23.9282848,9.85126716 23.8045848,9.59247716 23.5636515,9.35159049 L22.7922515,8.58987049 C22.5578515,8.34899049 22.3381181,8.18461716 22.1330515,8.09675049 C21.9279848,8.00881716 21.7049848,7.97461716 21.4640515,7.99415049 L20.8879515,8.04295049 L20.2433515,7.40825049 L20.4875515,6.28515049 C20.5526181,6.00521716 20.5395848,5.74318382 20.4484515,5.49905049 C20.3573181,5.25491716 20.1652515,4.98635049 19.8722515,4.69335049 L17.6750515,2.50585049 C16.8417181,1.67905049 15.9546515,1.05895049 15.0138515,0.64555049 C14.0731181,0.23215049 13.1258515,0.0173171567 12.1720515,0.00105049002 C11.2183181,-0.0152828433 10.3003515,0.15885049 9.41815148,0.52345049 C8.53601815,0.88805049 7.73362148,1.43168382 7.01096148,2.15435049 Z M8.50515148,2.52545049 C9.11061815,2.08271716 9.76001815,1.76695049 10.4533515,1.57815049 C11.1466848,1.38935049 11.8481848,1.32911716 12.5578515,1.39745049 C13.2674515,1.46585049 13.9559181,1.65628382 14.6232515,1.96875049 C15.2905848,2.28128382 15.9009515,2.71748382 16.4543515,3.27735049 L18.8859515,5.68945049 C19.0031515,5.80665049 19.0763848,5.92058382 19.1056515,6.03125049 C19.1349848,6.14191716 19.1301181,6.28191716 19.0910515,6.45125049 L18.7687515,7.93555049 L20.2726515,9.41995049 L21.2590515,9.36136049 C21.3827181,9.35484716 21.4771181,9.36298382 21.5422515,9.38577049 C21.6073181,9.40855716 21.6886848,9.46877716 21.7863515,9.56643049 L22.3625515,10.1426105 L19.9211515,12.5840105 L19.3449515,12.0078405 C19.2472848,11.9101872 19.1854181,11.8288072 19.1593515,11.7637005 C19.1333515,11.6985938 19.1236181,11.6009372 19.1301515,11.4707305 L19.1984515,10.4941705 L17.7043515,9.00979049 L16.1808515,9.26370049 C16.0181181,9.29625382 15.8895515,9.30113716 15.7951515,9.27835049 C15.7007515,9.25556382 15.5916848,9.18557716 15.4679515,9.06839049 L13.4660515,7.06645049 C13.3358515,6.94925049 13.2626181,6.83695049 13.2463515,6.72955049 C13.2300848,6.62208382 13.2609848,6.47721716 13.3390515,6.29495049 L14.2179515,4.20515049 C13.4367515,3.47595049 12.5578515,2.97138382 11.5812515,2.69145049 C10.6047181,2.41151716 9.60861815,2.42128382 8.59295148,2.72075049 C8.51488481,2.74028382 8.46445148,2.72561716 8.44165148,2.67675049 C8.41885148,2.62795049 8.44001815,2.57751716 8.50515148,2.52545049 Z" id="Shape"></path>
                </g>
                <text id="Exporting" fill="#000000" fill-rule="nonzero" font-family="Helvetica" font-size="13" font-weight="normal">
                    <tspan x="1289" y="1953">Exporting</tspan>
                </text>
                <text id="Symbols-should-be-outlined-when-exporting-to-ensure-the" fill="#000000" fill-rule="nonzero" font-family="Helvetica" font-size="13" font-weight="normal">
                    <tspan x="1289" y="1971">Symbols should be outlined when exporting to ensure the</tspan>
                </text>
                <text id="design-is-preserved-when-submitting-to-Xcode." fill="#000000" fill-rule="nonzero" font-family="Helvetica" font-size="13" font-weight="normal">
                    <tspan x="1289" y="1989">design is preserved when submitting to Xcode.</tspan>
                </text>
                <text id="template-version" fill="#000000" fill-rule="nonzero" font-family="Helvetica" font-size="13" font-weight="normal">
                    <tspan x="2952" y="1933">Template v.2.0</tspan>
                </text>
                <text id="Requires-Xcode-13-or-greater" fill="#000000" fill-rule="nonzero" font-family="Helvetica" font-size="13" font-weight="normal">
                    <tspan x="2865" y="1951">Requires Xcode 13 or greater</tspan>
                </text>
                <text id="descriptive-name" fill="#000000" fill-rule="nonzero" font-family="Helvetica" font-size="13" font-weight="normal">
                    <tspan x="2804" y="1969">Generated from custom.square.split.2x2</tspan>
                </text>
                <text id="Typeset-at-100-points" fill="#000000" fill-rule="nonzero" font-family="Helvetica" font-size="13" font-weight="normal">
                    <tspan x="2912" y="1987">Typeset at 100 points</tspan>
                </text>
                <text id="Small" fill="#000000" fill-rule="nonzero" font-family="Helvetica" font-size="13" font-weight="normal">
                    <tspan x="263" y="726">Small</tspan>
                </text>
                <text id="Medium" fill="#000000" fill-rule="nonzero" font-family="Helvetica" font-size="13" font-weight="normal">
                    <tspan x="263" y="1156">Medium</tspan>
                </text>
                <text id="Large" fill="#000000" fill-rule="nonzero" font-family="Helvetica" font-size="13" font-weight="normal">
                    <tspan x="263" y="1586">Large</tspan>
                </text>
            </g>
            <g id="Guides" transform="translate(263.000000, 625.041000)">
                <g id="H-reference" transform="translate(76.993347, 0.500000)" fill="#27AAE1" fill-rule="nonzero">
                    <path d="M0,70.459 L2.644353,70.459 L28.334853,3.3264 L29.036753,3.3264 L29.036753,0 L27.129353,0 L0,70.459 Z M10.694853,45.9793 L45.988453,45.9793 L45.237753,43.7302 L11.444853,43.7302 L10.694853,45.9793 Z M54.125953,70.459 L56.770353,70.459 L29.644753,0 L28.439353,0 L28.439353,3.3264 L54.125953,70.459 Z" id="Shape"></path>
                </g>
                <line x1="0" y1="70.959" x2="2773" y2="70.959" id="Baseline-S" stroke="#27AAE1" stroke-width="0.5"></line>
                <line x1="0" y1="0.5" x2="2773" y2="0.5" id="Capline-S" stroke="#27AAE1" stroke-width="0.5"></line>
                <g id="H-reference" transform="translate(76.993347, 430.500000)" fill="#27AAE1" fill-rule="nonzero">
                    <path d="M0,70.459 L2.644353,70.459 L28.334853,3.3264 L29.036753,3.3264 L29.036753,0 L27.129353,0 L0,70.459 Z M10.694853,45.9793 L45.988453,45.9793 L45.237753,43.7302 L11.444853,43.7302 L10.694853,45.9793 Z M54.125953,70.459 L56.770353,70.459 L29.644753,0 L28.439353,0 L28.439353,3.3264 L54.125953,70.459 Z" id="Shape"></path>
                </g>
                <line x1="0" y1="500.959" x2="2773" y2="500.959" id="Baseline-M" stroke="#27AAE1" stroke-width="0.5"></line>
                <line x1="0" y1="430.499" x2="2773" y2="430.499" id="Capline-M" stroke="#27AAE1" stroke-width="0.5"></line>
                <g id="H-reference" transform="translate(76.993347, 860.500000)" fill="#27AAE1" fill-rule="nonzero">
                    <path d="M0,70.459 L2.644353,70.459 L28.334853,3.3264 L29.036753,3.3264 L29.036753,0 L27.129353,0 L0,70.459 Z M10.694853,45.9793 L45.988453,45.9793 L45.237753,43.7302 L11.444853,43.7302 L10.694853,45.9793 Z M54.125953,70.459 L56.770353,70.459 L29.644753,0 L28.439353,0 L28.439353,3.3264 L54.125953,70.459 Z" id="Shape"></path>
                </g>
                <line x1="0" y1="930.959" x2="2773" y2="930.959" id="Baseline-L" stroke="#27AAE1" stroke-width="0.5"></line>
                <line x1="0" y1="860.499" x2="2773" y2="860.499" id="Capline-L" stroke="#27AAE1" stroke-width="0.5"></line>
                <line x1="1129.14" y1="405.739" x2="1129.14" y2="525.079" id="left-margin" stroke="#00AEEF" stroke-width="0.5"></line>
                <line x1="1244.55" y1="405.739" x2="1244.55" y2="525.079" id="right-margin" stroke="#00AEEF" stroke-width="0.5"></line>
            </g>
            <g id="Symbols" transform="translate(504.818700, 622.910200)" fill="#000000" fill-rule="nonzero">
                <g id="Black-L" transform="translate(2366.987000, 836.703200)">
                    <path d="M52.2042,115.3606 L71.0171,115.3606 L71.0171,7.8606 L52.2042,7.8606 L52.2042,115.3606 Z M7.8606,71.017 L115.3393,71.017 L115.3393,52.2041 L7.8606,52.2041 L7.8606,71.017 Z M23.7717,123.2212 L99.4293,123.2212 C107.007967,123.2212 112.864633,121.157133 116.9993,117.029 C121.1333,112.900867 123.2003,107.06186 123.2003,99.51198 L123.2003,23.7091 C123.2003,16.1593 121.1333,10.3203333 116.9993,6.1922 C112.864633,2.06406667 107.007967,0 99.4293,0 L23.7717,0 C16.2063667,0 10.3530667,2.06366667 6.2118,6.191 C2.0706,10.3183333 0,16.1577 0,23.7091 L0,99.51198 C0,107.06346 2.0706,112.902867 6.2118,117.0302 C10.3530667,121.157533 16.2063667,123.2212 23.7717,123.2212 Z M26.5024,103.21935 C24.3636667,103.21935 22.7421333,102.703287 21.6378,101.67116 C20.5333333,100.639033 19.9811,98.97437 19.9811,96.67717 L19.9811,26.5439 C19.9811,24.2217667 20.5333333,22.5508667 21.6378,21.5312 C22.7421333,20.5116 24.3636667,20.0018 26.5024,20.0018 L96.6983,20.0018 C98.8736333,20.0018 100.5043,20.5116 101.5903,21.5312 C102.6763,22.5508667 103.2193,24.2217667 103.2193,26.5439 L103.2193,96.67717 C103.2193,98.97437 102.6763,100.639033 101.5903,101.67116 C100.5043,102.703287 98.8736333,103.21935 96.6983,103.21935 L26.5024,103.21935 Z" id="Shape"></path>
                </g>
                <g id="Heavy-L" transform="translate(2071.187000, 837.618700)">
                    <path d="M52.3956,113.938 L69.0036,113.938 L69.0036,7.461 L52.3956,7.461 L52.3956,113.938 Z M7.4609,69.0034 L113.9083,69.0034 L113.9083,52.3955 L7.4609,52.3955 L7.4609,69.0034 Z M22.7475,121.3991 L98.6213,121.3991 C105.940633,121.3991 111.561633,119.4408 115.4843,115.5242 C119.407633,111.6076 121.3693,106.013557 121.3693,98.74207 L121.3693,22.6569 C121.3693,15.3854333 119.407633,9.7914 115.4843,5.8748 C111.561633,1.95826667 105.940633,0 98.6213,0 L22.7475,0 C15.4484333,0 9.8324,1.9564 5.8994,5.8692 C1.96646667,9.78206667 0,15.3779667 0,22.6569 L0,98.74207 C0,106.021023 1.96646667,111.616933 5.8994,115.5298 C9.8324,119.442667 15.4484333,121.3991 22.7475,121.3991 Z M24.8718,103.8684 C22.4668,103.8684 20.637,103.273473 19.3824,102.08362 C18.1278,100.89376 17.5005,99.021537 17.5005,96.466951 L17.5005,24.932 C17.5005,22.3678667 18.1278,20.4932667 19.3824,19.3082 C20.637,18.1231333 22.4668,17.5306 24.8718,17.5306 L96.4973,17.5306 C98.9206333,17.5306 100.754967,18.1231333 102.0003,19.3082 C103.245633,20.4932667 103.8683,22.3678667 103.8683,24.932 L103.8683,96.466951 C103.8683,99.021537 103.245633,100.89376 102.0003,102.08362 C100.754967,103.273473 98.9206333,103.8684 96.4973,103.8684 L24.8718,103.8684 Z" id="Shape"></path>
                </g>
                <g id="Bold-L" transform="translate(1775.617000, 838.763200)">
                    <path d="M52.6338,112.32 L66.4916,112.32 L66.4916,6.8053 L52.6338,6.8053 L52.6338,112.32 Z M6.8051,66.4914 L112.2823,66.4914 L112.2823,52.6338 L6.8051,52.6338 L6.8051,66.4914 Z M21.4573,119.1253 L97.6303,119.1253 C104.606967,119.1253 109.9273,117.295133 113.5913,113.6348 C117.2553,109.974533 119.0873,104.690213 119.0873,97.78184 L119.0873,21.3433 C119.0873,14.4350333 117.2553,9.15073333 113.5913,5.4904 C109.9273,1.83013333 104.606967,0 97.6303,0 L21.4573,0 C14.5059,0 9.19183333,1.82573333 5.5151,5.4772 C1.83836667,9.12866667 0,14.4173667 0,21.3433 L0,97.78184 C0,104.70788 1.83836667,109.996633 5.5151,113.6481 C9.19183333,117.299567 14.5059,119.1253 21.4573,119.1253 Z M22.9031,104.6454 C20.1503,104.6454 18.0519,103.95065 16.6079,102.56115 C15.1638333,101.17165 14.4418,99.03334 14.4418,96.14622 L14.4418,22.979 C14.4418,20.0978667 15.1638333,17.9610333 16.6079,16.5685 C18.0519,15.1761 20.1503,14.4799 22.9031,14.4799 L96.1843,14.4799 C98.9296333,14.4799 101.0263,15.1761 102.4743,16.5685 C103.921633,17.9610333 104.6453,20.0978667 104.6453,22.979 L104.6453,96.14622 C104.6453,99.03334 103.921633,101.17165 102.4743,102.56115 C101.0263,103.95065 98.9296333,104.6454 96.1843,104.6454 L22.9031,104.6454 Z" id="Shape"></path>
                </g>
                <g id="Semibold-L" transform="translate(1479.697000, 839.552200)">
                    <path d="M52.798,111.2045 L64.7598,111.2045 L64.7598,6.3532 L52.798,6.3532 L52.798,111.2045 Z M6.3529,64.7597 L111.1613,64.7597 L111.1613,52.798 L6.3529,52.798 L6.3529,64.7597 Z M20.5678,117.5577 L96.9463,117.5577 C103.686967,117.5577 108.799967,115.8159 112.2853,112.3323 C115.7713,108.8487 117.5143,103.777893 117.5143,97.11988 L117.5143,20.4378 C117.5143,13.7798 115.7713,8.709 112.2853,5.2254 C108.799967,1.7418 103.686967,0 96.9463,0 L20.5678,0 C13.8561333,0 8.75023333,1.73566667 5.2501,5.207 C1.75003333,8.67826667 0,13.7552 0,20.4378 L0,97.11988 C0,103.80256 1.75003333,108.879533 5.2501,112.3508 C8.75023333,115.822067 13.8561333,117.5577 20.5678,117.5577 Z M21.5459,105.181 C18.5533,105.181 16.2697333,104.417453 14.6952,102.89036 C13.1205333,101.363233 12.3332,99.04149 12.3332,95.92513 L12.3332,21.6326 C12.3332,18.5328667 13.1205333,16.2152667 14.6952,14.6798 C16.2697333,13.1444 18.5533,12.3767 21.5459,12.3767 L95.9683,12.3767 C98.9363,12.3767 101.213633,13.1444 102.8003,14.6798 C104.387633,16.2152667 105.1813,18.5328667 105.1813,21.6326 L105.1813,95.92513 C105.1813,99.04149 104.387633,101.363233 102.8003,102.89036 C101.213633,104.417453 98.9363,105.181 95.9683,105.181 L21.5459,105.181 Z" id="Shape"></path>
                </g>
                <g id="Medium-L" transform="translate(1183.577000, 840.150500)">
                    <path d="M52.9225,110.3587 L63.4467,110.3587 L63.4467,6.0104 L52.9225,6.0104 L52.9225,110.3587 Z M6.0101,63.4465 L110.3113,63.4465 L110.3113,52.9225 L6.0101,52.9225 L6.0101,63.4465 Z M19.8934,116.3691 L96.4283,116.3691 C102.989633,116.3691 107.945633,114.6943 111.2963,111.3447 C114.6463,107.995033 116.3213,103.0861 116.3213,96.6179 L116.3213,19.7511 C116.3213,13.2829667 114.6463,8.37406667 111.2963,5.0244 C107.945633,1.6748 102.989633,0 96.4283,0 L19.8934,0 C13.3634667,0 8.41543333,1.66733333 5.0493,5.002 C1.6831,8.33666667 0,13.2530333 0,19.7511 L0,96.6179 C0,103.116033 1.6831,108.032433 5.0493,111.3671 C8.41543333,114.701767 13.3634667,116.3691 19.8934,116.3691 Z M20.5169,105.5871 C17.3424333,105.5871 14.9184,104.771367 13.2448,103.1399 C11.5712,101.50844 10.7344,99.0476167 10.7344,95.75743 L10.7344,20.6117 C10.7344,17.3462333 11.5712,14.8915667 13.2448,13.2477 C14.9184,11.6039 17.3424333,10.782 20.5169,10.782 L95.8053,10.782 C98.9413,10.782 101.355633,11.6039 103.0483,13.2477 C104.740967,14.8915667 105.5873,17.3462333 105.5873,20.6117 L105.5873,95.75743 C105.5873,99.0476167 104.740967,101.50844 103.0483,103.1399 C101.355633,104.771367 98.9413,105.5871 95.8053,105.5871 L20.5169,105.5871 Z" id="Shape"></path>
                </g>
                <g id="Regular-L" transform="translate(887.647000, 840.930800)">
                    <path d="M53.085,109.2555 L61.7339,109.2555 L61.7339,5.5634 L53.085,5.5634 L53.085,109.2555 Z M5.5629,61.7338 L109.2023,61.7338 L109.2023,53.085 L5.5629,53.085 L5.5629,61.7338 Z M19.0137,114.8188 L95.7523,114.8188 C102.0803,114.8188 106.8313,113.231367 110.0053,110.0565 C113.1793,106.881633 114.7663,102.18388 114.7663,95.96324 L114.7663,18.8556 C114.7663,12.635 113.1793,7.93726667 110.0053,4.7624 C106.8313,1.58746667 102.0803,0 95.7523,0 L19.0137,0 C12.7209,0 7.97873333,1.57823333 4.7872,4.7347 C1.59573333,7.89116667 0,12.5981333 0,18.8556 L0,95.96324 C0,102.220747 1.59573333,106.927733 4.7872,110.0842 C7.97873333,113.2406 12.7209,114.8188 19.0137,114.8188 Z M19.1746,106.1169 C15.763,106.1169 13.1558333,105.233133 11.3531,103.4656 C9.55036667,101.697973 8.649,99.0557067 8.649,95.5388 L8.649,19.2801 C8.649,15.7985 9.55036667,13.1650667 11.3531,11.3798 C13.1558333,9.5946 15.763,8.702 19.1746,8.702 L95.5913,8.702 C98.9473,8.702 101.540633,9.5946 103.3713,11.3798 C105.201967,13.1650667 106.1173,15.7985 106.1173,19.2801 L106.1173,95.5388 C106.1173,99.0557067 105.201967,101.697973 103.3713,103.4656 C101.540633,105.233133 98.9473,106.1169 95.5913,106.1169 L19.1746,106.1169 Z" id="Shape"></path>
                </g>
                <g id="Light-L" transform="translate(591.767000, 841.789600)">
                    <path d="M53.2568,109.0646 L59.8828,109.0646 L59.8828,4.0748 L53.2568,4.0748 L53.2568,109.0646 Z M4.0741,59.8826 L109.0303,59.8826 L109.0303,53.2568 L4.0741,53.2568 L4.0741,59.8826 Z M17.9831,113.1395 L95.1223,113.1395 C101.080967,113.1395 105.567967,111.622 108.5833,108.587 C111.597967,105.552067 113.1053,101.108763 113.1053,95.25709 L113.1053,17.8823 C113.1053,12.0307 111.597967,7.5874 108.5833,4.5524 C105.567967,1.51746667 101.080967,0 95.1223,0 L17.9831,0 C12.0464333,0 7.56506667,1.5019 4.539,4.5057 C1.513,7.5095 0,11.9683667 0,17.8823 L0,95.25709 C0,101.17103 1.513,105.6299 4.539,108.6337 C7.56506667,111.637567 12.0464333,113.1395 17.9831,113.1395 Z M18.144,106.4795 C14.3760667,106.4795 11.5144333,105.513033 9.5591,103.5801 C7.60363333,101.64716 6.6259,98.7632 6.6259,94.92822 L6.6259,18.2113 C6.6259,14.3989667 7.60363333,11.5206667 9.5591,9.5764 C11.5144333,7.63213333 14.3760667,6.66 18.144,6.66 L94.9613,6.66 C98.6353,6.66 101.473633,7.63213333 103.4763,9.5764 C105.4783,11.5206667 106.4793,14.3989667 106.4793,18.2113 L106.4793,94.92822 C106.4793,98.7632 105.4783,101.64716 103.4763,103.5801 C101.473633,105.513033 98.6353,106.4795 94.9613,106.4795 L18.144,106.4795 Z" id="Shape"></path>
                </g>
                <g id="Thin-L" transform="translate(296.149000, 842.925300)">
                    <path d="M53.4841,108.8123 L57.4344,108.8123 L57.4344,2.1062 L53.4841,2.1062 L53.4841,108.8123 Z M2.105,57.4343 L108.8033,57.4343 L108.8033,53.4841 L2.105,53.4841 L2.105,57.4343 Z M16.62,110.9185 L94.2893,110.9185 C99.7606333,110.9185 103.8983,109.493533 106.7023,106.6436 C109.506967,103.793667 110.9093,99.6868933 110.9093,94.32328 L110.9093,16.5952 C110.9093,11.2315333 109.506967,7.12476667 106.7023,4.2749 C103.8983,1.42496667 99.7606333,0 94.2893,0 L16.62,0 C11.1544,0 7.018,1.40096667 4.2108,4.2029 C1.4036,7.00483333 0,11.1356 0,16.5952 L0,94.32328 C0,99.7828933 1.4036,103.913667 4.2108,106.7156 C7.018,109.517533 11.1544,110.9185 16.62,110.9185 Z M16.781,106.9592 C12.5417333,106.9592 9.3435,105.883367 7.1863,103.7317 C5.02896667,101.5801 3.9503,98.37647 3.9503,94.12081 L3.9503,16.7978 C3.9503,12.5480667 5.02896667,9.3459 7.1863,7.1913 C9.3435,5.0367 12.5417333,3.9594 16.781,3.9594 L94.1283,3.9594 C98.2236333,3.9594 101.385967,5.0367 103.6153,7.1913 C105.844633,9.3459 106.9593,12.5480667 106.9593,16.7978 L106.9593,94.12081 C106.9593,98.37647 105.844633,101.5801 103.6153,103.7317 C101.385967,105.883367 98.2236333,106.9592 94.1283,106.9592 L16.781,106.9592 Z" id="Shape"></path>
                </g>
                <g id="Ultralight-L" transform="translate(-0.000000, 843.507100)">
                    <path d="M53.6005,108.683 L56.1804,108.683 L56.1804,1.0978 L53.6005,1.0978 L53.6005,108.683 Z M1.0965,56.1802 L108.6873,56.1802 L108.6873,53.6005 L1.0965,53.6005 L1.0965,56.1802 Z M15.9219,109.7809 L93.8633,109.7809 C99.0839667,109.7809 103.042633,108.4033 105.7393,105.6481 C108.435967,102.892967 109.7843,98.9585633 109.7843,93.84489 L109.7843,15.9358 C109.7843,10.8221333 108.435967,6.88773333 105.7393,4.1326 C103.042633,1.37753333 99.0839667,0 93.8633,0 L15.9219,0 C10.6975667,0 6.73783333,1.34923333 4.0427,4.0477 C1.34756667,6.74623333 0,10.7089333 0,15.9358 L0,93.84489 C0,99.0717633 1.34756667,103.034467 4.0427,105.733 C6.73783333,108.4316 10.6975667,109.7809 15.9219,109.7809 Z M16.0828,107.2048 C11.6021333,107.2048 8.23153333,106.072967 5.971,103.8093 C3.71026667,101.545633 2.5799,98.1782533 2.5799,93.70716 L2.5799,16.0737 C2.5799,11.5999667 3.71026667,8.23193333 5.971,5.9696 C8.23153333,3.70726667 11.6021333,2.5761 16.0828,2.5761 L93.7023,2.5761 C98.0123,2.5761 101.3403,3.70726667 103.6863,5.9696 C106.0323,8.23193333 107.2053,11.5999667 107.2053,16.0737 L107.2053,93.70716 C107.2053,98.1782533 106.0323,101.545633 103.6863,103.8093 C101.3403,106.072967 98.0123,107.2048 93.7023,107.2048 L16.0828,107.2048 Z" id="Shape"></path>
                </g>
                <g id="Black-M" transform="translate(2380.181200, 419.808800)">
                    <path d="M40.3036,90.57139 L56.4996,90.57139 L56.4996,6.2317 L40.3036,6.2317 L40.3036,90.57139 Z M6.2317,56.4995 L90.5661,56.4995 L90.5661,40.3035 L6.2317,40.3035 L6.2317,56.4995 Z M19.1575,96.8031 L77.6403,96.8031 C83.6856333,96.8031 88.3899,95.1225367 91.7531,91.76141 C95.1164333,88.40029 96.7981,83.7005133 96.7981,77.66208 L96.7981,19.1409 C96.7981,13.1025 95.1164333,8.40276667 91.7531,5.0417 C88.3899,1.68056667 83.6856333,0 77.6403,0 L19.1575,0 C13.1158333,0 8.41246667,1.68063333 5.0474,5.0419 C1.68246667,8.40323333 1.77635684e-15,13.1029 1.77635684e-15,19.1409 L1.77635684e-15,77.66208 C1.77635684e-15,83.7001333 1.68246667,88.3998167 5.0474,91.76113 C8.41246667,95.1224433 13.1158333,96.8031 19.1575,96.8031 Z M21.7944,79.45963 C20.3179333,79.45963 19.2061,79.1163933 18.4589,78.42992 C17.7116333,77.74344 17.338,76.59939 17.338,74.99777 L17.338,21.8052 C17.338,20.1692667 17.7116333,19.0166333 18.4589,18.3473 C19.2061,17.6780333 20.3179333,17.3434 21.7944,17.3434 L75.0034,17.3434 C76.5184667,17.3434 77.6399333,17.6780333 78.3678,18.3473 C79.0958,19.0166333 79.4598,20.1692667 79.4598,21.8052 L79.4598,74.99777 C79.4598,76.59939 79.0958,77.74344 78.3678,78.42992 C77.6399333,79.1163933 76.5184667,79.45963 75.0034,79.45963 L21.7944,79.45963 Z" id="Shape"></path>
                </g>
                <g id="Heavy-M" transform="translate(2084.291200, 420.624500)">
                    <path d="M40.4749,89.19838 L54.7021,89.19838 L54.7021,5.9784 L40.4749,5.9784 L40.4749,89.19838 Z M5.9784,54.7019 L89.1821,54.7019 L89.1821,40.4748 L5.9784,40.4748 L5.9784,54.7019 Z M18.2514,95.1768 L76.9091,95.1768 C82.7343,95.1768 87.2326333,93.59319 90.4041,90.42597 C93.5747667,87.2587633 95.1601,82.77498 95.1601,76.97462 L95.1601,18.2021 C95.1601,12.4017667 93.5747667,7.918 90.4041,4.7508 C87.2326333,1.5836 82.7343,0 76.9091,0 L18.2514,0 C12.4370667,0 7.94156667,1.58283333 4.7649,4.7485 C1.5883,7.91423333 1.77635684e-15,12.3987667 1.77635684e-15,18.2021 L1.77635684e-15,76.97462 C1.77635684e-15,82.7780067 1.5883,87.2625467 4.7649,90.42824 C7.94156667,93.5939467 12.4370667,95.1768 18.2514,95.1768 Z M20.2954,80.06071 C18.5915333,80.06071 17.2996333,79.6480033 16.4197,78.82259 C15.5397,77.9971767 15.0997,76.6725233 15.0997,74.84863 L15.0997,20.3281 C15.0997,18.4861 15.5397,17.1569 16.4197,16.3405 C17.2996333,15.5241667 18.5915333,15.116 20.2954,15.116 L74.8651,15.116 C76.5934333,15.116 77.8914667,15.5241667 78.7592,16.3405 C79.6269333,17.1569 80.0608,18.4861 80.0608,20.3281 L80.0608,74.84863 C80.0608,76.6725233 79.6269333,77.9971767 78.7592,78.82259 C77.8914667,79.6480033 76.5934333,80.06071 74.8651,80.06071 L20.2954,80.06071 Z" id="Shape"></path>
                </g>
                <g id="Bold-M" transform="translate(1788.491200, 421.537000)">
                    <path d="M40.6664,87.66245 L52.6912,87.66245 L52.6912,5.695 L40.6664,5.695 L40.6664,87.66245 Z M5.695,52.6911 L87.6341,52.6911 L87.6341,40.6663 L5.695,40.6663 L5.695,52.6911 Z M17.2377,93.3575 L76.0912,93.3575 C81.6702,93.3575 85.9378333,91.8823533 88.8941,88.93206 C91.8507667,85.9817733 93.3291,81.7396133 93.3291,76.20558 L93.3291,17.1518 C93.3291,11.6178667 91.8507667,7.37573333 88.8941,4.4254 C85.9378333,1.47513333 81.6702,0 76.0912,0 L17.2377,0 C11.6777667,0 7.41483333,1.47343333 4.4489,4.4203 C1.48296667,7.36716667 1.77635684e-15,11.611 1.77635684e-15,17.1518 L1.77635684e-15,76.20558 C1.77635684e-15,81.74646 1.48296667,85.99033 4.4489,88.93719 C7.41483333,91.8840633 11.6777667,93.3575 17.2377,93.3575 Z M18.6185,80.733094 C16.6603,80.733094 15.1669667,80.242676 14.1385,79.26184 C13.1100333,78.281 12.5958,76.75431 12.5958,74.68177 L12.5958,18.6756 C12.5958,16.6032 13.1100333,15.0765667 14.1385,14.0957 C15.1669667,13.1148333 16.6603,12.6244 18.6185,12.6244 L74.7105,12.6244 C76.6774333,12.6244 78.1729333,13.1148333 79.197,14.0957 C80.2211333,15.0765667 80.7332,16.6032 80.7332,18.6756 L80.7332,74.68177 C80.7332,76.75431 80.2211333,78.281 79.197,79.26184 C78.1729333,80.242676 76.6774333,80.733094 74.7105,80.733094 L18.6185,80.733094 Z" id="Shape"></path>
                </g>
                <g id="Semibold-M" transform="translate(1492.421200, 422.166100)">
                    <path d="M40.7985,86.60357 L51.3049,86.60357 L51.3049,5.4996 L40.7985,5.4996 L40.7985,86.60357 Z M5.4996,51.3048 L86.5665,51.3048 L86.5665,40.7984 L5.4996,40.7984 L5.4996,51.3048 Z M16.539,92.1033 L75.5273,92.1033 C80.9365667,92.1033 85.0455,90.7029133 87.8541,87.90214 C90.6621,85.1014 92.0661,81.0258133 92.0661,75.67538 L92.0661,16.4278 C92.0661,11.0774 90.6621,7.00183333 87.8541,4.2011 C85.0455,1.40036667 80.9365667,0 75.5273,0 L16.539,0 C11.1543333,0 7.05166667,1.398 4.231,4.194 C1.41033333,6.99 1.77635684e-15,11.0679333 1.77635684e-15,16.4278 L1.77635684e-15,75.67538 C1.77635684e-15,81.0352867 1.41033333,85.11324 4.231,87.90924 C7.05166667,90.70528 11.1543333,92.1033 16.539,92.1033 Z M17.4625,81.196601 C15.3289,81.196601 13.6967,80.6526073 12.5659,79.56462 C11.4350333,78.4766333 10.8696,76.8106667 10.8696,74.56672 L10.8696,17.5365 C10.8696,15.3051667 11.4350333,13.6423333 12.5659,12.548 C13.6967,11.4537333 15.3289,10.9066 17.4625,10.9066 L74.6038,10.9066 C76.7352,10.9066 78.3668667,11.4537333 79.4988,12.548 C80.6307333,13.6423333 81.1967,15.3051667 81.1967,17.5365 L81.1967,74.56672 C81.1967,76.8106667 80.6307333,78.4766333 79.4988,79.56462 C78.3668667,80.6526073 76.7352,81.196601 74.6038,81.196601 L17.4625,81.196601 Z" id="Shape"></path>
                </g>
                <g id="Medium-M" transform="translate(1196.181200, 422.643000)">
                    <path d="M26.8986,85.80078 L36.2538,85.80078 L36.2538,5.3516 L26.8986,5.3516 L26.8986,85.80078 Z M54.8986,85.80078 L64.2538,85.80078 L64.2538,5.3516 L54.8986,5.3516 L54.8986,85.80078 Z M5.3514,36.2537 L85.7573,36.2537 L85.7573,26.8986 L5.3514,26.8986 L5.3514,36.2537 Z M5.3514,64.2537 L85.7573,64.2537 L85.7573,54.8986 L5.3514,54.8986 L5.3514,64.2537 Z M16.0091,91.1523 L75.0997,91.1523 C80.3803,91.1523 84.3686333,89.80864 87.0647,87.12132 C89.7609667,84.4339733 91.1091,80.48469 91.1091,75.27347 L91.1091,15.8789 C91.1091,10.6677 89.7609667,6.71843333 87.0647,4.0311 C84.3686333,1.3437 80.3803,0 75.0997,0 L16.0091,0 C10.7574333,0 6.77633333,1.34083333 4.0658,4.0225 C1.35526667,6.7041 1.77635684e-15,10.6562333 1.77635684e-15,15.8789 L1.77635684e-15,75.27347 C1.77635684e-15,80.4961567 1.35526667,84.4483067 4.0658,87.12992 C6.77633333,89.8115067 10.7574333,91.1523 16.0091,91.1523 Z M16.586,81.54816 C14.3194,81.54816 12.5818667,80.9635463 11.3734,79.794319 C10.1649333,78.6250797 9.5607,76.8535 9.5607,74.47958 L9.5607,16.6728 C9.5607,14.321 10.1649333,12.5549667 11.3734,11.3747 C12.5818667,10.1943667 14.3194,9.6042 16.586,9.6042 L74.523,9.6042 C76.7791333,9.6042 78.514,10.1943667 79.7276,11.3747 C80.9413333,12.5549667 81.5482,14.321 81.5482,16.6728 L81.5482,74.47958 C81.5482,76.8535 80.9413333,78.6250797 79.7276,79.794319 C78.514,80.9635463 76.7791333,81.54816 74.523,81.54816 L16.586,81.54816 Z" id="Shape"></path>
                </g>
                <g id="Regular-M" transform="translate(900.101200, 423.265200)">
                    <path d="M26.0292,84.75352 L33.8828,84.75352 L33.8828,5.1584 L26.0292,5.1584 L26.0292,84.75352 Z M56.0292,84.75352 L63.8828,84.75352 L63.8828,5.1584 L56.0292,5.1584 L56.0292,84.75352 Z M5.1582,33.8826 L84.7017,33.8826 L84.7017,26.0292 L5.1582,26.0292 L5.1582,33.8826 Z M5.1582,63.8826 L84.7017,63.8826 L84.7017,56.0292 L5.1582,56.0292 L5.1582,63.8826 Z M15.318,89.9119 L74.5421,89.9119 C79.6547667,89.9119 83.4859333,88.64217 86.0356,86.10271 C88.5852667,83.5632633 89.8601,79.77872 89.8601,74.74908 L89.8601,15.1628 C89.8601,10.1332 88.5852667,6.34866667 86.0356,3.8092 C83.4859333,1.26973333 79.6547667,0 74.5421,0 L15.318,0 C10.2397333,0 6.41716667,1.2662 3.8503,3.7986 C1.28343333,6.33106667 1.77635684e-15,10.1191333 1.77635684e-15,15.1628 L1.77635684e-15,74.74908 C1.77635684e-15,79.79278 1.28343333,83.58084 3.8503,86.11326 C6.41716667,88.6456867 10.2397333,89.9119 15.318,89.9119 Z M15.4427,82.00656 C13.0026333,82.00656 11.1277667,81.368961 9.8181,80.093763 C8.50836667,78.8185543 7.8535,76.9092267 7.8535,74.36578 L7.8535,15.5461 C7.8535,13.0371667 8.50836667,11.1364667 9.8181,9.844 C11.1277667,8.5516 13.0026333,7.9054 15.4427,7.9054 L74.4175,7.9054 C76.8363,7.9054 78.7058333,8.5516 80.0261,9.844 C81.3464333,11.1364667 82.0066,13.0371667 82.0066,15.5461 L82.0066,74.36578 C82.0066,76.9092267 81.3464333,78.8185543 80.0261,80.093763 C78.7058333,81.368961 76.8363,82.00656 74.4175,82.00656 L15.4427,82.00656 Z" id="Shape"></path>
                </g>
                <g id="Light-M" transform="translate(604.131200, 424.035100)">
                    <path d="M41.1833,84.58245 L47.2231,84.58245 L47.2231,3.8238 L41.1833,3.8238 L41.1833,84.58245 Z M3.8234,47.223 L84.5476,47.223 L84.5476,41.1833 L3.8234,41.1833 L3.8234,47.223 Z M14.394,88.40631 L73.9775,88.40631 C78.7593667,88.40631 82.3538333,87.1993033 84.7609,84.78529 C87.1677,82.3712833 88.3711,78.8148667 88.3711,74.11604 L88.3711,14.2902 C88.3711,9.5914 87.1677,6.035 84.7609,3.621 C82.3538333,1.207 78.7593667,0 73.9775,0 L14.394,0 C9.63506667,0 6.04633333,1.1978 3.6278,3.5934 C1.20926667,5.98893333 1.77635684e-15,9.55453333 1.77635684e-15,14.2902 L1.77635684e-15,74.11604 C1.77635684e-15,78.85174 1.20926667,82.4173767 3.6278,84.81295 C6.04633333,87.2085233 9.63506667,88.40631 14.394,88.40631 Z M14.5187,82.33169 C11.7591667,82.33169 9.65613333,81.6199667 8.2096,80.19652 C6.76306667,78.7730673 6.0398,76.647034 6.0398,73.81842 L6.0398,14.5879 C6.0398,11.7825 6.76306667,9.66226667 8.2096,8.2272 C9.65613333,6.7922 11.7591667,6.0747 14.5187,6.0747 L73.8529,6.0747 C76.5569,6.0747 78.6460333,6.7922 80.1203,8.2272 C81.5945667,9.66226667 82.3317,11.7825 82.3317,14.5879 L82.3317,73.81842 C82.3317,76.647034 81.5945667,78.7730673 80.1203,80.19652 C78.6460333,81.6199667 76.5569,82.33169 73.8529,82.33169 L14.5187,82.33169 Z" id="Shape"></path>
                </g>
                <g id="Thin-M" transform="translate(308.402200, 425.053400)">
                    <path d="M41.3871,84.35615 L45.028,84.35615 L45.028,2.0588 L41.3871,2.0588 L41.3871,84.35615 Z M2.0581,45.0279 L84.3438,45.0279 L84.3438,41.387 L2.0581,41.387 L2.0581,45.0279 Z M13.172,86.41502 L73.2307,86.41502 C77.5751,86.41502 80.8565,85.2909667 83.0749,83.04286 C85.2934333,80.79476 86.4027,77.5400533 86.4027,73.27874 L86.4027,13.1362 C86.4027,8.87486667 85.2934333,5.62016667 83.0749,3.3721 C80.8565,1.12403333 77.5751,0 73.2307,0 L13.172,0 C8.83533333,0 5.55583333,1.10726667 3.3335,3.3218 C1.11116667,5.5364 1.77635684e-15,8.80786667 1.77635684e-15,13.1362 L1.77635684e-15,73.27874 C1.77635684e-15,77.6070867 1.11116667,80.8785533 3.3335,83.09314 C5.55583333,85.3077267 8.83533333,86.41502 13.172,86.41502 Z M13.2966,82.76165 C10.1145333,82.76165 7.70976667,81.9518933 6.0823,80.33238 C4.45476667,78.7128613 3.641,76.3002213 3.641,73.09446 L3.641,13.3206 C3.641,10.1230667 4.45476667,7.71246667 6.0823,6.0888 C7.70976667,4.4652 10.1145333,3.6534 13.2966,3.6534 L73.1062,3.6534 C76.1873333,3.6534 78.5668667,4.4652 80.2448,6.0888 C81.9227333,7.71246667 82.7617,10.1230667 82.7617,13.3206 L82.7617,73.09446 C82.7617,76.3002213 81.9227333,78.7128613 80.2448,80.33238 C78.5668667,81.9518933 76.1873333,82.76165 73.1062,82.76165 L13.2966,82.76165 Z" id="Shape"></path>
                </g>
                <g id="Ultralight-M" transform="translate(12.195200, 425.574900)">
                    <path d="M41.4915,84.24031 L43.9038,84.24031 L43.9038,1.1548 L41.4915,1.1548 L41.4915,84.24031 Z M1.1539,43.9036 L84.2395,43.9036 L84.2395,41.4915 L1.1539,41.4915 L1.1539,43.9036 Z M12.546,85.39516 L72.8482,85.39516 C76.9685333,85.39516 80.0896,84.3135933 82.2114,82.15046 C84.3333333,79.98734 85.3943,76.88717 85.3943,72.84995 L85.3943,12.5451 C85.3943,8.5079 84.3333333,5.40776667 82.2114,3.2447 C80.0896,1.08156667 76.9685333,0 72.8482,0 L12.546,0 C8.42573333,0 5.30466667,1.06093333 3.1828,3.1828 C1.06093333,5.30466667 1.77635684e-15,8.42543333 1.77635684e-15,12.5451 L1.77635684e-15,72.84995 C1.77635684e-15,76.96965 1.06093333,80.0904433 3.1828,82.21233 C5.30466667,84.3342167 8.42573333,85.39516 12.546,85.39516 Z M12.6707,82.98194 C9.27223333,82.98194 6.7129,82.1219733 4.9927,80.40204 C3.27243333,78.6820947 2.4123,76.1226513 2.4123,72.72371 L2.4123,12.6715 C2.4123,9.2731 3.27243333,6.7138 4.9927,4.9936 C6.7129,3.2734 9.27223333,2.4133 12.6707,2.4133 L72.7237,2.4133 C75.9980333,2.4133 78.5263333,3.2734 80.3086,4.9936 C82.0908667,6.7138 82.982,9.2731 82.982,12.6715 L82.982,72.72371 C82.982,76.1226513 82.0908667,78.6820947 80.3086,80.40204 C78.5263333,82.1219733 75.9980333,82.98194 72.7237,82.98194 L12.6707,82.98194 Z" id="Shape"></path>
                </g>
                <g id="Black-S" transform="translate(2390.446900, 0.000000)">
                    <path d="M31.543,71.38668 L44.7266,71.38668 L44.7266,4.8828 L31.543,4.8828 L31.543,71.38668 Z M4.8828,44.7265 L71.3867,44.7265 L71.3867,31.5429 L4.8828,31.5429 L4.8828,44.7265 Z M15.2344,76.26949 L61.0352,76.26949 C65.8203333,76.26949 69.5556667,74.9267167 72.2412,72.24117 C74.9268,69.5556233 76.2696,65.8202667 76.2696,61.0351 L76.2696,15.2343 C76.2696,10.4491667 74.9268,6.71383333 72.2412,4.0283 C69.5556667,1.34276667 65.8203333,0 61.0352,0 L15.2344,0 C10.4492667,0 6.7139,1.34276667 4.0283,4.0283 C1.34276667,6.71383333 0,10.4491667 0,15.2343 L0,61.0351 C0,65.8202667 1.34276667,69.5556233 4.0283,72.24117 C6.7139,74.9267167 10.4492667,76.26949 15.2344,76.26949 Z M17.4805,62.1093 C16.3737,62.1093 15.5436333,61.8570333 14.9903,61.3525 C14.4369,60.8479667 14.1602,59.9934667 14.1602,58.789 L14.1602,17.4804 C14.1602,16.2434667 14.4369,15.3808333 14.9903,14.8925 C15.5436333,14.4042333 16.3737,14.1601 17.4805,14.1601 L58.7891,14.1601 C59.9284333,14.1601 60.7666333,14.4042333 61.3037,14.8925 C61.8408333,15.3808333 62.1094,16.2434667 62.1094,17.4804 L62.1094,58.789 C62.1094,59.9934667 61.8408333,60.8479667 61.3037,61.3525 C60.7666333,61.8570333 59.9284333,62.1093 58.7891,62.1093 L17.4805,62.1093 Z" id="Shape"></path>
                </g>
                <g id="Heavy-S" transform="translate(2094.336900, 0.599300)">
                    <path d="M31.6698,70.2342 L43.4013,70.2342 L43.4013,4.8367 L31.6698,4.8367 L31.6698,70.2342 Z M4.8367,43.4012 L70.2227,43.4012 L70.2227,31.6696 L4.8367,31.6696 L4.8367,43.4012 Z M14.5775,75.07092 L60.482,75.07092 C65.1212,75.07092 68.7105667,73.8030533 71.2501,71.26732 C73.7897,68.7315933 75.0595,65.15182 75.0595,60.528 L75.0595,14.5428 C75.0595,9.919 73.7897,6.33923333 71.2501,3.8035 C68.7105667,1.26783333 65.1212,0 60.482,0 L14.5775,0 C9.94603333,0 6.35856667,1.26783333 3.8151,3.8035 C1.2717,6.33923333 0,9.919 0,14.5428 L0,60.528 C0,65.15182 1.2717,68.7315933 3.8151,71.26732 C6.35856667,73.8030533 9.94603333,75.07092 14.5775,75.07092 Z M16.3165,62.58178 C15.0560333,62.58178 14.1011333,62.2795867 13.4518,61.6752 C12.8023333,61.0707333 12.4776,60.0894333 12.4776,58.7313 L12.4776,16.3395 C12.4776,14.9642333 12.8023333,13.9786667 13.4518,13.3828 C14.1011333,12.7869333 15.0560333,12.489 16.3165,12.489 L58.743,12.489 C60.0283333,12.489 60.9894667,12.7869333 61.6264,13.3828 C62.2634,13.9786667 62.5819,14.9642333 62.5819,16.3395 L62.5819,58.7313 C62.5819,60.0894333 62.2634,61.0707333 61.6264,61.6752 C60.9894667,62.2795867 60.0283333,62.58178 58.743,62.58178 L16.3165,62.58178 Z" id="Shape"></path>
                </g>
                <g id="Bold-S" transform="translate(1798.306900, 1.269500)">
                    <path d="M31.8116,68.9453 L41.919,68.9453 L41.919,4.7852 L31.8116,4.7852 L31.8116,68.9453 Z M4.7852,41.9189 L68.9209,41.9189 L68.9209,31.8115 L4.7852,31.8115 L4.7852,41.9189 Z M13.8428,73.73046 L59.8633,73.73046 C64.3392333,73.73046 67.7653333,72.5463767 70.1416,70.17821 C72.5179333,67.8100433 73.7061,64.4042733 73.7061,59.9609 L73.7061,13.7695 C73.7061,9.32616667 72.5179333,5.92043333 70.1416,3.5523 C67.7653333,1.1841 64.3392333,0 59.8633,0 L13.8428,0 C9.3832,0 5.96116667,1.1841 3.5767,3.5523 C1.19223333,5.92043333 0,9.32616667 0,13.7695 L0,59.9609 C0,64.4042733 1.19223333,67.8100433 3.5767,70.17821 C5.96116667,72.5463767 9.3832,73.73046 13.8428,73.73046 Z M15.0147,63.11032 C13.5823667,63.11032 12.4878,62.7522567 11.731,62.03613 C10.9742,61.3199767 10.5958,60.1969333 10.5958,58.667 L10.5958,15.0634 C10.5958,13.5335333 10.9742,12.4105 11.731,11.6943 C12.4878,10.9781667 13.5823667,10.6201 15.0147,10.6201 L58.6915,10.6201 C60.1400333,10.6201 61.2386333,10.9781667 61.9873,11.6943 C62.7360333,12.4105 63.1104,13.5335333 63.1104,15.0634 L63.1104,58.667 C63.1104,60.1969333 62.7360333,61.3199767 61.9873,62.03613 C61.2386333,62.7522567 60.1400333,63.11032 58.6915,63.11032 L15.0147,63.11032 Z" id="Shape"></path>
                </g>
                <g id="Semibold-S" transform="translate(1502.066900, 1.731600)">
                    <path d="M31.9093,68.05664 L40.897,68.05664 L40.897,4.7496 L31.9093,4.7496 L31.9093,68.05664 Z M4.7496,40.8969 L68.0233,40.8969 L68.0233,31.9093 L4.7496,31.9093 L4.7496,40.8969 Z M13.3363,72.80625 L59.4367,72.80625 C63.8000333,72.80625 67.1135667,71.67993 69.3773,69.42729 C71.6411,67.1746567 72.773,63.88886 72.773,59.5699 L72.773,13.2363 C72.773,8.91736667 71.6411,5.6316 69.3773,3.379 C67.1135667,1.12633333 63.8000333,0 59.4367,0 L13.3363,0 C8.9951,0 5.68706667,1.12633333 3.4122,3.379 C1.1374,5.6316 0,8.91736667 0,13.2363 L0,59.5699 C0,63.88886 1.1374,67.1746567 3.4122,69.42729 C5.68706667,71.67993 8.9951,72.80625 13.3363,72.80625 Z M14.1171,63.4747 C12.5663,63.4747 11.3754667,63.07812 10.5446,62.28496 C9.71373333,61.4917867 9.2983,60.2709667 9.2983,58.6225 L9.2983,14.1837 C9.2983,12.5471 9.71373333,11.3292667 10.5446,10.5302 C11.3754667,9.73106667 12.5663,9.3315 14.1171,9.3315 L58.6559,9.3315 C60.2170333,9.3315 61.4104333,9.73106667 62.2361,10.5302 C63.0619,11.3292667 63.4748,12.5471 63.4748,14.1837 L63.4748,58.6225 C63.4748,60.2709667 63.0619,61.4917867 62.2361,62.28496 C61.4104333,63.07812 60.2170333,63.4747 58.6559,63.4747 L14.1171,63.4747 Z" id="Shape"></path>
                </g>
                <g id="Medium-S" transform="translate(1205.706900, 2.082000)">
                    <path d="M31.9834,67.3828 L40.1221,67.3828 L40.1221,4.7226 L31.9834,4.7226 L31.9834,67.3828 Z M4.7227,40.122 L67.3428,40.122 L67.3428,31.9834 L4.7227,31.9834 L4.7227,40.122 Z M12.9522,72.10546 L59.1133,72.10546 C63.3913,72.10546 66.6195,71.02294 68.7979,68.8579 C70.9763,66.69286 72.0655,63.4980267 72.0655,59.2734 L72.0655,12.832 C72.0655,8.6074 70.9763,5.4126 68.7979,3.2476 C66.6195,1.08253333 63.3913,0 59.1133,0 L12.9522,0 C8.70086667,0 5.47933333,1.08253333 3.2876,3.2476 C1.09586667,5.4126 0,8.6074 0,12.832 L0,59.2734 C0,63.4980267 1.09586667,66.69286 3.2876,68.8579 C5.47933333,71.02294 8.70086667,72.10546 12.9522,72.10546 Z M13.4366,63.75096 C11.7959333,63.75096 10.5320667,63.3251833 9.645,62.47363 C8.758,61.6220633 8.3145,60.32712 8.3145,58.5888 L8.3145,13.5166 C8.3145,11.7991333 8.758,10.5094 9.645,9.6474 C10.5320667,8.78546667 11.7959333,8.3545 13.4366,8.3545 L58.629,8.3545 C60.2754667,8.3545 61.5407333,8.78546667 62.4248,9.6474 C63.3089333,10.5094 63.751,11.7991333 63.751,13.5166 L63.751,58.5888 C63.751,60.32712 63.3089333,61.6220633 62.4248,62.47363 C61.5407333,63.3251833 60.2754667,63.75096 58.629,63.75096 L13.4366,63.75096 Z" id="Shape"></path>
                </g>
                <g id="Regular-S" transform="translate(909.456900, 2.539000)">
                    <path d="M32.0801,66.50392 L39.1114,66.50392 L39.1114,4.6875 L32.0801,4.6875 L32.0801,66.50392 Z M4.6875,39.1113 L66.4551,39.1113 L66.4551,32.0801 L4.6875,32.0801 L4.6875,39.1113 Z M12.4512,71.191425 L58.6914,71.191425 C62.8580667,71.191425 65.9749333,70.1660333 68.042,68.11525 C70.1090667,66.06447 71.1426,62.9882867 71.1426,58.8867 L71.1426,12.3047 C71.1426,8.20316667 70.1090667,5.127 68.042,3.0762 C65.9749333,1.0254 62.8580667,0 58.6914,0 L12.4512,0 C8.31706667,0 5.20833333,1.0254 3.125,3.0762 C1.04166667,5.127 0,8.20316667 0,12.3047 L0,58.8867 C0,62.9882867 1.04166667,66.06447 3.125,68.11525 C5.20833333,70.1660333 8.31706667,71.191425 12.4512,71.191425 Z M12.5489,64.11135 C10.7910333,64.11135 9.43196667,63.6474833 8.4717,62.71975 C7.51143333,61.79201 7.0313,60.4003933 7.0313,58.5449 L7.0313,12.6465 C7.0313,10.8235667 7.51143333,9.4401 8.4717,8.4961 C9.43196667,7.5521 10.7910333,7.0801 12.5489,7.0801 L58.5938,7.0801 C60.3516,7.0801 61.7106333,7.5521 62.6709,8.4961 C63.6312333,9.4401 64.1114,10.8235667 64.1114,12.6465 L64.1114,58.5449 C64.1114,60.4003933 63.6312333,61.79201 62.6709,62.71975 C61.7106333,63.6474833 60.3516,64.11135 58.5938,64.11135 L12.5489,64.11135 Z" id="Shape"></path>
                </g>
                <g id="Light-S" transform="translate(613.406900, 3.220100)">
                    <path d="M32.2164,66.35256 L37.6432,66.35256 L37.6432,3.5069 L32.2164,3.5069 L32.2164,66.35256 Z M3.5067,37.6431 L66.3188,37.6431 L66.3188,32.2164 L3.5067,32.2164 L3.5067,37.6431 Z M11.6338,69.8595367 L58.1919,69.8595367 C62.0659667,69.8595367 64.9734667,68.8896278 66.9144,66.94981 C68.8553333,65.0099967 69.8258,62.1356267 69.8258,58.3267 L69.8258,11.5328 C69.8258,7.72386667 68.8553333,4.8495 66.9144,2.9097 C64.9734667,0.9699 62.0659667,0 58.1919,0 L11.6338,0 C7.78213333,0 4.88026667,0.964866667 2.9282,2.8946 C0.976066667,4.82433333 0,7.70373333 0,11.5328 L0,58.3267 C0,62.1558 0.976066667,65.0352133 2.9282,66.96494 C4.88026667,68.8946711 7.78213333,69.8595367 11.6338,69.8595367 Z M11.7315,64.39893 C9.69103333,64.39893 8.13013333,63.8694933 7.0488,62.81062 C5.96746667,61.75174 5.4268,60.1684333 5.4268,58.0607 L5.4268,11.7988 C5.4268,9.7136 5.96746667,8.13593333 7.0488,7.0658 C8.13013333,5.99566667 9.69103333,5.4606 11.7315,5.4606 L58.0943,5.4606 C60.1043667,5.4606 61.6576667,5.99566667 62.7542,7.0658 C63.8507333,8.13593333 64.399,9.7136 64.399,11.7988 L64.399,58.0607 C64.399,60.1684333 63.8507333,61.75174 62.7542,62.81062 C61.6576667,63.8694933 60.1043667,64.39893 58.0943,64.39893 L11.7315,64.39893 Z" id="Shape"></path>
                </g>
                <g id="Thin-S" transform="translate(317.561900, 4.120800)">
                    <path d="M32.3967,66.15248 L35.7015,66.15248 L35.7015,1.9456 L32.3967,1.9456 L32.3967,66.15248 Z M1.9451,35.7014 L66.1385,35.7014 L66.1385,32.3967 L1.9451,32.3967 L1.9451,35.7014 Z M10.5528,68.098117 L57.5313,68.098117 C61.0183667,68.098117 63.6489333,67.201588 65.423,65.40853 C67.1970667,63.6154767 68.0841,61.008 68.0841,57.5861 L68.0841,10.512 C68.0841,7.09013333 67.1970667,4.48266667 65.423,2.6896 C63.6489333,0.896533333 61.0183667,0 57.5313,0 L10.5528,0 C7.07473333,0 4.4464,0.884833333 2.6678,2.6545 C0.889266667,4.4241 0,7.04326667 0,10.512 L0,57.5861 C0,61.05486 0.889266667,63.6740533 2.6678,65.44368 C4.4464,67.2133047 7.07473333,68.098117 10.5528,68.098117 Z M10.6505,64.77938 C8.23623333,64.77938 6.4084,64.16322 5.167,62.9309 C3.92553333,61.69858 3.3048,59.8617133 3.3048,57.4203 L3.3048,10.6778 C3.3048,8.24573333 3.92553333,6.4112 5.167,5.1742 C6.4084,3.93726667 8.23623333,3.3188 10.6505,3.3188 L57.4337,3.3188 C59.7774333,3.3188 61.5876667,3.93726667 62.8644,5.1742 C64.1410667,6.4112 64.7794,8.24573333 64.7794,10.6778 L64.7794,57.4203 C64.7794,59.8617133 64.1410667,61.69858 62.8644,62.9309 C61.5876667,64.16322 59.7774333,64.77938 57.4337,64.77938 L10.6505,64.77938 Z" id="Shape"></path>
                </g>
                <g id="Ultralight-S" transform="translate(21.296900, 4.582200)">
                    <path d="M32.489,66.04993 L34.7069,66.04993 L34.7069,1.1459 L32.489,1.1459 L32.489,66.04993 Z M1.1452,34.7068 L66.0462,34.7068 L66.0462,32.489 L1.1452,32.489 L1.1452,34.7068 Z M9.9991,67.19586 L57.193,67.19586 C60.4818,67.19586 62.9705,66.3369167 64.6591,64.61903 C66.3477667,62.90115 67.1921,60.4303733 67.1921,57.2067 L67.1921,9.9891 C67.1921,6.76543333 66.3477667,4.29466667 64.6591,2.5768 C62.9705,0.858933333 60.4818,0 57.193,0 L9.9991,0 C6.71236667,0 4.22416667,0.8438 2.5345,2.5314 C0.844833333,4.219 0,6.7049 0,9.9891 L0,57.2067 C0,60.4909 0.844833333,62.97681 2.5345,64.66443 C4.22416667,66.35205 6.71236667,67.19586 9.9991,67.19586 Z M10.0968,64.97418 C7.49106667,64.97418 5.5265,64.3136033 4.2031,62.99245 C2.87963333,61.67129 2.2179,59.7045733 2.2179,57.0923 L2.2179,10.1036 C2.2179,7.4938 2.87963333,5.5277 4.2031,4.2053 C5.5265,2.8829 7.49106667,2.2217 10.0968,2.2217 L57.0954,2.2217 C59.61,2.2217 61.5518,2.8829 62.9208,4.2053 C64.2897333,5.5277 64.9742,7.4938 64.9742,10.1036 L64.9742,57.0923 C64.9742,59.7045733 64.2897333,61.67129 62.9208,62.99245 C61.5518,64.3136033 59.61,64.97418 57.0954,64.97418 L10.0968,64.97418 Z" id="Shape"></path>
                </g>
            </g>
        </g>
    </g>
</svg>